<?xml version="1.0" encoding="UTF-8"?>
<svg id="Layer_1" data-name="Layer 1" xmlns="http://www.w3.org/2000/svg" viewBox="0 0 148.3921367 37.8533383">
  <g id="logo-vardex">
    <path d="m21.2072701,24.8801128c2.5473889-5.5091284,5.094597-10.8998452,7.6418051-16.409064-.7701282-.0592059-1.4809602-.1184117-2.1917921-.177708-.355416,0-.710832,0-1.0071325-.1184117-.2961197,0-.4738277.0592059-.5922394.355416-1.2441367,2.7249161-2.5473889,5.4499226-3.7913448,8.2341349-.0592963.1185021-.1184117.2369139-.2370042.4146218-.0591155-.1184117-.1184117-.177708-.177708-.2961197-1.0662479-1.8956724-2.1917921-3.7912544-3.2580401-5.6869268-.1184117-.177708-.1184117-.4146218,0-.5924202.4147122-.9477458.8885399-1.9547879,1.3625484-2.9619203-.7110127-.0592059-1.3032522-.1184117-1.9549687-.177708-.2961197,0-.5924202-.1184117-.8885399-.0592059-.6517165.0592059-.9478362-.2962101-1.2439559-.7701282-.9478362-1.717874-1.9549687-3.4358384-2.9619203-5.1537125-.0592963-.1185021-.1185925-.2369139-.2370042-.4147122,8.708053.7701282,17.3568098,1.5402564,26.1241591,2.3103846-5.3314205,11.492175-10.7221372,22.9252345-16.0535576,34.4767058C14.513482,25.1763229,7.2863891,12.6178096,0,0h.355416c2.1326767.177708,4.3244688.4147122,6.5162609.5924202.2961197,0,.4147122.177708.5924202.4146218,3.9097565,6.812471,7.8193323,13.6248516,11.7883851,20.4372323.6515357,1.1255442,1.3032522,2.2510884,2.0140841,3.4358384" style="fill: #9a1b27; stroke-width: 0px;"/>
    <path d="m77.7207608,13.3878474h4.206057c2.1917921,0,4.4428805,0,6.6346726.0592963.4147122,0,.8883592.1184117,1.3030714.177708,1.9549687.533124,2.9026241,1.7771703,2.9619203,3.9689624,0,.4739181,0,1.0070421-.118231,1.4809602-.237185,1.1847501-.8887207,2.0140841-2.0142649,2.4880022-.710832.2962101-1.4809602.4739181-2.2510884.7701282,1.4809602,2.1325863,2.9026241,4.2058763,4.4428805,6.3977588h-3.4948635c-.1185925,0-.237185-.177708-.2964813-.2962101-1.3030714-1.8956724-2.6065044-3.7320486-3.9095758-5.6276306-.1778888-.2370042-.355416-.3555064-.6515357-.3555064h-3.6138176v6.2200508h-3.1987438v-15.2835198Zm3.1987438,2.8435086v3.3765422h6.1610257c.5329432,0,1.0662479-.177708,1.5402564-.2962101.5922394-.177708.8290629-.6516261.8883592-1.3032522.0592963-1.0662479-.4736469-1.717874-1.7770799-1.7770799-2.3103846-.0592963-4.561473,0-6.8714961,0" style="fill: #9a1b27; stroke-width: 0px;"/>
    <path d="m96.9139467,28.6713672v-15.2835198h8.2935216c.8294245,0,1.7177836.1185021,2.5472081.2962101,2.4286156.533124,4.0281683,2.0733804,4.7390002,4.4428805.5333047,1.8956724.5333047,3.7912544,0,5.7461327-.7701282,2.6657102-2.7247353,4.3243784-5.4498322,4.6798848-.8887207.1184117-1.7177836.177708-2.6065044.177708h-7.5826896l.0592963-.0592963Zm3.1991054-2.7842124c2.0139034-.1184117,4.0281683.177708,6.0420716-.2369139,1.7181452-.355416,2.9026241-1.362458,3.2580401-3.1396283.1185925-.533124.1778888-1.0663383.1778888-1.5994623,0-2.7842124-1.4809602-4.6205885-4.3835843-4.7390906-1.6588489-.0592059-3.3173363,0-4.9761853,0,0,0-.0592963,0-.118231.0592963v9.7150951-.0592963Z" style="fill: #9a1b27; stroke-width: 0px;"/>
    <path d="m119.779885,25.8871548h11.0186185v2.7250065h-14.2173623v-15.2835198h13.80265v2.7250065h-10.6039062v3.3765422h7.1086811v2.6065044h-7.1086811v3.7912544" style="fill: #9a1b27; stroke-width: 0px;"/>
    <path d="m142.6461848,20.7334424c1.8956724,2.6657102,3.7909832,5.2722146,5.7459519,7.9379248h-3.613456c-.1185925,0-.2368235-.177708-.355416-.2962101-1.1848404-1.4809602-2.3696809-2.9619203-3.5541598-4.4428805-.1185925-.1184117-.237185-.2961197-.3557775-.4738277-.118231.1184117-.2368235.2369139-.355416.4146218-1.1844789,1.540166-2.3693193,3.0211262-3.5541598,4.5613826-.1775272.177708-.2961197.2962101-.5922394.2962101h-3.0212166c.118231-.177708.2368235-.2962101.2961197-.4147122,1.7177836-2.3102942,3.4952251-4.6797944,5.2130087-6.9900886.1775272-.2370042.1775272-.4147122,0-.6516261-1.6588489-2.2510884-3.2580401-4.5021768-4.8575927-6.6939689-.1185925-.1185021-.1775272-.2962101-.355416-.4739181h1.8956724c.6515357,0,1.3623677-.177708,1.8956724.0592059.5329432.2370042.8294245.9478362,1.1848404,1.4217543.7697667,1.0070421,1.5398949,2.0140841,2.3100231,2.9619203.0592963.1185021.1778888.177708.2964813.355416.118231-.1184117.1775272-.2369139.2961197-.355416,1.0662479-1.4217543,2.1324959-2.7842124,3.1394475-4.2058763.1778888-.2370042.355416-.3555064.6515357-.2962101h3.1398091c-1.8956724,2.4880022-3.7913448,4.9167986-5.627721,7.4048008" style="fill: #9a1b27; stroke-width: 0px;"/>
    <path d="m74.2258973,28.6713672h-2.9619203c-.1185925,0-.2964813-.177708-.4147122-.2962101-.592601-1.0662479-1.2441367-2.1325863-1.8363761-3.1988342-.1185925-.2369139-.2964813-.2962101-.5333047-.2962101h-6.6346726c-.2961197,0-.4147122.1185021-.4740085.355416-.4738277,1.0663383-.9476554,2.0733804-1.4216639,3.1396283-.1184117.2370042-.2961197.3555064-.533124.3555064h-2.6065044c.0592963-.177708.1184117-.2962101.177708-.4147122,2.3103846-4.8575024,4.6205885-9.6558892,6.9309731-14.5133916.1184117-.2962101.2368235-.4147122.5924202-.355416h1.7770799c.1184117,0,.355416.1184117.4147122.2369139,2.4879118,4.9167986,4.916889,9.8335972,7.4048008,14.7503958,0,.0592059,0,.1185021.1185925.2962101m-6.2201412-5.9831369c-.9478362-1.6586682-1.8956724-3.2581305-2.8435086-4.9167986-.9478362,1.6586682-1.7770799,3.2581305-2.7249161,4.9167986h5.5684247Z" style="fill: #9a1b27; stroke-width: 0px;"/>
    <path d="m38.5049644,13.3878474h3.2580401c.1185925,0,.2963005.177708.4147122.3555064,1.4809602,3.1396283,2.9619203,6.3384625,4.3835843,9.4780909.0592963.177708.1778888.355416.2963005.6516261.1184117-.177708.177708-.2962101.2370042-.4739181,1.4809602-3.1988342,3.0210358-6.3977588,4.501996-9.596593.1185925-.355416.2963005-.4739181.710832-.4147122h2.7250969c-.0592963.177708-.1185925.3555064-.177708.4739181-2.1917921,4.7982965-4.383765,9.6558892-6.5755572,14.4541857-.1184117.2962101-.2961197.4147122-.5924202.4147122h-1.7177836c-.2370042,0-.355416-.0592963-.4740085-.2962101-2.2510884-4.9167986-4.5612922-9.8335972-6.8123806-14.7503958,0-.0592059,0-.1185021-.1184117-.2962101" style="fill: #9a1b27; stroke-width: 0px;"/>
  </g>
</svg>