<svg id="Layer_1" data-name="Layer 1" xmlns="http://www.w3.org/2000/svg" viewBox="0 0 118.18182 14.78457">
  <g id="logo-vkusvill">
    <path d="M66.64846,14.40668H59.27982V.33064h6.47131C68.67967.33064,70.262,2.1492,70.262,4.322a4.0633,4.0633,0,0,1-1.22815,2.716,3.906,3.906,0,0,1,2.05471,3.25919A4.13968,4.13968,0,0,1,66.64846,14.40668ZM62.7753,11.57259h3.40093a1.33909,1.33909,0,0,0,1.39335-1.39343A1.3581,1.3581,0,0,0,66.17623,8.7621H62.7753Zm0-5.621h2.55059a1.339,1.339,0,0,0,1.44077-1.39343,1.32663,1.32663,0,0,0-1.44077-1.39342H62.7753Z" style="fill: #47b872"/>
    <path d="M27.51442,14.40668,22.43661,7.20334,27.34908.33064H23.26316l-3.8968,5.64458V.33064H15.8001v14.076h3.56626V8.6204l3.92044,5.78628Z" style="fill: #47b872"/>
    <path d="M91.44681.33064V10.746c0,.47234-.21247.82663-.63757.82663-.61408,0-.63772-.70853-.63772-1.18088h-3.33c0,2.26726,1.29893,4.36922,4.08578,4.36922a4.16577,4.16577,0,0,0,4.10942-4.39286V3.49541h4.818V14.40668h3.56612V.33064Z" style="fill: #47b872"/>
    <path d="M43.50336.33064l-4.936,10.39172a6.47465,6.47465,0,0,1-5.99894,4.03857,5.59192,5.59192,0,0,1-5.739-5.2903h3.44821a2.3661,2.3661,0,0,0,2.45616,2.102,2.1994,2.1994,0,0,0,1.84224-.92108L28.71879.33064h4.08592l3.73146,6.80185L39.60656.33064Z" style="fill: #47b872"/>
    <path d="M9.47063,14.40668H0V.33064H8.5968c2.92854,0,4.51087,1.81856,4.51087,3.99136a4.06308,4.06308,0,0,1-1.228,2.716,3.90627,3.90627,0,0,1,2.05471,3.25919,4.13976,4.13976,0,0,1-4.4401,4.10946M3.49534,11.57259H9.02189a1.3391,1.3391,0,0,0,1.39336-1.39343A1.3581,1.3581,0,0,0,9.02189,8.7621H3.4717v2.81049Zm0-5.621H8.14806A1.33891,1.33891,0,0,0,9.58869,4.55819,1.3389,1.3389,0,0,0,8.14806,3.16477H3.49534Z" style="fill: #47b872"/>
    <path d="M53.70613,9.11635a3.50658,3.50658,0,0,1-3.37729,2.19644,3.69787,3.69787,0,0,1-3.708-3.94411,3.685,3.685,0,0,1,3.708-3.94412,3.52562,3.52562,0,0,1,3.37729,2.22h3.826a7.40382,7.40382,0,0,0-14.59559,1.7477A7.40382,7.40382,0,0,0,57.53215,9.14h-3.826Z" style="fill: #47b872"/>
    <path d="M82.63754.33064l-5.928,8.12442V.33064H73.14327v14.076H76.379L82.3305,6.28226v8.12442h3.56626V.33064Z" style="fill: #47b872"/>
    <path d="M107.41225.33064V9.84848a1.26823,1.26823,0,0,1-1.39335,1.39346h-1.03917v3.14113h1.88937c2.4798,0,4.13306-1.55876,4.13306-4.41649V3.49541h3.61354V14.40668h3.56612V.33064Z" style="fill: #47b872"/>
  </g>
</svg>
