<?xml version="1.0" encoding="utf-8"?>
<!-- Generator: Adobe Illustrator 26.1.0, SVG Export Plug-In . SVG Version: 6.00 Build 0)  -->
<svg version="1.1" id="Layer_1" xmlns="http://www.w3.org/2000/svg" xmlns:xlink="http://www.w3.org/1999/xlink" x="0px" y="0px"
	 viewBox="0 0 133.3 26.4" style="enable-background:new 0 0 133.3 26.4;" xml:space="preserve">
<style type="text/css">
	.st0{fill-rule:evenodd;clip-rule:evenodd;fill:#10532A;}
	.st1{fill-rule:evenodd;clip-rule:evenodd;fill:#7AB743;}
	.st2{fill-rule:evenodd;clip-rule:evenodd;fill:#099146;}
	.st3{fill-rule:evenodd;clip-rule:evenodd;fill:#BDCD31;}
</style>
<g id="logo-perekrestok">
	<path class="st0" d="M20.2,7.7c-1.6,0-2.7,0.6-3.5,1.5l-3.1,3.2l3.1,3.2c0.9,0.9,1.9,1.5,3.5,1.5c2.6,0,4.6-2.1,4.6-4.7
		S22.8,7.7,20.2,7.7z M20.2,9.7c1.4,0,2.6,1.2,2.6,2.7s-1.1,2.7-2.6,2.7c-0.8,0-1.4-0.3-2.1-0.9l-1.8-1.8l1.8-1.8
		C18.8,10,19.4,9.7,20.2,9.7"/>
	<path class="st1" d="M4.6,7.7C2,7.7,0,9.8,0,12.4s2,4.7,4.6,4.7c1.6,0,2.7-0.7,3.5-1.5l3.1-3.2L8.1,9.2C7.3,8.3,6.2,7.7,4.6,7.7z
		 M4.6,9.7c0.8,0,1.4,0.3,2.1,0.9l1.8,1.8l-1.8,1.8c-0.7,0.7-1.3,0.9-2.1,0.9c-1.5,0-2.6-1.2-2.6-2.7S3.2,9.7,4.6,9.7"/>
	<path class="st2" d="M12.4,13.5c-0.3,0-3.2,3.1-3.2,3.1c-0.9,0.9-1.5,1.9-1.5,3.5c0,2.6,2.1,4.6,4.7,4.6s4.7-2,4.7-4.6
		c0-1.6-0.7-2.7-1.5-3.5L12.4,13.5L12.4,13.5z M12.4,16.3l1.8,1.8c0.7,0.7,0.9,1.3,0.9,2.1c0,1.5-1.2,2.6-2.7,2.6s-2.7-1.1-2.7-2.6
		c0-0.8,0.3-1.4,0.9-2.1L12.4,16.3L12.4,16.3z"/>
	<path class="st3" d="M12.4,0C9.8,0,7.7,2,7.7,4.6c0,1.6,0.7,2.7,1.5,3.5l3.2,3.1l3.2-3.1c0.9-0.9,1.5-1.9,1.5-3.5
		C17.1,2,15,0,12.4,0 M12.4,2c1.5,0,2.7,1.1,2.7,2.6c0,0.8-0.3,1.4-0.9,2.1l-1.8,1.8l-1.8-1.8C9.9,6,9.7,5.5,9.7,4.6
		C9.7,3.1,10.9,2,12.4,2z"/>
	<path class="st1" d="M127.1,24h1.9v-0.6h-1.9V22h2.5v-0.6h-3.2v5h3.3v-0.7h-2.5L127.1,24L127.1,24z M125.5,25.7
		c-0.2,0-0.2-0.1-0.3-0.3c-0.2-0.6-0.2-0.9-0.4-1.3c-0.1-0.2-0.2-0.4-0.6-0.6c0.2-0.1,0.4-0.3,0.4-0.5c0.1-0.4,0.2-0.9,0.3-1.1
		c0.1-0.1,0.2-0.1,0.2-0.1c0,0,0.1,0,0.1,0h0.1v-0.6l0,0c-0.1,0-0.1,0-0.2,0c-0.2,0-0.6,0.1-0.8,0.5c-0.2,0.4-0.2,1-0.4,1.3
		c-0.2,0.3-0.4,0.3-0.7,0.3h-0.6v-2.1h-0.7v5h0.7V24h0.6c0.3,0,0.7,0,0.8,0.3c0.1,0.1,0.1,0.3,0.2,0.7c0.1,0.3,0.1,0.7,0.3,0.9
		c0.2,0.3,0.4,0.4,0.7,0.4h0c0.1,0,0.2,0,0.3-0.1l0,0v-0.6l-0.1,0C125.6,25.7,125.5,25.7,125.5,25.7 M120.5,23.5
		c-0.2,0.2-0.6,0.2-0.8,0.2h-0.9V22h0.9c0.2,0,0.5,0,0.7,0.2c0.1,0.1,0.3,0.3,0.3,0.6C120.8,23.1,120.6,23.3,120.5,23.5 M121,21.6
		c-0.4-0.3-0.9-0.3-1.3-0.3h-1.7v5h0.7v-2h1c0.3,0,0.8,0,1.3-0.4c0.1-0.1,0.5-0.5,0.5-1.1S121.3,21.8,121,21.6 M114.9,24.3l0.6-2
		l0.6,2H114.9z M116,21.3h-0.8l-1.6,5h0.7l0.4-1.4h1.6l0.4,1.4h0.8l0-0.1L116,21.3z M110.6,25.1l-1.4-3.8h-1v5h0.6v-3.9l1.5,3.9h0.5
		l1.5-4v4h0.7v-5h-1L110.6,25.1L110.6,25.1z M106.5,23.5c-0.2,0.2-0.6,0.2-0.8,0.2h-0.9V22h0.9c0.2,0,0.5,0,0.7,0.2
		c0.1,0.1,0.3,0.3,0.3,0.6C106.8,23.1,106.7,23.3,106.5,23.5z M107,21.6c-0.4-0.3-0.9-0.3-1.2-0.3h-1.7v5h0.7v-2h1
		c0.3,0,0.8,0,1.3-0.4c0.1-0.1,0.5-0.5,0.5-1.1S107.3,21.8,107,21.6 M100.9,24h1.9v-0.6h-1.9V22h2.4v-0.6h-3.2v5h3.3v-0.7h-2.5V24z
		 M95.5,26.3h0.7V22h2.1v4.3H99v-5h-3.5V26.3z M93.3,24.1l-1.3-2.8h-0.8l1.7,3.6c-0.1,0.2-0.2,0.4-0.3,0.5c-0.1,0.1-0.3,0.2-0.5,0.2
		c-0.1,0-0.2,0-0.2,0l-0.1,0v0.7l0,0c0.1,0,0.2,0.1,0.3,0.1c0.3,0,0.6-0.1,0.8-0.3c0.3-0.3,0.5-0.7,0.6-1l1.5-3.7h-0.7L93.3,24.1
		L93.3,24.1z M133.3,22v-0.6h-3.5V22h1.4v4.3h0.7V22H133.3z M90.4,24.6c-0.1,0.4-0.3,0.7-0.4,0.8c-0.2,0.2-0.4,0.3-0.8,0.3
		c-0.6,0-0.9-0.4-1.1-0.7c-0.2-0.3-0.2-0.8-0.2-1.2c0-0.3,0-0.9,0.3-1.2c0.3-0.5,0.6-0.6,1-0.6c0.4,0,0.6,0.1,0.9,0.5
		c0.1,0.2,0.2,0.4,0.2,0.6l0,0.1h0.1l0.6-0.1v-0.1c-0.1-0.5-0.3-0.9-0.6-1.2c-0.4-0.4-0.8-0.4-1.2-0.4c-0.3,0-1,0.1-1.5,0.7
		c-0.2,0.2-0.6,0.7-0.6,1.8c0,0.6,0.2,1.3,0.5,1.8c0.5,0.8,1.2,0.9,1.6,0.9h0c0.4,0,0.8-0.1,1.2-0.5c0.3-0.3,0.5-0.7,0.6-1.1v-0.1
		L90.4,24.6L90.4,24.6L90.4,24.6z"/>
	<path class="st0" d="M52.2,16.3c-1,0-1.6-0.8-1.6-2.1v-2.1c0-1.1,0.6-2,1.6-2c1.1,0,1.7,0.9,1.7,3C53.9,14.8,53.6,16.3,52.2,16.3z
		 M53.5,8.3c-0.2,0-0.3,0-0.5,0c-1,0.1-1.9,0.4-2.5,0.8V8.8c0-0.1,0.1-0.3-0.2-0.3h-1.6c-0.5,0-0.8,0.4-0.8,0.8v10
		c0,1.4,1,2.3,2.3,2.3h0.1c0.1,0,0.3-0.1,0.3-0.3v-3.6c0.5,0.3,1.2,0.6,2.2,0.6c0.3,0,0.6,0,0.9-0.1c1.7-0.3,3.2-1.7,3.2-5
		C56.8,10.5,55.7,8.5,53.5,8.3z"/>
	<path class="st0" d="M119.7,15.5c-0.4,0.6-0.9,0.8-1.4,0.8c-0.5,0-1-0.2-1.4-0.8c-0.2-0.4-0.4-1-0.4-2.3c0-0.7,0-1.6,0.5-2.3
		c0.3-0.5,0.7-0.7,1.3-0.7s1,0.2,1.3,0.7c0.4,0.7,0.5,1.6,0.5,2.3C120.1,14.5,119.9,15.1,119.7,15.5 M118.3,8.3
		c-0.9,0-2.2,0.2-3.3,1.3c-0.4,0.4-1.4,1.6-1.4,3.6c0,1.5,0.6,2.9,1.5,3.8c0.7,0.6,1.7,1.2,3.2,1.2c1.5,0,2.6-0.6,3.2-1.2
		c0.9-0.9,1.5-2.2,1.5-3.8c0-2-1-3.2-1.4-3.6C120.5,8.5,119.2,8.3,118.3,8.3z"/>
	<path class="st0" d="M101.9,10.2c0.5,0,1,0.3,1.2,0.6c0.1,0.1,0.2,0.4,0.3,0.6c0.1,0.2,0.2,0.4,0.4,0.4h1.9c0.1,0,0.2-0.1,0.2-0.2
		c-0.2-0.9-0.6-1.7-1.2-2.3c-0.7-0.6-1.8-1-2.9-1c-1.2,0-2.3,0.5-3,1.1c-0.7,0.6-1.5,1.9-1.5,3.8c0,1.6,0.6,3,1.4,3.8
		c0.5,0.5,1.5,1.2,3.1,1.2c1.4,0,2.4-0.5,2.9-1c0.6-0.5,1-1.3,1.2-2.1c0-0.1,0-0.2-0.2-0.2h-2c-0.2,0-0.3,0.1-0.4,0.4c0,0,0,0,0,0.1
		v0c0,0,0,0,0,0c-0.1,0.1-0.1,0.2-0.2,0.3c-0.3,0.5-0.7,0.6-1.2,0.6c-0.4,0-0.9-0.1-1.3-0.7c-0.3-0.4-0.4-1.1-0.4-2.3
		c0-1.5,0.2-2.1,0.4-2.3C100.9,10.5,101.4,10.2,101.9,10.2"/>
	<path class="st0" d="M40.4,12.2c0-0.6,0.2-1.1,0.5-1.5c0.3-0.4,0.8-0.6,1.4-0.6c0.7,0,1.2,0.4,1.4,0.7c0.3,0.4,0.4,0.9,0.4,1.3
		H40.4z M42.3,8.3c-0.8,0-2,0.1-3.1,1.1c-0.8,0.6-1.7,1.8-1.7,3.9c0,1.8,0.7,3,1.4,3.6c0.7,0.7,1.9,1.3,3.4,1.3c1.3,0,2.3-0.3,3-0.9
		c0.5-0.4,1.2-1,1.5-2c0-0.1,0.1-0.3-0.1-0.3h-2.2c-0.1,0-0.3,0.2-0.3,0.2c-0.1,0.2-0.2,0.3-0.3,0.5c-0.3,0.3-0.7,0.5-1.4,0.5
		c-0.9,0-1.4-0.5-1.7-1c-0.2-0.4-0.3-1-0.3-1.5h6.2c0.3,0,0.3-0.2,0.3-0.5v-0.1c0-1.5-0.5-2.6-1.1-3.3C45.3,9.1,44.2,8.3,42.3,8.3"
		/>
	<path class="st0" d="M75.5,14.9c-0.6-1.2-1.1-2-1.6-2.1c0,0,0.7,0,1.1-1.3c0.2-0.4,0.6-1.5,0.9-2.1C76,9.2,76.2,9,76.4,8.7
		c0,0,0-0.1,0-0.1c0-0.1-0.1-0.2-0.2-0.2h-1.9c-0.5,0-0.8,0.4-1,0.8c-0.3,0.7-0.4,1.1-0.8,2c-0.2,0.4-0.6,0.9-1.4,0.9h-0.6V8.8
		c0-0.1,0.1-0.3-0.2-0.3h-1.7c-0.5,0-0.8,0.4-0.8,0.8v7.3c0,0.2,0,0.5,0.1,0.8c0.2,0.4,0.6,0.8,1.1,0.8h1.2c0.3,0,0.4-0.2,0.4-0.4
		v-3.8H71c1.1,0,1.5,1.2,2,2.1c0.4,0.8,1.1,2.2,2.4,2.1H77c0.1,0,0.2-0.1,0.2-0.2c0,0,0-0.1,0-0.1C76.8,17.1,76,15.8,75.5,14.9"/>
	<path class="st0" d="M35.8,5.7h-7.6c-0.5,0-0.9,0.4-0.9,1v8.8c0,0.3,0,0.7,0.2,1.2c0.3,0.8,1.1,1.3,1.9,1.4h0.4
		c0.2,0,0.3-0.1,0.3-0.4v-9c0-0.2,0.2-0.3,0.4-0.3h3.1c0.2,0,0.3,0.1,0.4,0.3v6.8c0,0.3,0,0.7,0.2,1.2c0.3,0.8,1.1,1.3,2,1.4h0.3
		c0.2,0,0.3-0.1,0.3-0.4v-11C36.7,6.3,36.3,5.8,35.8,5.7"/>
	<path class="st0" d="M114.5,8.6c0-0.1,0-0.2-0.2-0.2h-9c-0.2,0-0.2,0.1-0.2,0.2c0.3,0.9,1,1.8,1.9,1.8h1c0.2,0,0.4,0.2,0.4,0.4v4.9
		c0,0.4,0.1,0.6,0.2,0.9c0.3,0.8,1.1,1.3,1.9,1.4h0.3c0.2,0,0.3-0.1,0.3-0.4v-6.8c0-0.2,0.2-0.4,0.4-0.4h1
		C113.6,10.4,114.2,9.5,114.5,8.6z"/>
	<path class="st0" d="M133.2,17.7c-0.4-0.6-1.2-1.9-1.7-2.8c-0.6-1.2-1.1-2-1.6-2.1c0,0,0.7,0,1.1-1.3c0.2-0.4,0.6-1.5,0.9-2.1
		c0.1-0.2,0.3-0.5,0.5-0.7c0,0,0-0.1,0-0.1c0-0.1-0.1-0.2-0.2-0.2h-1.9c-0.5,0-0.8,0.4-1,0.8c-0.3,0.7-0.4,1.1-0.8,2
		c-0.2,0.4-0.6,0.9-1.4,0.9h-0.6V8.8c0-0.1,0.1-0.3-0.2-0.3h-1.7c-0.5,0-0.8,0.4-0.8,0.8v7.3c0,0.2,0,0.5,0.1,0.8
		c0.2,0.4,0.6,0.8,1.1,0.8h1.2c0.3,0,0.4-0.2,0.4-0.4v-3.8h0.5c1.1,0,1.5,1.2,2,2.1c0.4,0.8,1.1,2.2,2.4,2.1h1.5
		c0.1,0,0.2-0.1,0.2-0.2C133.2,17.8,133.2,17.8,133.2,17.7"/>
	<path class="st0" d="M81.8,16.3c-1,0-1.6-0.8-1.6-2.1v-2.1c0-1.1,0.6-2,1.6-2c1.1,0,1.7,0.9,1.7,3C83.6,14.8,83.2,16.3,81.8,16.3z
		 M83.2,8.3c-0.2,0-0.3,0-0.5,0c-1,0.1-1.9,0.4-2.5,0.8V8.8c0-0.1,0.1-0.3-0.2-0.3h-1.6c-0.5,0-0.8,0.4-0.8,0.8v10
		c0,1.4,1,2.3,2.3,2.3h0.1c0.1,0,0.3-0.1,0.3-0.3v-3.6c0.5,0.3,1.2,0.6,2.2,0.6c0.3,0,0.6,0,0.9-0.1c1.7-0.3,3.2-1.7,3.2-5
		C86.5,10.5,85.3,8.5,83.2,8.3z"/>
	<path class="st0" d="M90.1,12.2c0-0.6,0.2-1.1,0.5-1.5c0.3-0.4,0.8-0.6,1.4-0.6c0.7,0,1.2,0.4,1.4,0.7c0.3,0.4,0.4,0.9,0.4,1.3
		H90.1L90.1,12.2z M92,8.3c-0.8,0-2,0.1-3.1,1.1c-0.7,0.6-1.7,1.8-1.7,3.9c0,1.8,0.7,3,1.4,3.6c0.7,0.7,1.9,1.3,3.4,1.3
		c1.3,0,2.3-0.3,3-0.9c0.5-0.4,1.2-1,1.5-2c0-0.1,0.1-0.3-0.1-0.3h-2.2c-0.1,0-0.3,0.2-0.3,0.2c-0.1,0.2-0.2,0.3-0.3,0.5
		c-0.3,0.3-0.7,0.5-1.4,0.5c-0.9,0-1.4-0.5-1.7-1c-0.2-0.4-0.3-1-0.3-1.5h6.2c0.3,0,0.3-0.2,0.3-0.5v-0.1c0-1.5-0.5-2.6-1.1-3.3
		C94.9,9.1,93.8,8.3,92,8.3"/>
	<path class="st0" d="M63.8,8.4h-4.5l-1.4,0c0,1.7,1.7,2.3,2.9,2.3h4l1.9,0C66.7,9,65,8.5,63.8,8.4z"/>
	<path class="st0" d="M63.8,12.1h-5.9c0,1.7,1.7,2.3,2.9,2.3h4l1.9,0C66.7,12.7,65,12.1,63.8,12.1L63.8,12.1z"/>
	<path class="st0" d="M63.8,15.8h-5.9c0,1.7,1.7,2.3,2.9,2.3h4l1.9,0C66.7,16.4,65,15.8,63.8,15.8z"/>
</g>
</svg>
