<?xml version="1.0" encoding="utf-8"?>
<!-- Generator: Adobe Illustrator 26.1.0, SVG Export Plug-In . SVG Version: 6.00 Build 0)  -->
<svg version="1.1" id="Layer_1" xmlns="http://www.w3.org/2000/svg" xmlns:xlink="http://www.w3.org/1999/xlink" x="0px" y="0px"
	 viewBox="0 0 1199 599" style="enable-background:new 0 0 1199 599;" xml:space="preserve">
<g id="background">
	<rect style="fill:#FFFFFF;" width="1199" height="599"/>
	<path style="fill:#F8F8F8;stroke:#5C5C5C;stroke-width:2;" d="M980.5,108.5h-740V178c-4,1-14.6000061,5.3000031-25,14.5
		s-15,22.5-16,28v240H270v16h50V490h17v-29.5h243V487h59.5v-26.5h341V108.5z"/>
	<path style="fill:none;stroke:#5C5C5C;stroke-width:2;" d="M238.9989929,461.1640015v-212
		c-0.1660004-7.8330078,0.5010071-22.5,15.5019989-31c12.6150055-7.147995,24.003006-5.5,28.5009918-5.5"/>
	<path style="fill:#EFEDED;" d="M287.5,384.5V171H247v-54.5h242V171H334.5v213.5H287.5z"/>
	<rect x="288" y="387.5" style="fill:#EFEDED;" width="47" height="26"/>
	<rect x="288" y="416.5" style="fill:#EFEDED;" width="47" height="39"/>
	<rect x="630" y="217.5" style="fill:#EFEDED;" width="37" height="89"/>
	<path style="fill:#EFEDED;" d="M282.9979858,456.1870117v-238.5c-6,0-16.4979858-1.5-26.5,4
		c-10.8209991,5.9499969-13.3339996,17.8330078-13,23.5v211H282.9979858z"/>
	<rect x="882" y="225.5" style="fill:#EFEDED;" width="92" height="63"/>
	<rect x="882" y="343.5" style="fill:#EFEDED;" width="92" height="48"/>
	<rect x="914" y="406.5" style="fill:#EFEDED;" width="60" height="49"/>
	<rect x="929" y="291.5" style="fill:#EFEDED;" width="45" height="48"/>
	<rect x="493.5" y="117" style="fill:#FFFFFF;stroke:#D9D9D9;" width="40" height="53"/>
	<rect x="702.5" y="117" style="fill:#FFFFFF;stroke:#D9D9D9;" width="34" height="50"/>
	<rect x="537.5" y="117" style="fill:#FFFFFF;stroke:#D9D9D9;" width="41" height="53"/>
	<rect x="740.5" y="117" style="fill:#FFFFFF;stroke:#D9D9D9;" width="38" height="50"/>
	<rect x="782.5" y="117" style="fill:#FFFFFF;stroke:#D9D9D9;" width="28" height="50"/>
	<rect x="813.5" y="117" style="fill:#FFFFFF;stroke:#D9D9D9;" width="28" height="50"/>
	<rect x="845.5" y="117" style="fill:#FFFFFF;stroke:#D9D9D9;" width="21" height="50"/>
	<path style="fill:#FFFFFF;stroke:#D9D9D9;" d="M884.5,167v-0.5H870V117h102v99.5h-87.5V167z"/>
	<path style="fill:#FFFFFF;stroke:#D9D9D9;" d="M834.5,405.5v0.5h75v49H339V196h288v113.5h63V271h144.5V405.5z"/>
	<path style="fill:#D9D9D9;" d="M590,194.5h-58v3h58V194.5z"/>
	<path style="fill:#D9D9D9;" d="M788,269.5h-58v3h58V269.5z"/>
	<line style="fill:none;stroke:#5C5C5C;" x1="602.5" y1="115.5" x2="602.5" y2="150.5"/>
	<line style="fill:none;stroke:#5C5C5C;" x1="673.5" y1="115.5" x2="673.5" y2="150.5"/>
	<line style="fill:none;stroke:#5C5C5C;" x1="673" y1="121" x2="602" y2="121"/>
	<line style="fill:none;stroke:#5C5C5C;" x1="673" y1="118" x2="602" y2="118"/>
	<line style="fill:none;stroke:#5C5C5C;" x1="673" y1="124" x2="602" y2="124"/>
	<line style="fill:none;stroke:#5C5C5C;" x1="673" y1="127" x2="602" y2="127"/>
	<line style="fill:none;stroke:#5C5C5C;" x1="673" y1="130" x2="602" y2="130"/>
	<line style="fill:none;stroke:#5C5C5C;" x1="673" y1="133" x2="602" y2="133"/>
	<line style="fill:none;stroke:#5C5C5C;" x1="673" y1="136" x2="602" y2="136"/>
	<line style="fill:none;stroke:#5C5C5C;" x1="673" y1="139" x2="602" y2="139"/>
	<line style="fill:none;stroke:#5C5C5C;" x1="673" y1="142" x2="602" y2="142"/>
	<line style="fill:none;stroke:#5C5C5C;" x1="673" y1="145" x2="602" y2="145"/>
	<line style="fill:none;stroke:#5C5C5C;" x1="673" y1="148" x2="602" y2="148"/>
	<path style="fill:#5C5C5C;" d="M475.144989,448.3519897c0.0033569,0.3120422-0.0248108,0.6235962-0.0840149,0.9299927
		c-0.0421143,0.2450867-0.1274414,0.4807739-0.2520142,0.6960144c-0.1068726,0.183075-0.2627258,0.3327026-0.4500122,0.4320068
		c-0.2058716,0.1051025-0.434906,0.1567078-0.6659851,0.1499939c-0.2928772,0.0116882-0.5802612-0.0819702-0.8099976-0.2640076
		c-0.2279053-0.2007751-0.3925781-0.4634094-0.473999-0.756012c-0.1113892-0.3859253-0.1639709-0.7864075-0.1560059-1.1879883
		c-0.0076904-0.4003906,0.0387268-0.8000183,0.1380005-1.1879883c0.0731812-0.2915649,0.2344971-0.5534973,0.4620056-0.75
		c0.2396545-0.1851501,0.5375061-0.2787476,0.8399963-0.2640076c0.2928772-0.0116882,0.5802612,0.0819702,0.8099976,0.2640076
		c0.231781,0.1960449,0.3990479,0.457428,0.480011,0.75C475.0991211,447.5490112,475.1537781,447.9499512,475.144989,448.3519897z
		 M472.8889771,448.3519897c-0.0053406,0.3118286,0.020813,0.6234131,0.0780029,0.9299927
		c0.032074,0.2053528,0.1191711,0.3981934,0.2520142,0.5580139c0.1247559,0.1259766,0.2968445,0.193512,0.473999,0.1860046
		c0.1743774,0.0084839,0.3442383-0.0568542,0.4679871-0.1799927c0.1364746-0.1582336,0.2258606-0.3515625,0.2579956-0.5580139
		c0.0613098-0.3081055,0.0894775-0.6218872,0.0840149-0.9360046c0.0059509-0.3101501-0.0222168-0.6200256-0.0840149-0.9240112
		c-0.032135-0.2064514-0.121521-0.3997803-0.2579956-0.5580139c-0.1219482-0.1264954-0.2924805-0.1942749-0.4679871-0.1860046
		c-0.1771545-0.0075073-0.3492432,0.0600281-0.473999,0.1860046c-0.1328735,0.1598206-0.2199402,0.3526611-0.2520142,0.5580139
		C472.9095459,447.7325134,472.8834229,448.0421448,472.8889771,448.3519897z M475.986969,450.5v-4.2839966h2.5920105v0.5580139
		h-1.9440002v1.2059937h0.552002c0.3395996-0.0147705,0.6785889,0.0403748,0.9960022,0.1619873
		c0.2175598,0.0848694,0.3996277,0.2415161,0.5159912,0.4440002c0.1066895,0.1947021,0.1604919,0.4140015,0.1560059,0.6359863
		c0.0062866,0.2389221-0.0517273,0.4751587-0.1679993,0.6839905c-0.1181946,0.2009583-0.2996521,0.3570862-0.5159912,0.4440002
		c-0.2971497,0.1105347-0.6131592,0.161499-0.9299927,0.1499939L475.986969,450.5z M477.1929626,449.95401
		c0.2658386,0.021698,0.5319214-0.0390625,0.7619934-0.1740112c0.1637573-0.137146,0.2509766-0.3450928,0.2340088-0.5580139
		c0.0084534-0.146759-0.0316162-0.2922363-0.1140137-0.4140015c-0.0907288-0.109314-0.2153015-0.1853027-0.3540039-0.2160034
		c-0.202179-0.0492859-0.4100037-0.0715027-0.6180115-0.0660095h-0.4679871v1.428009L477.1929626,449.95401z
		 M482.3109741,448.3520203c0.0033569,0.3120422-0.0248108,0.6235962-0.0840149,0.9299927
		c-0.0421448,0.2450867-0.1274719,0.4807739-0.2520142,0.6960144c-0.1068726,0.183075-0.2627258,0.3327026-0.4500122,0.4320068
		c-0.2058716,0.1051331-0.434906,0.1567078-0.6659851,0.1499939c-0.2928772,0.0116882-0.5802612-0.0819702-0.8099976-0.2640076
		c-0.2279053-0.2007751-0.3925781-0.4634094-0.473999-0.756012c-0.1113892-0.3859253-0.1639709-0.7864075-0.1560059-1.1879883
		c-0.0077209-0.4003906,0.0386963-0.8000183,0.1380005-1.1879883c0.0731812-0.2915649,0.2345276-0.5534668,0.4620056-0.75
		c0.2396545-0.1851501,0.5375061-0.2787781,0.8399963-0.2640076c0.2928772-0.0116882,0.5802612,0.0819702,0.8099976,0.2640076
		c0.231781,0.1960449,0.3990479,0.457428,0.480011,0.75c0.1161194,0.3850098,0.1708069,0.7859497,0.1619873,1.1879883H482.3109741z
		 M480.0549622,448.3520203c-0.0053406,0.3118286,0.0207825,0.6234131,0.0780029,0.9299927
		c0.032074,0.2053528,0.1191406,0.3981934,0.2520142,0.5580139c0.1247559,0.1259766,0.2968445,0.193512,0.473999,0.1860046
		c0.1743774,0.0084839,0.3442383-0.0568542,0.4679871-0.1799927c0.1364746-0.1582336,0.2258606-0.3515625,0.2579956-0.5580139
		c0.0613098-0.3081055,0.0894775-0.6218872,0.0840149-0.9360046c0.0059509-0.3101501-0.0222168-0.6200256-0.0840149-0.9240112
		c-0.032135-0.2064819-0.121521-0.3997803-0.2579956-0.5580139c-0.1219482-0.1264954-0.2924805-0.1942749-0.4679871-0.1860046
		c-0.1771545-0.0075073-0.3492432,0.0600281-0.473999,0.1860046c-0.1328735,0.1598206-0.2199402,0.3526611-0.2520142,0.5580139
		C480.075531,447.7325439,480.0493774,448.0421753,480.0549622,448.3520203z M485.7389526,450.5000305h-2.8800049v-0.4920044
		l1.1040039-1.1220093c0.2160034-0.2200012,0.3960266-0.4099731,0.5400085-0.5700073
		c0.1282349-0.1409912,0.2371826-0.2983398,0.3240051-0.4679871c0.0724182-0.1538391,0.109314-0.321991,0.1080017-0.4920044
		c0.0143433-0.1846924-0.0563354-0.3658447-0.1919861-0.4920044c-0.1393127-0.1159973-0.316864-0.1759033-0.4979858-0.1679993
		c-0.1824036-0.0029602-0.3630676,0.0360413-0.5280151,0.1140137c-0.1733093,0.0828247-0.3363953,0.1855164-0.4859924,0.3059998
		l-0.3420105-0.4259949c0.116272-0.1001892,0.2406921-0.1905212,0.3720093-0.269989
		c0.1414795-0.0823364,0.2926636-0.1468506,0.4500122-0.1919861c0.1797485-0.0495605,0.3655396-0.0737915,0.552002-0.071991
		c0.2419434-0.0063477,0.4820862,0.0429382,0.7019958,0.1440125c0.1864929,0.0836182,0.3433533,0.2216492,0.4500122,0.3959961
		c0.1108398,0.1823425,0.1670532,0.3926697,0.1619873,0.6059875c0.0010986,0.1651917-0.0252686,0.3294373-0.0780029,0.4859924
		c-0.0559387,0.1555786-0.1326294,0.3029175-0.2279968,0.4379883c-0.1054382,0.1557007-0.223877,0.3022461-0.3540039,0.4379883
		c-0.1399841,0.1479797-0.2939758,0.3039856-0.4620056,0.4679871l-0.7980042,0.7739868v0.0299988h2.0820007L485.7389526,450.5000305
		z"/>
	<path style="fill:#5C5C5C;" d="M555.0490112,162.352005c0.0033569,0.312027-0.0247803,0.6236115-0.0839844,0.9299927
		c-0.0421753,0.2450867-0.1275024,0.4807281-0.2520142,0.6959991c-0.1068726,0.1830902-0.2626953,0.3327026-0.4500122,0.4320068
		c-0.2058716,0.1051178-0.4349365,0.1567078-0.6660156,0.1499939c-0.2929077,0.0116882-0.5802612-0.0819702-0.8099976-0.2640076
		c-0.2279053-0.2007599-0.3925781-0.4633942-0.473999-0.7559967c-0.1113892-0.38591-0.1640015-0.7864075-0.1560059-1.1880035
		c-0.0076904-0.4004059,0.0386963-0.8000183,0.1380005-1.1880035c0.0731812-0.2915649,0.2344971-0.5534821,0.4619751-0.75
		c0.2396851-0.1851654,0.5375366-0.2787781,0.8400269-0.2640076c0.2929077-0.0117035,0.5802612,0.0819702,0.8099976,0.2640076
		c0.2317505,0.1960602,0.3990479,0.457428,0.4799805,0.75C555.0031128,161.5490112,555.0578003,161.9499359,555.0490112,162.352005z
		 M552.7930298,162.352005c-0.0053711,0.3118286,0.020752,0.6234131,0.0779419,0.9299927
		c0.0321045,0.2053375,0.1191406,0.3981628,0.2520142,0.5579987c0.1247559,0.1259766,0.296875,0.193512,0.473999,0.1860046
		c0.1743774,0.0084839,0.3442383-0.0568542,0.4680176-0.1799927c0.1364746-0.1582336,0.2258301-0.3515472,0.2579956-0.5579987
		c0.0613403-0.3081055,0.0894775-0.6219025,0.0839844-0.9360046c0.0059814-0.3101501-0.0222168-0.6200104-0.0839844-0.923996
		c-0.0321655-0.2064514-0.121521-0.399765-0.2579956-0.5579987c-0.1219482-0.1264954-0.2924805-0.1942902-0.4680176-0.1860046
		c-0.177124-0.0075073-0.3492432,0.0600281-0.473999,0.1860046c-0.1328735,0.1598358-0.2199097,0.3526611-0.2520142,0.5579987
		C552.8135986,161.7325439,552.7874756,162.04216,552.7930298,162.352005z M558.5600586,164.5l-0.4559937-1.2359924h-1.6560059
		L555.9920654,164.5h-0.6719971l1.6259766-4.302002h0.6719971L559.2380371,164.5H558.5600586z M557.4920654,161.4940033
		c-0.0120239-0.0439911-0.0339966-0.1099854-0.065979-0.197998l-0.0839844-0.276001
		c-0.0279541-0.095993-0.0499268-0.173996-0.065979-0.2339935c-0.0200195,0.0800018-0.0440063,0.1679993-0.0720215,0.2640076
		c-0.0239868,0.0919952-0.0480347,0.1779938-0.0720215,0.2579956c-0.0240479,0.076004-0.0440063,0.1380005-0.0599976,0.1860046
		l-0.4320068,1.2059937h1.2839966L557.4920654,161.4940033z M562.4080811,162.352005
		c0.0033569,0.312027-0.0247803,0.6236115-0.0839844,0.9299927c-0.0421143,0.2451019-0.1274414,0.4807587-0.2520142,0.6959991
		c-0.1068726,0.1830902-0.2626953,0.3327026-0.4500122,0.4320068c-0.2058716,0.1051178-0.4349365,0.1567078-0.6660156,0.1499939
		c-0.2929077,0.0117035-0.5802612-0.0819702-0.8099976-0.2640076c-0.2279053-0.2007599-0.3925781-0.4633942-0.473999-0.7559967
		c-0.1113892-0.38591-0.1640015-0.7864075-0.1560059-1.1880035c-0.0076904-0.4004059,0.0386963-0.8000183,0.1380005-1.1880035
		c0.0731812-0.2915649,0.2344971-0.5534821,0.4619751-0.75c0.2396851-0.1851654,0.5375366-0.2787781,0.8400269-0.2640076
		c0.2929077-0.0117035,0.5802612,0.0819702,0.8099976,0.2640076c0.2317505,0.1960449,0.3990479,0.457428,0.4799805,0.75
		c0.1161499,0.3850098,0.1708374,0.7859497,0.1619873,1.1880035L562.4080811,162.352005z M560.1520996,162.352005
		c-0.0053101,0.3118286,0.020813,0.6233978,0.0780029,0.9299927c0.0321045,0.2053375,0.1192017,0.3981476,0.2520142,0.5579987
		c0.1247559,0.1259613,0.296875,0.1934967,0.473999,0.1860046c0.1743774,0.0084839,0.3442383-0.0568542,0.4680176-0.1799927
		c0.1364746-0.1582336,0.2258301-0.3515472,0.2579956-0.5579987c0.0612793-0.3081055,0.0894775-0.6219025,0.0839844-0.9360046
		c0.0059204-0.3101501-0.0222168-0.6200104-0.0839844-0.923996c-0.0321655-0.2064514-0.121521-0.399765-0.2579956-0.5579987
		c-0.1219482-0.1264954-0.2924805-0.1942902-0.4680176-0.1860046c-0.177124-0.0075073-0.3492432,0.0600281-0.473999,0.1860046
		c-0.1328125,0.1598511-0.2199097,0.3526611-0.2520142,0.5579987c-0.0574341,0.3045349-0.0836182,0.6141357-0.078125,0.923996
		H560.1520996z M562.9741211,162.6760101c-0.0001831-0.2447968,0.0158081-0.4893188,0.0479736-0.7319946
		c0.0338745-0.2321472,0.0942993-0.4596252,0.1800537-0.6779938c0.0843506-0.2102966,0.2063599-0.4034576,0.3599854-0.5700073
		c0.1591797-0.1728973,0.3563232-0.3064117,0.5759888-0.3899994c0.2720947-0.102356,0.5614014-0.1512451,0.8519897-0.1439972
		c0.0839844,0,0.1779785,0.0039978,0.2819824,0.0119934c0.0891113,0.001297,0.1777344,0.013382,0.2639771,0.0359955v0.5339966
		c-0.0822754-0.0253448-0.1665649-0.0434113-0.2520142-0.0540009c-0.0874634-0.0119781-0.1756592-0.0179901-0.2639771-0.0180054
		c-0.234436-0.0080261-0.4678345,0.0349731-0.684021,0.1260071c-0.1704102,0.0761108-0.3174438,0.196228-0.4260254,0.3480072
		c-0.107666,0.1562042-0.1849976,0.3312378-0.2280273,0.5160065c-0.0501099,0.2066345-0.0802612,0.4176025-0.0900269,0.6300049
		h0.0360107c0.0606079-0.0966797,0.135437-0.1836548,0.2219849-0.2579956
		c0.095459-0.0802002,0.2054443-0.1412964,0.3239746-0.1799927c0.1433105-0.0463562,0.293335-0.0686493,0.4439697-0.0659943
		c0.2258911-0.0054321,0.4493408,0.0483551,0.6480103,0.1560059c0.1865234,0.1024323,0.3372803,0.2594604,0.4320068,0.4499969
		c0.1098022,0.2215881,0.1633911,0.4668121,0.1560059,0.7140045c0.0067749,0.2703247-0.0529785,0.5381775-0.1740112,0.7799988
		c-0.1065063,0.2103271-0.2737427,0.3838196-0.4799805,0.4980011c-0.4108887,0.2089233-0.8918457,0.2307892-1.3200073,0.0599976
		c-0.1826782-0.0779572-0.3449097-0.197052-0.473999-0.3480072c-0.1448975-0.1723175-0.2531128-0.372406-0.3179932-0.5879974
		c-0.0803223-0.2705536-0.1187134-0.5518188-0.1139526-0.8339996L562.9741211,162.6760101z M564.4561157,164.0320129
		c0.2089233,0.0076599,0.411438-0.0729065,0.5579834-0.2220001c0.1593628-0.1976318,0.2366943-0.4489594,0.2160034-0.7019958
		c0.0116577-0.2167664-0.0566406-0.4302826-0.1920166-0.6000061c-0.144043-0.1565094-0.3519287-0.238327-0.5640259-0.2220001
		c-0.1568604-0.0037079-0.3119507,0.0335083-0.4500122,0.1080017c-0.1212769,0.0657806-0.2243652,0.160614-0.2999878,0.276001
		c-0.0686035,0.1010132-0.1061401,0.2198944-0.1079712,0.3419952c0,0.1239777,0.0181885,0.2472839,0.0539551,0.3659973
		c0.03479,0.1173553,0.0874023,0.228653,0.1560059,0.3300018c0.0697632,0.0980072,0.15979,0.1798553,0.2639771,0.2400055
		c0.1130981,0.0581665,0.2388916,0.0870361,0.3660278,0.0839996H564.4561157z"/>
	<path style="fill:#5C5C5C;" d="M510.0490112,162.352005c0.0033569,0.312027-0.0248108,0.6236115-0.0840149,0.9299927
		c-0.0421448,0.2450867-0.1274719,0.4807434-0.2520142,0.6959991c-0.1068726,0.183075-0.2627258,0.3326874-0.4500122,0.4320068
		c-0.2058716,0.1051178-0.434906,0.1566925-0.6659851,0.1499939c-0.2928772,0.0116882-0.5802612-0.0819855-0.8099976-0.2640076
		c-0.2278748-0.2007751-0.3925476-0.4634094-0.473999-0.7559967c-0.1113892-0.38591-0.1639709-0.7864075-0.1560059-1.1880035
		c-0.0077209-0.4004059,0.0386963-0.8000336,0.1380005-1.1880035c0.0731812-0.2915802,0.2344971-0.5534821,0.4620056-0.75
		c0.2396545-0.1851501,0.5375061-0.2787628,0.8399963-0.2640076c0.2928772-0.0116882,0.5802612,0.0819702,0.8099976,0.2640076
		c0.2317505,0.1960602,0.3990479,0.457428,0.480011,0.75C510.0031433,161.5490112,510.0578308,161.9499359,510.0490112,162.352005z
		 M507.7929993,162.352005c-0.0053406,0.3118286,0.020813,0.6234131,0.0780029,0.9299927
		c0.032074,0.2053375,0.1191711,0.3981628,0.2520142,0.5579987c0.1247559,0.1259766,0.2968445,0.193512,0.473999,0.1860046
		c0.1743774,0.0084839,0.3442383-0.0568542,0.4679871-0.1799927c0.1364746-0.1582184,0.2258606-0.351532,0.2579956-0.5579987
		c0.0613098-0.3081055,0.0894775-0.6219025,0.0840149-0.9360046c0.0059509-0.3101501-0.0222168-0.6200104-0.0840149-0.923996
		c-0.032135-0.2064667-0.121521-0.3997803-0.2579956-0.5579987c-0.1219482-0.1264954-0.2924805-0.1942749-0.4679871-0.1860046
		c-0.1771545-0.0075073-0.3492432,0.0600281-0.473999,0.1860046c-0.1328735,0.1598206-0.2199402,0.3526459-0.2520142,0.5579987
		C507.8135681,161.7325439,507.7874451,162.04216,507.7929993,162.352005z M513.5599976,164.5l-0.4559937-1.2359924h-1.6560059
		L510.9920044,164.5h-0.6719971l1.6260071-4.302002h0.6720276L514.2380371,164.5H513.5599976z M512.4920044,161.4940033
		c-0.0120239-0.0439911-0.0339966-0.1099854-0.065979-0.197998l-0.0839844-0.276001
		c-0.0279541-0.095993-0.0499878-0.173996-0.065979-0.2339935c-0.0200195,0.0800018-0.0440674,0.1679993-0.0720215,0.2640076
		c-0.0240479,0.0919952-0.0480347,0.1779938-0.0720215,0.2579956c-0.0240479,0.076004-0.0440674,0.1380005-0.0599976,0.1860046
		l-0.4320068,1.2059937h1.2839966L512.4920044,161.4940033z M517.40802,162.352005
		c0.0033569,0.312027-0.0247803,0.6236115-0.0839844,0.9299927c-0.0421143,0.2450867-0.1274414,0.4807587-0.2520142,0.6959991
		c-0.1068726,0.1830902-0.2626953,0.3327026-0.4500122,0.4320068c-0.2058716,0.1051178-0.4349365,0.1567078-0.6660156,0.1499939
		c-0.2929077,0.0117035-0.5802612-0.0819702-0.8099976-0.2640076c-0.2279053-0.2007599-0.3925781-0.4633942-0.473999-0.7559967
		c-0.1113892-0.38591-0.1640015-0.7864075-0.1560059-1.1880035c-0.0076904-0.4004059,0.0386963-0.8000183,0.1380005-1.1880035
		c0.0731812-0.2915649,0.2344971-0.5534821,0.4619751-0.75c0.2396851-0.1851654,0.5375366-0.2787781,0.8400269-0.2640076
		c0.2929077-0.0117035,0.5802612,0.0819702,0.8099976,0.2640076c0.2317505,0.1960449,0.3990479,0.457428,0.4799805,0.75
		C517.3621216,161.5490112,517.4168091,161.9499359,517.40802,162.352005z M515.1520386,162.352005
		c-0.0053101,0.3118286,0.020813,0.6233978,0.0780029,0.9299927c0.0321045,0.2053375,0.1192017,0.3981476,0.2520142,0.5579987
		c0.1247559,0.1259766,0.296875,0.1934967,0.473999,0.1860046c0.1743774,0.0084839,0.3442383-0.0568542,0.4680176-0.1799927
		c0.1364746-0.1582336,0.2258301-0.3515472,0.2579956-0.5579987c0.0612793-0.3081055,0.0894775-0.6219025,0.0839844-0.9360046
		c0.0059204-0.3101501-0.0222168-0.6200104-0.0839844-0.923996c-0.0321655-0.2064514-0.121521-0.399765-0.2579956-0.5579987
		c-0.1219482-0.1264954-0.2924805-0.1942749-0.4680176-0.1860046c-0.177124-0.0075073-0.3492432,0.0600281-0.473999,0.1860046
		c-0.1328125,0.1598511-0.2199097,0.3526611-0.2520142,0.5579987c-0.0574341,0.3045349-0.0836182,0.6141357-0.078064,0.923996
		H515.1520386z M518.4540405,164.5l1.710022-3.7200012h-2.25v-0.5639954h2.934021v0.4559937L519.144104,164.5H518.4540405z"/>
	<path style="fill:#5C5C5C;" d="M712.934021,159.352005c0.0033569,0.312027-0.0247803,0.6236115-0.0839844,0.9299927
		c-0.0421753,0.2450867-0.1275024,0.4807434-0.2520142,0.6959991c-0.1068726,0.1830902-0.2626953,0.3327026-0.4500122,0.4320068
		c-0.2058716,0.1051178-0.4349365,0.1567078-0.6660156,0.1499939c-0.2929077,0.0117035-0.5802612-0.0819702-0.8099976-0.2640076
		c-0.2279053-0.2007599-0.3925781-0.4633942-0.473999-0.7559967c-0.1113892-0.38591-0.1640015-0.7864075-0.1560059-1.1880035
		c-0.0076904-0.4004059,0.0386963-0.8000183,0.1380005-1.1880035c0.0731812-0.2915649,0.2344971-0.5534821,0.4619751-0.75
		c0.2396851-0.1851654,0.5375366-0.2787781,0.8400269-0.2640076c0.2929077-0.0117035,0.5802612,0.0819702,0.8099976,0.2640076
		c0.2318115,0.1960297,0.3990479,0.4574127,0.4799805,0.75C712.8881226,158.5490112,712.9428101,158.9499359,712.934021,159.352005z
		 M710.6780396,159.352005c-0.0053101,0.3118286,0.020813,0.6233978,0.0780029,0.9299927
		c0.0321045,0.2053375,0.1191406,0.3981628,0.2520142,0.5579987c0.1247559,0.1259766,0.296875,0.193512,0.473999,0.1860046
		c0.1743774,0.0084839,0.3442383-0.0568542,0.4680176-0.1799927c0.1364746-0.1582336,0.2258301-0.3515472,0.2579956-0.5579987
		c0.0612793-0.3081055,0.0894775-0.6219025,0.0839844-0.9360046c0.0059204-0.3101501-0.0222168-0.6200104-0.0839844-0.923996
		c-0.0321655-0.2064514-0.121521-0.399765-0.2579956-0.5579987c-0.1219482-0.1264954-0.2924805-0.1942749-0.4680176-0.1860046
		c-0.177124-0.0075073-0.3492432,0.0600281-0.473999,0.1860046c-0.1328735,0.1598358-0.2199097,0.3526611-0.2520142,0.5579987
		c-0.0574341,0.3045349-0.0836182,0.6141357-0.078064,0.923996H710.6780396z M716.4460449,161.5l-0.4559937-1.2359924h-1.6560059
		L713.8780518,161.5h-0.6719971l1.6259766-4.302002h0.6720581L717.1240845,161.5H716.4460449z M715.3780518,158.4940033
		c-0.0120239-0.0439911-0.0339966-0.1099854-0.065979-0.197998l-0.0839844-0.276001
		c-0.0279541-0.095993-0.0499268-0.173996-0.065979-0.2339935c-0.0200195,0.0800018-0.0440063,0.1679993-0.0720215,0.2640076
		c-0.0239868,0.0919952-0.0480347,0.1779938-0.0720215,0.2579956c-0.0239868,0.076004-0.0440063,0.1380005-0.0599976,0.1860046
		l-0.4320068,1.2059937h1.2839966L715.3780518,158.4940033z M720.2940674,159.352005
		c0.0033569,0.312027-0.0247803,0.6236115-0.0839844,0.9299927c-0.0421753,0.2450867-0.1275024,0.4807281-0.2520142,0.6959991
		c-0.1068726,0.183075-0.2627563,0.3326874-0.4500122,0.4320068c-0.2058716,0.1051178-0.4349365,0.1567078-0.6660156,0.1499939
		c-0.2929077,0.0116882-0.5802612-0.0819702-0.8099976-0.2640076c-0.2278442-0.2008057-0.3925171-0.4634247-0.473999-0.7559967
		c-0.1113892-0.38591-0.1640015-0.7864075-0.1560059-1.1880035c-0.0076904-0.4004059,0.0386963-0.8000183,0.1380005-1.1880035
		c0.0731812-0.2915649,0.2344971-0.5534821,0.4619751-0.75c0.2396851-0.1851501,0.5375366-0.2787628,0.8400269-0.2640076
		c0.2929077-0.0117035,0.5802612,0.0819702,0.8099976,0.2640076c0.2317505,0.1960602,0.3990479,0.457428,0.4799805,0.75
		c0.1160889,0.385025,0.1707764,0.7859497,0.1619873,1.1880035L720.2940674,159.352005z M718.0380859,159.352005
		c-0.0053101,0.3118286,0.020813,0.6233978,0.0780029,0.9299927c0.0320435,0.2053375,0.1191406,0.3981628,0.2519531,0.5579987
		c0.1247559,0.1259613,0.296875,0.1934967,0.473999,0.1860046c0.1743774,0.0084839,0.3442383-0.0568542,0.4680176-0.1799927
		c0.1364746-0.1582336,0.2258301-0.351532,0.2579956-0.5579987c0.0613403-0.3081055,0.0894775-0.6219025,0.0839844-0.9360046
		c0.0059814-0.3101501-0.0222168-0.6200104-0.0839844-0.923996c-0.0321655-0.2064667-0.121521-0.399765-0.2579956-0.5579987
		c-0.1219482-0.1264954-0.2924805-0.1942902-0.4680176-0.1860046c-0.177124-0.0075073-0.3492432,0.0600281-0.473999,0.1860046
		c-0.1328125,0.1598358-0.2199097,0.3526611-0.2519531,0.5579987c-0.0574341,0.3045349-0.0836182,0.6141357-0.078064,0.923996
		H718.0380859z M722.2570801,158.8420105c0.2560425-0.0057831,0.5101929,0.0454559,0.7440186,0.1499939
		c0.203125,0.0921631,0.3743286,0.2425079,0.4920044,0.4320068c0.1253662,0.2077942,0.1878662,0.4474487,0.1799927,0.6900024
		c0.0074463,0.2706451-0.05896,0.538208-0.1920166,0.7740021c-0.1311035,0.218811-0.3257446,0.3925171-0.5579834,0.4980011
		c-0.2771606,0.1236572-0.5786743,0.183136-0.882019,0.173996c-0.2094727,0.0010223-0.4185791-0.0190735-0.6240234-0.0599976
		c-0.1739502-0.0321655-0.3418579-0.0908508-0.4979858-0.173996v-0.5820007
		c0.1636963,0.0918121,0.3393555,0.1604614,0.5219727,0.2039948c0.1940918,0.0502014,0.3935547,0.0763855,0.5939941,0.0780029
		c0.1782227,0.0046082,0.3555908-0.0259705,0.5219727-0.0899963c0.1398926-0.0572815,0.2590942-0.1555939,0.34198-0.2819977
		c0.0883789-0.1440887,0.1322021-0.3110809,0.1259766-0.4799957c0.0147095-0.2254486-0.0761719-0.4449463-0.2459717-0.5939941
		c-0.2208862-0.1585541-0.4910889-0.2330322-0.7620239-0.2100067c-0.1265869,0.0011292-0.2528687,0.0111542-0.3780518,0.0299988
		c-0.1359863,0.0200043-0.2460327,0.0399933-0.3300171,0.0599976l-0.2940063-0.173996l0.1619873-2.0700073h2.2020264v0.5639954
		h-1.6500244l-0.0960083,1.121994c0.0679932-0.0120087,0.1539917-0.0240021,0.2579956-0.0359955
		c0.1212769-0.0171661,0.2436523-0.0251923,0.3660889-0.0240021H722.2570801z M726.2550659,157.2160034L724.6590576,161.5
		h-0.6060181l1.5960083-4.2839966H726.2550659z M729.5420532,161.5l-0.4559937-1.2359924h-1.6560669L726.973999,161.5h-0.6719971
		l1.6259766-4.302002h0.6719971L730.2199707,161.5H729.5420532z M728.4740601,158.4940033
		c-0.0119629-0.0439911-0.0339355-0.1099854-0.065979-0.197998l-0.0839844-0.276001
		c-0.0279541-0.095993-0.0499268-0.173996-0.065979-0.2339935c-0.0200195,0.0800018-0.0440063,0.1679993-0.0720215,0.2640076
		c-0.0239868,0.0919952-0.0479736,0.1779938-0.0720215,0.2579956c-0.0239868,0.076004-0.0440063,0.1380005-0.0599976,0.1860046
		l-0.4320068,1.2059937h1.2839966L728.4740601,158.4940033z"/>
	<path style="fill:#5C5C5C;" d="M756.0490112,159.352005c0.0033569,0.312027-0.0247803,0.6236115-0.0839844,0.9299927
		c-0.0421753,0.2450867-0.1275024,0.4807281-0.2520142,0.6959991c-0.1068726,0.1830902-0.2626953,0.3327026-0.4500122,0.4320068
		c-0.2058716,0.1051178-0.4349365,0.1567078-0.6660156,0.1499939c-0.2929077,0.0116882-0.5802612-0.0819702-0.8099976-0.2640076
		c-0.2279053-0.2007599-0.3925781-0.4633942-0.473999-0.7559967c-0.1113892-0.38591-0.1640015-0.7864075-0.1560059-1.1880035
		c-0.0076904-0.4004059,0.0386963-0.8000183,0.1380005-1.1880035c0.0731812-0.2915649,0.2344971-0.5534821,0.4619751-0.75
		c0.2396851-0.1851654,0.5375366-0.2787781,0.8400269-0.2640076c0.2929077-0.0117035,0.5802612,0.0819702,0.8099976,0.2640076
		c0.2317505,0.1960602,0.3990479,0.457428,0.4799805,0.75C756.0031128,158.5490112,756.0578003,158.9499359,756.0490112,159.352005z
		 M753.7930298,159.352005c-0.0053711,0.3118286,0.020752,0.6234131,0.0779419,0.9299927
		c0.0321045,0.2053375,0.1191406,0.3981628,0.2520142,0.5579987c0.1247559,0.1259766,0.296875,0.193512,0.473999,0.1860046
		c0.1743774,0.0084839,0.3442383-0.0568542,0.4680176-0.1799927c0.1364746-0.1582336,0.2258301-0.3515472,0.2579956-0.5579987
		c0.0613403-0.3081055,0.0894775-0.6219025,0.0839844-0.9360046c0.0059814-0.3101501-0.0222168-0.6200104-0.0839844-0.923996
		c-0.0321655-0.2064514-0.121521-0.399765-0.2579956-0.5579987c-0.1219482-0.1264954-0.2924805-0.1942902-0.4680176-0.1860046
		c-0.177124-0.0075073-0.3492432,0.0600281-0.473999,0.1860046c-0.1328735,0.1598358-0.2199097,0.3526611-0.2520142,0.5579987
		C753.8135986,158.7325439,753.7874756,159.04216,753.7930298,159.352005z M759.5600586,161.5l-0.4559937-1.2359924h-1.6560059
		L756.9920654,161.5h-0.6719971l1.6259766-4.302002h0.6719971L760.2380371,161.5H759.5600586z M758.4920654,158.4940033
		c-0.0120239-0.0439911-0.0339966-0.1099854-0.065979-0.197998l-0.0839844-0.276001
		c-0.0279541-0.095993-0.0499268-0.173996-0.065979-0.2339935c-0.0200195,0.0800018-0.0440063,0.1679993-0.0720215,0.2640076
		c-0.0239868,0.0919952-0.0480347,0.1779938-0.0720215,0.2579956c-0.0239868,0.076004-0.0440063,0.1380005-0.0599976,0.1860046
		l-0.4320068,1.2059937h1.2839966L758.4920654,158.4940033z M763.4080811,159.352005
		c0.0033569,0.312027-0.0247803,0.6236115-0.0839844,0.9299927c-0.0421143,0.2451019-0.1274414,0.4807587-0.2520142,0.6959991
		c-0.1068726,0.1830902-0.2626953,0.3327026-0.4500122,0.4320068c-0.2058716,0.1051178-0.4349365,0.1567078-0.6660156,0.1499939
		c-0.2929077,0.0117035-0.5802612-0.0819702-0.8099976-0.2640076c-0.2279053-0.2007599-0.3925781-0.4633942-0.473999-0.7559967
		c-0.1113892-0.38591-0.1640015-0.7864075-0.1560059-1.1880035c-0.0076904-0.4004059,0.0386963-0.8000183,0.1380005-1.1880035
		c0.0731812-0.2915649,0.2344971-0.5534821,0.4619751-0.75c0.2396851-0.1851654,0.5375366-0.2787781,0.8400269-0.2640076
		c0.2929077-0.0117035,0.5802612,0.0819702,0.8099976,0.2640076c0.2317505,0.1960449,0.3990479,0.457428,0.4799805,0.75
		c0.1161499,0.3850098,0.1708374,0.7859497,0.1619873,1.1880035L763.4080811,159.352005z M761.1520996,159.352005
		c-0.0053101,0.3118286,0.020813,0.6233978,0.0780029,0.9299927c0.0321045,0.2053375,0.1192017,0.3981476,0.2520142,0.5579987
		c0.1247559,0.1259613,0.296875,0.1934967,0.473999,0.1860046c0.1743774,0.0084839,0.3442383-0.0568542,0.4680176-0.1799927
		c0.1364746-0.1582336,0.2258301-0.3515472,0.2579956-0.5579987c0.0612793-0.3081055,0.0894775-0.6219025,0.0839844-0.9360046
		c0.0059204-0.3101501-0.0222168-0.6200104-0.0839844-0.923996c-0.0321655-0.2064514-0.121521-0.399765-0.2579956-0.5579987
		c-0.1219482-0.1264954-0.2924805-0.1942902-0.4680176-0.1860046c-0.177124-0.0075073-0.3492432,0.0600281-0.473999,0.1860046
		c-0.1328125,0.1598511-0.2199097,0.3526611-0.2520142,0.5579987c-0.0574341,0.3045349-0.0836182,0.6141357-0.078125,0.923996
		H761.1520996z M765.3720703,158.8420105c0.2560425-0.0057678,0.5101929,0.0454712,0.7440186,0.1499939
		c0.203125,0.0921631,0.3743286,0.2425079,0.4919434,0.4320068c0.1253662,0.2077789,0.1879272,0.4474487,0.1799927,0.6900024
		c0.0074463,0.2706451-0.05896,0.538208-0.1920166,0.7740021c-0.1311035,0.218811-0.3257446,0.3925018-0.5579834,0.4980011
		c-0.2771606,0.1236572-0.5786743,0.183136-0.882019,0.173996c-0.2094727,0.0010223-0.4185791-0.0190887-0.6240234-0.0599976
		c-0.1739502-0.0321655-0.3418579-0.0908508-0.4979858-0.173996v-0.5820007
		c0.1636963,0.0918274,0.3393555,0.1604767,0.5219727,0.2039948c0.1940918,0.0502014,0.3935547,0.0764008,0.5939941,0.0780029
		c0.1782227,0.0046082,0.3555908-0.0259705,0.5219727-0.0899963c0.1398926-0.0572662,0.2590942-0.1555939,0.34198-0.2819977
		c0.0884399-0.1440582,0.1322632-0.3110657,0.1259766-0.4799957c0.0147095-0.2254486-0.0761719-0.4449463-0.2459717-0.5939941
		c-0.2208862-0.1585541-0.4910889-0.2330322-0.7620239-0.2100067c-0.1265259,0.0011292-0.2528687,0.0111542-0.3779907,0.0299988
		c-0.1360474,0.0200043-0.2460938,0.0399933-0.3300171,0.0599976l-0.2940063-0.173996l0.1619873-2.0700073h2.2020264v0.5639954
		h-1.6500244l-0.0960083,1.121994c0.0679932-0.0120087,0.1539917-0.0240021,0.2579956-0.0359955
		c0.1212769-0.0171814,0.2436523-0.0251923,0.3661499-0.0240021H765.3720703z"/>
	<path style="fill:#5C5C5C;" d="M793.0490112,159.352005c0.0033569,0.312027-0.0247803,0.6236115-0.0839844,0.9299927
		c-0.0421753,0.2450867-0.1275024,0.4807281-0.2520142,0.6959991c-0.1068726,0.1830902-0.2626953,0.3327026-0.4500122,0.4320068
		c-0.2058716,0.1051178-0.4349365,0.1567078-0.6660156,0.1499939c-0.2929077,0.0116882-0.5802612-0.0819702-0.8099976-0.2640076
		c-0.2279053-0.2007599-0.3925781-0.4633942-0.473999-0.7559967c-0.1113892-0.38591-0.1640015-0.7864075-0.1560059-1.1880035
		c-0.0076904-0.4004059,0.0386963-0.8000183,0.1380005-1.1880035c0.0731812-0.2915649,0.2344971-0.5534821,0.4619751-0.75
		c0.2396851-0.1851654,0.5375366-0.2787781,0.8400269-0.2640076c0.2929077-0.0117035,0.5802612,0.0819702,0.8099976,0.2640076
		c0.2317505,0.1960602,0.3990479,0.457428,0.4799805,0.75C793.0031128,158.5490112,793.0578003,158.9499359,793.0490112,159.352005z
		 M790.7930298,159.352005c-0.0053711,0.3118286,0.020752,0.6234131,0.0779419,0.9299927
		c0.0321045,0.2053375,0.1191406,0.3981628,0.2520142,0.5579987c0.1247559,0.1259766,0.296875,0.193512,0.473999,0.1860046
		c0.1743774,0.0084839,0.3442383-0.0568542,0.4680176-0.1799927c0.1364746-0.1582336,0.2258301-0.3515472,0.2579956-0.5579987
		c0.0613403-0.3081055,0.0894775-0.6219025,0.0839844-0.9360046c0.0059814-0.3101501-0.0222168-0.6200104-0.0839844-0.923996
		c-0.0321655-0.2064514-0.121521-0.399765-0.2579956-0.5579987c-0.1219482-0.1264954-0.2924805-0.1942902-0.4680176-0.1860046
		c-0.177124-0.0075073-0.3492432,0.0600281-0.473999,0.1860046c-0.1328735,0.1598358-0.2199097,0.3526611-0.2520142,0.5579987
		C790.8135986,158.7325439,790.7874756,159.04216,790.7930298,159.352005z M796.5600586,161.5l-0.4559937-1.2359924h-1.6560059
		L793.9920654,161.5h-0.6719971l1.6259766-4.302002h0.6719971L797.2380371,161.5H796.5600586z M795.4920654,158.4940033
		c-0.0120239-0.0439911-0.0339966-0.1099854-0.065979-0.197998l-0.0839844-0.276001
		c-0.0279541-0.095993-0.0499268-0.173996-0.065979-0.2339935c-0.0200195,0.0800018-0.0440063,0.1679993-0.0720215,0.2640076
		c-0.0239868,0.0919952-0.0480347,0.1779938-0.0720215,0.2579956c-0.0239868,0.076004-0.0440063,0.1380005-0.0599976,0.1860046
		l-0.4320068,1.2059937h1.2839966L795.4920654,158.4940033z M800.4080811,159.352005
		c0.0033569,0.312027-0.0247803,0.6236115-0.0839844,0.9299927c-0.0421143,0.2451019-0.1274414,0.4807587-0.2520142,0.6959991
		c-0.1068726,0.1830902-0.2626953,0.3327026-0.4500122,0.4320068c-0.2058716,0.1051178-0.4349365,0.1567078-0.6660156,0.1499939
		c-0.2929077,0.0117035-0.5802612-0.0819702-0.8099976-0.2640076c-0.2279053-0.2007599-0.3925781-0.4633942-0.473999-0.7559967
		c-0.1113892-0.38591-0.1640015-0.7864075-0.1560059-1.1880035c-0.0076904-0.4004059,0.0386963-0.8000183,0.1380005-1.1880035
		c0.0731812-0.2915649,0.2344971-0.5534821,0.4619751-0.75c0.2396851-0.1851654,0.5375366-0.2787781,0.8400269-0.2640076
		c0.2929077-0.0117035,0.5802612,0.0819702,0.8099976,0.2640076c0.2317505,0.1960449,0.3990479,0.457428,0.4799805,0.75
		c0.1161499,0.3850098,0.1708374,0.7859497,0.1619873,1.1880035L800.4080811,159.352005z M798.1520996,159.352005
		c-0.0053101,0.3118286,0.020813,0.6233978,0.0780029,0.9299927c0.0321045,0.2053375,0.1192017,0.3981476,0.2520142,0.5579987
		c0.1247559,0.1259613,0.296875,0.1934967,0.473999,0.1860046c0.1743774,0.0084839,0.3442383-0.0568542,0.4680176-0.1799927
		c0.1364746-0.1582336,0.2258301-0.3515472,0.2579956-0.5579987c0.0612793-0.3081055,0.0894775-0.6219025,0.0839844-0.9360046
		c0.0059204-0.3101501-0.0222168-0.6200104-0.0839844-0.923996c-0.0321655-0.2064514-0.121521-0.399765-0.2579956-0.5579987
		c-0.1219482-0.1264954-0.2924805-0.1942902-0.4680176-0.1860046c-0.177124-0.0075073-0.3492432,0.0600281-0.473999,0.1860046
		c-0.1328125,0.1598511-0.2199097,0.3526611-0.2520142,0.5579987c-0.0574341,0.3045349-0.0836182,0.6141357-0.078125,0.923996
		H798.1520996z M803.9981079,160.552002h-0.5939941V161.5h-0.617981v-0.947998h-1.986145v-0.5039978l1.973999-2.8500061h0.6300049
		v2.8139954h0.5939941L803.9981079,160.552002z M802.7861328,158.8480072v-0.276001
		c0.0039673-0.0879974,0.0079956-0.1719971,0.0120239-0.2519989c0.0040283-0.0839996,0.0059814-0.1600037,0.0059814-0.2279968
		c0.0039062-0.0720062,0.0078735-0.1360016,0.0120239-0.1920013h-0.0239868
		c-0.0343018,0.084671-0.0743408,0.1668701-0.1199951,0.2460022c-0.039978,0.0775604-0.0861816,0.1517944-0.1380005,0.2220001
		l-1.1339722,1.6439972h1.3859863L802.7861328,158.8480072z"/>
	<path style="fill:#5C5C5C;" d="M824.0490112,159.352005c0.0033569,0.312027-0.0247803,0.6236115-0.0839844,0.9299927
		c-0.0421753,0.2450867-0.1275024,0.4807281-0.2520142,0.6959991c-0.1068726,0.1830902-0.2626953,0.3327026-0.4500122,0.4320068
		c-0.2058716,0.1051178-0.4349365,0.1567078-0.6660156,0.1499939c-0.2929077,0.0116882-0.5802612-0.0819702-0.8099976-0.2640076
		c-0.2279053-0.2007599-0.3925781-0.4633942-0.473999-0.7559967c-0.1113892-0.38591-0.1640015-0.7864075-0.1560059-1.1880035
		c-0.0076904-0.4004059,0.0386963-0.8000183,0.1380005-1.1880035c0.0731812-0.2915649,0.2344971-0.5534821,0.4619751-0.75
		c0.2396851-0.1851654,0.5375366-0.2787781,0.8400269-0.2640076c0.2929077-0.0117035,0.5802612,0.0819702,0.8099976,0.2640076
		c0.2317505,0.1960602,0.3990479,0.457428,0.4799805,0.75C824.0031128,158.5490112,824.0578003,158.9499359,824.0490112,159.352005z
		 M821.7930298,159.352005c-0.0053711,0.3118286,0.020752,0.6234131,0.0779419,0.9299927
		c0.0321045,0.2053375,0.1191406,0.3981628,0.2520142,0.5579987c0.1247559,0.1259766,0.296875,0.193512,0.473999,0.1860046
		c0.1743774,0.0084839,0.3442383-0.0568542,0.4680176-0.1799927c0.1364746-0.1582336,0.2258301-0.3515472,0.2579956-0.5579987
		c0.0613403-0.3081055,0.0894775-0.6219025,0.0839844-0.9360046c0.0059814-0.3101501-0.0222168-0.6200104-0.0839844-0.923996
		c-0.0321655-0.2064514-0.121521-0.399765-0.2579956-0.5579987c-0.1219482-0.1264954-0.2924805-0.1942902-0.4680176-0.1860046
		c-0.177124-0.0075073-0.3492432,0.0600281-0.473999,0.1860046c-0.1328735,0.1598358-0.2199097,0.3526611-0.2520142,0.5579987
		C821.8135986,158.7325439,821.7874756,159.04216,821.7930298,159.352005z M827.5600586,161.5l-0.4559937-1.2359924h-1.6560059
		L824.9920654,161.5h-0.6719971l1.6259766-4.302002h0.6719971L828.2380371,161.5H827.5600586z M826.4920654,158.4940033
		c-0.0120239-0.0439911-0.0339966-0.1099854-0.065979-0.197998l-0.0839844-0.276001
		c-0.0279541-0.095993-0.0499268-0.173996-0.065979-0.2339935c-0.0200195,0.0800018-0.0440063,0.1679993-0.0720215,0.2640076
		c-0.0239868,0.0919952-0.0480347,0.1779938-0.0720215,0.2579956c-0.0239868,0.076004-0.0440063,0.1380005-0.0599976,0.1860046
		l-0.4320068,1.2059937h1.2839966L826.4920654,158.4940033z M831.4080811,159.352005
		c0.0033569,0.312027-0.0247803,0.6236115-0.0839844,0.9299927c-0.0421143,0.2451019-0.1274414,0.4807587-0.2520142,0.6959991
		c-0.1068726,0.1830902-0.2626953,0.3327026-0.4500122,0.4320068c-0.2058716,0.1051178-0.4349365,0.1567078-0.6660156,0.1499939
		c-0.2929077,0.0117035-0.5802612-0.0819702-0.8099976-0.2640076c-0.2279053-0.2007599-0.3925781-0.4633942-0.473999-0.7559967
		c-0.1113892-0.38591-0.1640015-0.7864075-0.1560059-1.1880035c-0.0076904-0.4004059,0.0386963-0.8000183,0.1380005-1.1880035
		c0.0731812-0.2915649,0.2344971-0.5534821,0.4619751-0.75c0.2396851-0.1851654,0.5375366-0.2787781,0.8400269-0.2640076
		c0.2929077-0.0117035,0.5802612,0.0819702,0.8099976,0.2640076c0.2317505,0.1960449,0.3990479,0.457428,0.4799805,0.75
		c0.1161499,0.3850098,0.1708374,0.7859497,0.1619873,1.1880035L831.4080811,159.352005z M829.1520996,159.352005
		c-0.0053101,0.3118286,0.020813,0.6233978,0.0780029,0.9299927c0.0321045,0.2053375,0.1192017,0.3981476,0.2520142,0.5579987
		c0.1247559,0.1259613,0.296875,0.1934967,0.473999,0.1860046c0.1743774,0.0084839,0.3442383-0.0568542,0.4680176-0.1799927
		c0.1364746-0.1582336,0.2258301-0.3515472,0.2579956-0.5579987c0.0612793-0.3081055,0.0894775-0.6219025,0.0839844-0.9360046
		c0.0059204-0.3101501-0.0222168-0.6200104-0.0839844-0.923996c-0.0321655-0.2064514-0.121521-0.399765-0.2579956-0.5579987
		c-0.1219482-0.1264954-0.2924805-0.1942902-0.4680176-0.1860046c-0.177124-0.0075073-0.3492432,0.0600281-0.473999,0.1860046
		c-0.1328125,0.1598511-0.2199097,0.3526611-0.2520142,0.5579987c-0.0574341,0.3045349-0.0836182,0.6141357-0.078125,0.923996
		H829.1520996z M834.6680908,158.2060089c0.0039673,0.1748047-0.0352173,0.3479004-0.1140137,0.5039978
		c-0.0717773,0.1397095-0.1794434,0.2577515-0.3120117,0.3419952c-0.1434937,0.091095-0.3019409,0.1560822-0.4680176,0.1920013
		v0.0240021c0.2860718,0.0145569,0.5579224,0.1292572,0.7680054,0.3240051
		c0.1763306,0.1828766,0.2695923,0.4302368,0.2579956,0.6840057c0.0036621,0.2344818-0.0587158,0.465271-0.1799927,0.6660004
		c-0.1307373,0.2045898-0.3214111,0.3638306-0.5460205,0.4559937c-0.2995605,0.1181488-0.6202393,0.1732941-0.9420166,0.1620026
		c-0.2131958,0.0012817-0.4260864-0.0167999-0.6359863-0.0540009c-0.1931152-0.03508-0.3807373-0.0956116-0.5579834-0.1799927
		v-0.576004c0.1828003,0.0930176,0.3762207,0.1635437,0.5759888,0.2100067
		c0.1946411,0.046402,0.3939209,0.0705566,0.5939941,0.0720062c0.2776489,0.0245361,0.5552979-0.0475159,0.7860107-0.2039948
		c0.1635132-0.147995,0.2516479-0.3617706,0.2399902-0.5820007c0.0063477-0.1409302-0.0383911-0.2794037-0.1259766-0.3899994
		c-0.1008911-0.1143951-0.2352295-0.1941681-0.3839722-0.2279968c-0.2091675-0.0567627-0.425354-0.0830383-0.6420288-0.0780029
		h-0.3900146v-0.5220032h0.3959961c0.2018433,0.0067749,0.4031982-0.0237274,0.5939941-0.0899963
		c0.1364136-0.0515289,0.2537231-0.1436768,0.3360596-0.2640076c0.0727539-0.1147003,0.1102905-0.2481995,0.1079712-0.3840027
		c0.0096436-0.1700134-0.0615234-0.3345947-0.1920166-0.4440002c-0.1543579-0.1178131-0.3462524-0.1753998-0.539978-0.1620026
		c-0.2545776-0.0031891-0.5060425,0.0565796-0.7319946,0.173996c-0.1010742,0.0526276-0.1992188,0.1107178-0.2940063,0.173996
		l-0.3120117-0.4380035c0.1138306-0.0835724,0.2341919-0.1578064,0.3599854-0.2220001
		c0.1429443-0.0704193,0.2941284-0.122818,0.4500122-0.1560059c0.1790161-0.0412292,0.3623047-0.0613708,0.5460205-0.0599976
		c0.3603516-0.0258789,0.7180786,0.0784454,1.0079956,0.2940063c0.2280884,0.1835175,0.3568726,0.4633942,0.3479004,0.7559967
		H834.6680908z"/>
	<path style="fill:#5C5C5C;" d="M852.0490112,159.352005c0.0033569,0.312027-0.0247803,0.6236115-0.0839844,0.9299927
		c-0.0421753,0.2450867-0.1275024,0.4807281-0.2520142,0.6959991c-0.1068726,0.1830902-0.2626953,0.3327026-0.4500122,0.4320068
		c-0.2058716,0.1051178-0.4349365,0.1567078-0.6660156,0.1499939c-0.2929077,0.0116882-0.5802612-0.0819702-0.8099976-0.2640076
		c-0.2279053-0.2007599-0.3925781-0.4633942-0.473999-0.7559967c-0.1113892-0.38591-0.1640015-0.7864075-0.1560059-1.1880035
		c-0.0076904-0.4004059,0.0386963-0.8000183,0.1380005-1.1880035c0.0731812-0.2915649,0.2344971-0.5534821,0.4619751-0.75
		c0.2396851-0.1851654,0.5375366-0.2787781,0.8400269-0.2640076c0.2929077-0.0117035,0.5802612,0.0819702,0.8099976,0.2640076
		c0.2317505,0.1960602,0.3990479,0.457428,0.4799805,0.75C852.0031128,158.5490112,852.0578003,158.9499359,852.0490112,159.352005z
		 M849.7930298,159.352005c-0.0053711,0.3118286,0.020752,0.6234131,0.0779419,0.9299927
		c0.0321045,0.2053375,0.1191406,0.3981628,0.2520142,0.5579987c0.1247559,0.1259766,0.296875,0.193512,0.473999,0.1860046
		c0.1743774,0.0084839,0.3442383-0.0568542,0.4680176-0.1799927c0.1364746-0.1582336,0.2258301-0.3515472,0.2579956-0.5579987
		c0.0613403-0.3081055,0.0894775-0.6219025,0.0839844-0.9360046c0.0059814-0.3101501-0.0222168-0.6200104-0.0839844-0.923996
		c-0.0321655-0.2064514-0.121521-0.399765-0.2579956-0.5579987c-0.1219482-0.1264954-0.2924805-0.1942902-0.4680176-0.1860046
		c-0.177124-0.0075073-0.3492432,0.0600281-0.473999,0.1860046c-0.1328735,0.1598358-0.2199097,0.3526611-0.2520142,0.5579987
		C849.8135986,158.7325439,849.7874756,159.04216,849.7930298,159.352005z M855.5600586,161.5l-0.4559937-1.2359924h-1.6560059
		L852.9920654,161.5h-0.6719971l1.6259766-4.302002h0.6719971L856.2380371,161.5H855.5600586z M854.4920654,158.4940033
		c-0.0120239-0.0439911-0.0339966-0.1099854-0.065979-0.197998l-0.0839844-0.276001
		c-0.0279541-0.095993-0.0499268-0.173996-0.065979-0.2339935c-0.0200195,0.0800018-0.0440063,0.1679993-0.0720215,0.2640076
		c-0.0239868,0.0919952-0.0480347,0.1779938-0.0720215,0.2579956c-0.0239868,0.076004-0.0440063,0.1380005-0.0599976,0.1860046
		l-0.4320068,1.2059937h1.2839966L854.4920654,158.4940033z M859.4080811,159.352005
		c0.0033569,0.312027-0.0247803,0.6236115-0.0839844,0.9299927c-0.0421143,0.2451019-0.1274414,0.4807587-0.2520142,0.6959991
		c-0.1068726,0.1830902-0.2626953,0.3327026-0.4500122,0.4320068c-0.2058716,0.1051178-0.4349365,0.1567078-0.6660156,0.1499939
		c-0.2929077,0.0117035-0.5802612-0.0819702-0.8099976-0.2640076c-0.2279053-0.2007599-0.3925781-0.4633942-0.473999-0.7559967
		c-0.1113892-0.38591-0.1640015-0.7864075-0.1560059-1.1880035c-0.0076904-0.4004059,0.0386963-0.8000183,0.1380005-1.1880035
		c0.0731812-0.2915649,0.2344971-0.5534821,0.4619751-0.75c0.2396851-0.1851654,0.5375366-0.2787781,0.8400269-0.2640076
		c0.2929077-0.0117035,0.5802612,0.0819702,0.8099976,0.2640076c0.2317505,0.1960449,0.3990479,0.457428,0.4799805,0.75
		c0.1161499,0.3850098,0.1708374,0.7859497,0.1619873,1.1880035L859.4080811,159.352005z M857.1520996,159.352005
		c-0.0053101,0.3118286,0.020813,0.6233978,0.0780029,0.9299927c0.0321045,0.2053375,0.1192017,0.3981476,0.2520142,0.5579987
		c0.1247559,0.1259613,0.296875,0.1934967,0.473999,0.1860046c0.1743774,0.0084839,0.3442383-0.0568542,0.4680176-0.1799927
		c0.1364746-0.1582336,0.2258301-0.3515472,0.2579956-0.5579987c0.0612793-0.3081055,0.0894775-0.6219025,0.0839844-0.9360046
		c0.0059204-0.3101501-0.0222168-0.6200104-0.0839844-0.923996c-0.0321655-0.2064514-0.121521-0.399765-0.2579956-0.5579987
		c-0.1219482-0.1264954-0.2924805-0.1942902-0.4680176-0.1860046c-0.177124-0.0075073-0.3492432,0.0600281-0.473999,0.1860046
		c-0.1328125,0.1598511-0.2199097,0.3526611-0.2520142,0.5579987c-0.0574341,0.3045349-0.0836182,0.6141357-0.078125,0.923996
		H857.1520996z M862.8361206,161.5h-2.8800049v-0.4920044l1.1040039-1.121994
		c0.2160034-0.2200012,0.3959351-0.4100037,0.539978-0.5700073c0.1282349-0.140976,0.2371826-0.2983551,0.3239746-0.4680023
		c0.0723877-0.1538544,0.1092529-0.321991,0.1079712-0.4920044c0.0143433-0.1846924-0.0563965-0.3658447-0.1920166-0.4920044
		c-0.1393433-0.1159668-0.3168945-0.1758575-0.4979858-0.1679993c-0.1824341-0.0029907-0.3630981,0.0360107-0.5280151,0.1139984
		c-0.1733398,0.0828094-0.3364258,0.1855011-0.4860229,0.3059998l-0.34198-0.4259949
		c0.116272-0.1001892,0.2406616-0.190506,0.3719482-0.2700043c0.1414795-0.0823364,0.2926636-0.1468353,0.4500122-0.1920013
		c0.1797485-0.0495758,0.3655396-0.0738068,0.552002-0.0720062c0.2419434-0.0063629,0.4821167,0.0429077,0.7020264,0.1439972
		c0.1865234,0.0835876,0.3433838,0.2216339,0.4500122,0.3959961c0.1108398,0.1823578,0.1670532,0.3926697,0.1619873,0.6060028
		c0.0010986,0.1652069-0.0252686,0.3294373-0.0780029,0.4859924c-0.0559082,0.1556091-0.1326294,0.302948-0.2280273,0.4380035
		c-0.1054077,0.1557312-0.223877,0.3022461-0.3540039,0.4380035c-0.1399536,0.147995-0.2939453,0.3040009-0.4619751,0.4680023
		l-0.7979736,0.7740021v0.0299988h2.0819702L862.8361206,161.5z"/>
	<path style="fill:#5C5C5C;" d="M927.0490112,209.352005c0.0033569,0.312027-0.0247803,0.6236115-0.0839844,0.9299927
		c-0.0421753,0.2450867-0.1275024,0.4807281-0.2520142,0.6959991c-0.1068726,0.1830902-0.2626953,0.3327026-0.4500122,0.4320068
		c-0.2058716,0.1051178-0.4349365,0.1567078-0.6660156,0.1499939c-0.2929077,0.0116882-0.5802612-0.0819702-0.8099976-0.2640076
		c-0.2279053-0.2007599-0.3925781-0.4633942-0.473999-0.7559967c-0.1113892-0.38591-0.1640015-0.7864075-0.1560059-1.1880035
		c-0.0076904-0.4004059,0.0386963-0.8000183,0.1380005-1.1880035c0.0731812-0.2915649,0.2344971-0.5534821,0.4619751-0.75
		c0.2396851-0.1851654,0.5375366-0.2787781,0.8400269-0.2640076c0.2929077-0.0117035,0.5802612,0.0819702,0.8099976,0.2640076
		c0.2317505,0.1960602,0.3990479,0.457428,0.4799805,0.75C927.0031128,208.5490112,927.0578003,208.9499359,927.0490112,209.352005z
		 M924.7930298,209.352005c-0.0053711,0.3118286,0.020752,0.6234131,0.0779419,0.9299927
		c0.0321045,0.2053375,0.1191406,0.3981628,0.2520142,0.5579987c0.1247559,0.1259766,0.296875,0.193512,0.473999,0.1860046
		c0.1743774,0.0084839,0.3442383-0.0568542,0.4680176-0.1799927c0.1364746-0.1582336,0.2258301-0.3515472,0.2579956-0.5579987
		c0.0613403-0.3081055,0.0894775-0.6219025,0.0839844-0.9360046c0.0059814-0.3101501-0.0222168-0.6200104-0.0839844-0.923996
		c-0.0321655-0.2064514-0.121521-0.399765-0.2579956-0.5579987c-0.1219482-0.1264954-0.2924805-0.1942902-0.4680176-0.1860046
		c-0.177124-0.0075073-0.3492432,0.0600281-0.473999,0.1860046c-0.1328735,0.1598358-0.2199097,0.3526611-0.2520142,0.5579987
		C924.8135986,208.7325439,924.7874756,209.04216,924.7930298,209.352005z M930.5600586,211.5l-0.4559937-1.2359924h-1.6560059
		L927.9920654,211.5h-0.6719971l1.6259766-4.302002h0.6719971L931.2380371,211.5H930.5600586z M929.4920654,208.4940033
		c-0.0120239-0.0439911-0.0339966-0.1099854-0.065979-0.197998l-0.0839844-0.276001
		c-0.0279541-0.095993-0.0499268-0.173996-0.065979-0.2339935c-0.0200195,0.0800018-0.0440063,0.1680145-0.0720215,0.2640076
		c-0.0239868,0.0919952-0.0480347,0.178009-0.0720215,0.2579956c-0.0239868,0.076004-0.0440063,0.1379852-0.0599976,0.1860046
		l-0.4320068,1.2059937h1.2839966L929.4920654,208.4940033z M934.4080811,209.352005
		c0.0033569,0.312027-0.0247803,0.6236115-0.0839844,0.9299927c-0.0421143,0.2451019-0.1274414,0.4807587-0.2520142,0.6959991
		c-0.1068726,0.1830902-0.2626953,0.3327026-0.4500122,0.4320068c-0.2058716,0.1051178-0.4349365,0.1567078-0.6660156,0.1499939
		c-0.2929077,0.0117035-0.5802612-0.0819702-0.8099976-0.2640076c-0.2279053-0.2007599-0.3925781-0.4633942-0.473999-0.7559967
		c-0.1113892-0.38591-0.1640015-0.7864075-0.1560059-1.1880035c-0.0076904-0.4004059,0.0386963-0.8000183,0.1380005-1.1880035
		c0.0731812-0.2915649,0.2344971-0.5534821,0.4619751-0.75c0.2396851-0.1851654,0.5375366-0.2787781,0.8400269-0.2640076
		c0.2929077-0.0117035,0.5802612,0.0819702,0.8099976,0.2640076c0.2317505,0.1960449,0.3990479,0.457428,0.4799805,0.75
		c0.1161499,0.3850098,0.1708374,0.7859497,0.1619873,1.1880035L934.4080811,209.352005z M932.1520996,209.352005
		c-0.0053101,0.3118286,0.020813,0.6233978,0.0780029,0.9299927c0.0321045,0.2053375,0.1192017,0.3981476,0.2520142,0.5579987
		c0.1247559,0.1259613,0.296875,0.1934967,0.473999,0.1860046c0.1743774,0.0084839,0.3442383-0.0568542,0.4680176-0.1799927
		c0.1364746-0.1582336,0.2258301-0.3515472,0.2579956-0.5579987c0.0612793-0.3081055,0.0894775-0.6219025,0.0839844-0.9360046
		c0.0059204-0.3101501-0.0222168-0.6200104-0.0839844-0.923996c-0.0321655-0.2064514-0.121521-0.399765-0.2579956-0.5579987
		c-0.1219482-0.1264954-0.2924805-0.1942902-0.4680176-0.1860046c-0.177124-0.0075073-0.3492432,0.0600281-0.473999,0.1860046
		c-0.1328125,0.1598511-0.2199097,0.3526611-0.2520142,0.5579987c-0.0574341,0.3045349-0.0836182,0.6141357-0.078125,0.923996
		H932.1520996z M936.9121094,211.5h-0.6300049v-3.1199951c0.0040283-0.0880127,0.0079956-0.1719971,0.0120239-0.2519989
		c0.0039673-0.0839996,0.0079346-0.1640167,0.0120239-0.2400055c-0.052002,0.052002-0.105957,0.1019897-0.1619873,0.1499939
		c-0.0559692,0.0479889-0.1199951,0.1039886-0.1920166,0.1679993l-0.4680176,0.378006l-0.3239746-0.4080048l1.223999-0.9600067
		h0.5280151L936.9121094,211.5z"/>
	<path style="display:none;fill:#5C5C5C;" d="M459.4920044,205.5v-4.2839966h3.2640076V205.5h-0.6419983v-3.7259979h-1.973999V205.5
		H459.4920044z M466.3160095,205.5h-2.4119873v-4.2839966h2.4119873v0.552002h-1.7640076v1.223999h1.6560059v0.5460052h-1.6560059
		v1.404007h1.7640076V205.5z M468.4440002,201.2160034c0.4359131-0.0375519,0.870697,0.0839233,1.223999,0.3419952
		c0.263092,0.2403259,0.4040833,0.5862427,0.3840027,0.9420013c0.0007019,0.1759644-0.0297546,0.3506622-0.0899963,0.5160065
		c-0.0584106,0.1678162-0.1549377,0.3197937-0.2820129,0.4440002c-0.1514587,0.1394501-0.3317261,0.2439117-0.5280151,0.3059998
		c-0.258606,0.0780487-0.5279541,0.114502-0.7980042,0.1080017h-0.4620056V205.5h-0.6480103v-4.2839966H468.4440002z
		 M468.3959961,201.7620087h-0.5039978v1.5659943h0.3900146c0.2067566,0.0049896,0.4130859-0.0213165,0.6119995-0.0780029
		c0.1468811-0.0437469,0.2754211-0.1343536,0.3659973-0.2579956c0.089447-0.1391907,0.1334534-0.3027191,0.1260071-0.4680023
		c0.0166931-0.2176056-0.0726929-0.4298859-0.2399902-0.5700073c-0.221283-0.1465607-0.4855042-0.2142029-0.75-0.1920013
		L468.3959961,201.7620087z M473.3299866,205.5000153h-2.4119873v-4.2839966h2.4119873v0.552002h-1.7640076v1.223999h1.6560059
		v0.5460052h-1.6560059v1.404007h1.7640076V205.5000153z M477.4919739,205.5000153h-0.7619934l-1.8240051-2.1719971V205.5
		h-0.6480103v-4.2839966h0.6480103v2.076004l1.7879944-2.076004h0.7139893l-1.769989,2.076004L477.4919739,205.5000153z
		 M479.2599792,201.2160187c0.4359131-0.0375519,0.870697,0.0839233,1.223999,0.3419952
		c0.2630615,0.2403259,0.4040833,0.5862427,0.3840027,0.9420013c0.0007019,0.1759644-0.0297546,0.3506622-0.0899963,0.5160065
		c-0.0584412,0.1678009-0.1549683,0.3197784-0.2820129,0.4440002c-0.1514587,0.1394653-0.3317261,0.243927-0.5280151,0.3059998
		c-0.258606,0.078064-0.5279541,0.1145172-0.7980042,0.1080017h-0.4620056V205.5h-0.6480103v-4.2839966L479.2599792,201.2160187z
		 M479.2119751,201.7620239h-0.5039978v1.5659943h0.3900146c0.2067566,0.0049896,0.4130859-0.0213013,0.6119995-0.0780029
		c0.1468811-0.0437469,0.2754211-0.1343536,0.3659973-0.2579956c0.089447-0.1391907,0.1334839-0.3027191,0.1260071-0.4680023
		c0.0166931-0.2176056-0.0726624-0.4298859-0.2399902-0.5700073c-0.221283-0.1465607-0.4855042-0.2142029-0.75-0.1920013
		L479.2119751,201.7620239z M484.1459656,205.5000305h-2.4119873v-4.2839966h2.4119873v0.552002h-1.7640076v1.223999h1.6560059
		v0.5460052h-1.6560059v1.404007h1.7640076V205.5000305z M486.9039612,201.714035
		c-0.1959839-0.0032654-0.3903503,0.035614-0.5700073,0.1139984c-0.1678467,0.0718689-0.3160095,0.1829834-0.4320068,0.3240051
		c-0.1219788,0.1555023-0.2135925,0.3325806-0.269989,0.5220032c-0.0627441,0.2245331-0.0930481,0.4568939-0.0899963,0.6900024
		c-0.0065308,0.2989044,0.0443726,0.5962982,0.1499939,0.8760071c0.088562,0.2297363,0.2456665,0.426651,0.4500122,0.5639954
		c0.2268677,0.1393585,0.4899597,0.2082672,0.756012,0.197998c0.177124,0.0006256,0.3539124-0.0154419,0.5280151-0.0480042
		c0.176239-0.0371094,0.3504639-0.0831757,0.5220032-0.1380005v0.5579987
		c-0.1667786,0.0636749-0.3396912,0.1099243-0.5159912,0.1380005c-0.202179,0.0341339-0.4069824,0.0502014-0.6119995,0.0480042
		c-0.3820801,0.0137787-0.760376-0.0797577-1.0920105-0.2700043c-0.2903442-0.1827087-0.5167542-0.4510651-0.6480103-0.7680054
		c-0.1510925-0.3690643-0.2246399-0.7652893-0.2160034-1.1640015c-0.003479-0.3011322,0.0410767-0.6008911,0.1319885-0.8880005
		c0.0840454-0.2579803,0.218689-0.4966278,0.3959961-0.7019958c0.1740723-0.1974792,0.3918457-0.3515625,0.6359863-0.4499969
		c0.2801819-0.1125641,0.5801086-0.1676483,0.8819885-0.1620026c0.2140503-0.0002289,0.4273987,0.0239258,0.6359863,0.0720062
		c0.1954041,0.0396881,0.3849487,0.1042175,0.5639954,0.1920013l-0.2399902,0.5399933
		c-0.1477661-0.0668793-0.3001709-0.1230316-0.4559937-0.1679993c-0.1648254-0.0527496-0.3369446-0.079071-0.5100098-0.0780029
		H486.9039612z M490.3109741,205.5000305h-0.6480103v-3.7259979h-1.2839966v-0.5579987h3.2160034v0.5579987h-1.2839966V205.5000305z
		 M495.9139709,203.3520355c0.0036011,0.3066101-0.0388794,0.6120148-0.1260071,0.9060059
		c-0.0733643,0.2557068-0.2001648,0.4929352-0.3720093,0.6959991c-0.1679688,0.1988831-0.3822632,0.3534088-0.6239929,0.4499969
		c-0.2767334,0.1093292-0.5725098,0.1623688-0.8699951,0.1560059c-0.3033447,0.0066223-0.605072-0.0463867-0.8880005-0.1560059
		c-0.2390137-0.1015015-0.45224-0.2552643-0.6239929-0.4499969c-0.169342-0.2061005-0.2939758-0.4451599-0.3659973-0.7019958
		c-0.0830994-0.2947083-0.1235046-0.599823-0.1199951-0.9060059c-0.0086975-0.3948212,0.0648499-0.7871399,0.2160034-1.1519928
		c0.1354065-0.3180237,0.3659668-0.5863037,0.6600037-0.7680054c0.3430481-0.1950226,0.7336426-0.2905884,1.1279907-0.276001
		c0.3847961-0.0143433,0.7657166,0.0814056,1.0979919,0.276001c0.2964478,0.1805115,0.5292664,0.4489746,0.6659851,0.7680054
		c0.1555176,0.3658142,0.2312012,0.7606049,0.2219849,1.1580048L495.9139709,203.3520355z M492.6079712,203.3520355
		c-0.0068054,0.3018341,0.039917,0.602478,0.1380005,0.8880005c0.0814514,0.2301788,0.2324219,0.4293671,0.4320068,0.5700073
		c0.2224121,0.1393585,0.48172,0.208374,0.743988,0.197998c0.2623901,0.0114899,0.5220032-0.0576019,0.743988-0.197998
		c0.1967163-0.1422119,0.3453369-0.3410645,0.4259949-0.5700073c0.098053-0.2855377,0.1447754-0.5861816,0.1380005-0.8880005
		c0.0249634-0.4247589-0.084198-0.8466339-0.3120117-1.2059937c-0.2331238-0.3060303-0.60672-0.4713287-0.9899902-0.4380035
		c-0.2642212-0.0108795-0.5255737,0.0581207-0.75,0.197998c-0.2001953,0.1373901-0.3515015,0.3349152-0.4320068,0.5639954
		c-0.0984192,0.283371-0.1451416,0.5821075-0.1379395,0.8820038H492.6079712z M500.0789795,205.5000305h-0.7619934
		l-1.8240051-2.1719971V205.5h-0.6480103v-4.2839966h0.6480103v2.076004l1.7879944-2.076004h0.7139893l-1.769989,2.076004
		L500.0789795,205.5000305z"/>
	<path style="display:none;fill:#5C5C5C;" d="M502.6839905,121.2160034c0.3071899-0.006691,0.6138916,0.0276108,0.9119873,0.1019974
		c0.2185364,0.0495834,0.4146423,0.1697769,0.5580139,0.3420029c0.135437,0.1789246,0.2034302,0.3998871,0.1919861,0.6240005
		c0.0027161,0.1547241-0.0279846,0.3082123-0.0899963,0.4499969c-0.0600281,0.1280518-0.1507263,0.2393341-0.2640076,0.3239975
		c-0.1243896,0.0890656-0.2684937,0.1467056-0.4200134,0.1679993v0.0299988
		c0.1619568,0.0245667,0.3183289,0.0773697,0.4620056,0.1559982c0.1364746,0.0724411,0.2490234,0.1828995,0.3240051,0.3180008
		c0.0866394,0.1685257,0.1279907,0.3566742,0.1199951,0.5459976c0.0069275,0.2357178-0.0579529,0.4679794-0.1860046,0.6660004
		c-0.1287537,0.1870422-0.3105469,0.3312378-0.5220032,0.4140015c-0.2554932,0.1018677-0.5290222,0.1508484-0.8039856,0.1439972
		h-1.5359802v-4.2839966L502.6839905,121.2160034z M502.7919922,123.0040054
		c0.2416687,0.0250854,0.4847412-0.0319901,0.6900024-0.1620026c0.1340637-0.1221924,0.2048035-0.299057,0.1919861-0.4800034
		c0.0159607-0.1844406-0.0718994-0.3624649-0.2279968-0.461998c-0.2260742-0.1077576-0.4761658-0.1552963-0.7260132-0.1380005
		h-0.6419983v1.2419968L502.7919922,123.0040054z M502.0780029,123.5320053v1.4280014h0.7860107
		c0.2592163,0.0276413,0.5191345-0.0453949,0.7260132-0.2040024c0.1393127-0.1443176,0.2131042-0.3396149,0.20401-0.5400009
		c0.0025635-0.1258698-0.0285034-0.250145-0.0899963-0.3600006c-0.0711365-0.1130066-0.1792908-0.1978302-0.3059998-0.2399979
		c-0.1852112-0.0631256-0.3804626-0.0915985-0.5759888-0.0839996H502.0780029z M508.0379944,125.5000076l-0.4559937-1.2360001
		h-1.6560059l-0.4559937,1.2360001h-0.6719971l1.6260071-4.302002h0.6719971l1.6199951,4.302002H508.0379944z
		 M506.9700012,122.4940109c-0.0119934-0.0439987-0.0339966-0.1100006-0.0660095-0.197998l-0.0840149-0.276001
		c-0.0279846-0.0960007-0.0499878-0.1740036-0.0660095-0.2340012c-0.019989,0.0799942-0.0440063,0.1679993-0.071991,0.2639999
		c-0.0240173,0.0919952-0.0480347,0.1779938-0.071991,0.2580032c-0.0240173,0.0759964-0.0439758,0.1380005-0.0599976,0.185997
		l-0.4320068,1.2060013h1.2839966L506.9700012,122.4940109z M510.493988,121.216011
		c0.4359131-0.0375443,0.870697,0.0839386,1.223999,0.3420029c0.2630615,0.2403336,0.4040833,0.5862503,0.3840027,0.9420013
		c0.0006714,0.1759644-0.0297852,0.3506622-0.0900269,0.5159988c-0.0584106,0.1678162-0.1549377,0.3198013-0.2820129,0.4440002
		c-0.1514282,0.1394806-0.3316956,0.2439499-0.5280151,0.3059998c-0.258606,0.078064-0.5279541,0.1145172-0.7980042,0.1080017
		h-0.4620056V125.5h-0.6480103v-4.2839966L510.493988,121.216011z M510.4459839,121.7620087h-0.5039978v1.5660019h0.3900146
		c0.2067566,0.0049896,0.4130859-0.0213089,0.6119995-0.0780029c0.1468811-0.0437546,0.2754211-0.1343613,0.3659973-0.2580032
		c0.089447-0.1391907,0.1334839-0.3027191,0.1260071-0.4680023c0.0166931-0.217598-0.0726929-0.4298706-0.2399902-0.5699997
		c-0.221283-0.1465759-0.4855042-0.2142181-0.75-0.1920013L510.4459839,121.7620087z M515.6339722,121.216011v3.7200012h0.552002
		v1.7279968h-0.6240234V125.5h-2.867981v1.1640015h-0.617981v-1.7279968h0.3300171
		c0.132019-0.2399979,0.2600098-0.5039978,0.3839722-0.7919998c0.12677-0.2997131,0.2369385-0.6061783,0.3300171-0.9179993
		c0.0960083-0.3239975,0.1759644-0.654007,0.2399902-0.9899979c0.0675659-0.3369522,0.1156006-0.6775131,0.1439819-1.0199966
		H515.6339722z M514.0499878,121.780014c-0.0241089,0.2542648-0.064209,0.5067596-0.1199951,0.7559967
		c-0.0600586,0.2719955-0.1340332,0.552002-0.2219849,0.8399963c-0.0839844,0.2879944-0.1799927,0.5680008-0.2880249,0.8399963
		c-0.0942993,0.2468948-0.2045288,0.4873962-0.3300171,0.7200012h1.9019775v-3.1560059h-0.9420166L514.0499878,121.780014z
		 M519.2990112,125.5000153h-2.4119873v-4.2839966h2.4119873v0.552002h-1.7639771v1.223999h1.6560059v0.5459976h-1.6560059
		v1.4039993h1.7639771V125.5000153z M523.4609985,125.5000153h-0.7620239L520.875,123.3280182V125.5h-0.6480103v-4.2839966H520.875
		v2.0759964l1.7880249-2.0759964h0.7139893l-1.7700195,2.0759964L523.4609985,125.5000153z M525.742981,121.7140121
		c-0.1959839-0.0032578-0.3903809,0.035614-0.5700073,0.1139984c-0.1678467,0.0718765-0.315979,0.182991-0.4319458,0.3239975
		c-0.1220093,0.1554794-0.213623,0.3325729-0.2700195,0.5220032c-0.0627441,0.2245331-0.0930786,0.4568863-0.0900269,0.6900024
		c-0.0065308,0.298912,0.0443726,0.5962982,0.1500244,0.8759995c0.088562,0.2297363,0.2456665,0.4266586,0.4500122,0.564003
		c0.2268677,0.1393585,0.4899292,0.2082596,0.7559814,0.197998c0.177124,0.0006332,0.3538818-0.0154343,0.5280151-0.0479965
		c0.1762085-0.037117,0.3504639-0.0831757,0.5219727-0.1380005v0.5579987
		c-0.166748,0.0636749-0.3397217,0.1099243-0.5159912,0.1380005c-0.2021484,0.0341263-0.4069824,0.0501862-0.6119995,0.0479965
		c-0.3820801,0.0137787-0.760376-0.0797577-1.09198-0.2699966c-0.2903442-0.1826935-0.5167847-0.4510498-0.6480103-0.7679977
		c-0.151123-0.369072-0.2246094-0.7652893-0.2160034-1.1640015c-0.003479-0.3011398,0.0410767-0.6008987,0.132019-0.8880005
		c0.0840454-0.2579803,0.218689-0.4966278,0.3959961-0.7020035c0.1740723-0.1974792,0.3918457-0.3515701,0.6359863-0.4499969
		c0.2801514-0.1125717,0.5801392-0.1676712,0.882019-0.1620026c0.2140503-0.0002213,0.4274292,0.0239334,0.6359863,0.0719986
		c0.1954346,0.0396805,0.3849487,0.1042099,0.5640259,0.1920013l-0.2399902,0.5400009
		c-0.1477661-0.0668716-0.3001709-0.1230164-0.4559937-0.1679993
		C526.0881958,121.7392578,525.9160767,121.7129288,525.742981,121.7140121z"/>
	<path style="display:none;fill:#5C5C5C;" d="M544.3220215,121.1559982v0.5279999
		c0.3814087-0.0114594,0.7600098,0.0687866,1.1040039,0.2340012c0.2515259,0.1235199,0.4558716,0.3257599,0.5819702,0.5759964
		c0.118042,0.2450027,0.1776123,0.5140686,0.1740112,0.7860031c-0.0008545,0.1934738-0.03125,0.3856735-0.0900269,0.5699997
		c-0.0626831,0.192482-0.1671753,0.3686981-0.3060303,0.5159988c-0.1604004,0.165741-0.3549194,0.2947083-0.5700073,0.3779984
		c-0.2862549,0.1051788-0.5890503,0.15802-0.8939819,0.1559982v0.6600037h-0.617981v-0.6600037
		c-0.3088379,0.0018997-0.6156006-0.0509186-0.9060059-0.1559982c-0.4118042-0.1533279-0.7303467-0.4873657-0.8639526-0.9059982
		c-0.0549316-0.1809311-0.083252-0.3689041-0.0839844-0.5579987c-0.0012817-0.2039261,0.031189-0.4066544,0.0960083-0.5999985
		c0.0648193-0.1893082,0.1714478-0.3615799,0.3120117-0.5039978c0.1613159-0.1589279,0.3560181-0.2798615,0.5700073-0.3539963
		c0.2821655-0.0949249,0.5783081-0.1415787,0.8759766-0.1380005v-0.5279999L544.3220215,121.1559982z M543.7040405,122.211998
		c-0.2483521,0.0002518-0.4937744,0.0534363-0.7199707,0.1559982c-0.1660156,0.0745926-0.3015137,0.2037506-0.3839722,0.3659973
		c-0.0796509,0.1686401-0.1186523,0.353569-0.1140137,0.5400009c-0.0046387,0.1993027,0.0385742,0.3968201,0.1259766,0.5759964
		c0.0922852,0.1640701,0.2325439,0.2959747,0.4019775,0.3779984c0.2174072,0.096489,0.4522095,0.1475372,0.6900024,0.1500015
		V122.211998z M544.3220215,124.3779984c0.2425537-0.0004654,0.4821167-0.0536957,0.7020264-0.1559982
		c0.1698608-0.0820923,0.3087158-0.2167587,0.3959961-0.3840027c0.0866089-0.1751938,0.1297607-0.3686218,0.1259766-0.564003
		c0.0042114-0.1883163-0.03479-0.3750992-0.1140137-0.5459976c-0.0823975-0.1622772-0.2179565-0.2914429-0.3839722-0.3659973
		c-0.2290039-0.0996552-0.4762573-0.1507339-0.7260132-0.1500015V124.3779984z M550.8330078,123.3519974
		c0.0036621,0.3066101-0.0388184,0.6120224-0.1259766,0.9059982c-0.0733643,0.2556992-0.2001953,0.4929276-0.3720093,0.6959991
		c-0.1679688,0.1988907-0.3822632,0.3534241-0.6240234,0.4499969c-0.2767334,0.1093216-0.5725098,0.1623535-0.8699951,0.1559982
		c-0.3033447,0.0066376-0.6050415-0.0463638-0.8880005-0.1559982c-0.2390137-0.1015167-0.4522095-0.2552795-0.6240234-0.4499969
		c-0.1693115-0.206131-0.2939453-0.4451752-0.3660278-0.7020035c-0.0830688-0.2947159-0.1234741-0.5998154-0.1199951-0.9059982
		c-0.008728-0.3948288,0.0648193-0.7871552,0.2160034-1.1520004c0.135376-0.3180161,0.3659668-0.5863037,0.6599731-0.7679977
		c0.3430176-0.1950226,0.7336426-0.2906036,1.1279907-0.276001c0.3848267-0.0143433,0.7657471,0.0814056,1.0980225,0.276001
		c0.2964478,0.1805115,0.5292969,0.448967,0.6660156,0.7679977
		C550.7664185,122.5598221,550.8421631,122.9545975,550.8330078,123.3519974z M547.5269775,123.3519974
		c-0.0067749,0.3018265,0.039917,0.6024704,0.1380005,0.8880005c0.0814819,0.2301636,0.2324219,0.4293365,0.4320068,0.5699997
		c0.2224121,0.1393509,0.4817505,0.2083588,0.7440186,0.197998c0.2623901,0.0114899,0.5220337-0.0576096,0.7440186-0.197998
		c0.1967163-0.1422119,0.3453369-0.3410645,0.4260254-0.5699997c0.0980835-0.2855225,0.1448364-0.586174,0.1380005-0.8880005
		c0.0249634-0.4247665-0.0841675-0.8466415-0.3120117-1.2060013c-0.2330933-0.3060303-0.6067505-0.4713364-0.9899902-0.4380035
		c-0.2642212-0.010849-0.5255737,0.0581436-0.75,0.197998c-0.2001953,0.1373978-0.3515015,0.3349228-0.4320068,0.564003
		C547.5665894,122.7533569,547.5198364,123.0521011,547.5269775,123.3519974z M552.9639893,121.2159958
		c0.4359131-0.0375519,0.8706665,0.083931,1.223999,0.3420029c0.2630615,0.2403336,0.4040527,0.5862503,0.3839722,0.9420013
		c0.0006714,0.1759644-0.0297852,0.3506622-0.0900269,0.5159988c-0.0584106,0.1678162-0.1549072,0.3197937-0.2819824,0.4440002
		c-0.1514282,0.1394653-0.3317261,0.2439346-0.5280151,0.3059998c-0.258606,0.0780563-0.5279541,0.1145172-0.7979736,0.1080017
		h-0.4619751V125.5h-0.6480103v-4.2839966L552.9639893,121.2159958z M552.9160156,121.7619934h-0.5040283v1.5660019h0.3900146
		c0.2067871,0.0049896,0.4130859-0.0213089,0.6119995-0.0780029c0.1469116-0.0437469,0.2754517-0.1343613,0.3660278-0.2580032
		c0.0894165-0.1392059,0.1334229-0.3027267,0.1259766-0.4680023c0.0166626-0.217598-0.0726929-0.4298553-0.2399902-0.5699997
		C553.4447632,121.8074341,553.180481,121.7397919,552.9160156,121.7619934z M557.809021,125.4999924l-0.4559937-1.2360001
		h-1.6560059l-0.4559937,1.2360001h-0.6720581l1.6259766-4.302002h0.6719971l1.6199951,4.302002H557.809021z
		 M556.7410278,122.4939957c-0.0120239-0.0440063-0.0339966-0.1100006-0.065979-0.197998l-0.0839844-0.276001
		c-0.0280151-0.095993-0.0499878-0.173996-0.065979-0.2340012c-0.0200195,0.0800018-0.0440674,0.1680069-0.0720215,0.2639999
		c-0.0240479,0.0920029-0.0480347,0.1780014-0.0720215,0.2580032c-0.0240479,0.0759964-0.0440674,0.1379929-0.0599976,0.185997
		l-0.4320068,1.2060013h1.2839966L556.7410278,122.4939957z M559.0650024,125.4999924v-4.2839966h2.59198v0.5579987h-1.9439697
		v1.2060013h0.552002c0.3395996-0.0147705,0.6785889,0.0403671,0.9959717,0.1620026
		c0.2175903,0.0848465,0.3996582,0.2415009,0.5159912,0.4440002c0.1066895,0.194725,0.1604614,0.4140091,0.1560059,0.6360016
		c0.0062866,0.2389374-0.0517578,0.475174-0.1680298,0.6839981c-0.1182251,0.200943-0.2996826,0.3570709-0.5159912,0.4440002
		c-0.2971802,0.110527-0.6131592,0.1614914-0.9299927,0.1500015L559.0650024,125.4999924z M560.2709961,124.9539948
		c0.2658691,0.021698,0.5319214-0.0390625,0.7620239-0.1740036c0.1637573-0.1371231,0.2509766-0.3450775,0.2340088-0.5579987
		c0.0084229-0.1467667-0.0316162-0.292244-0.1140137-0.4140015c-0.0907593-0.1093063-0.215271-0.1852951-0.3540039-0.2160034
		c-0.2021484-0.0493011-0.4099731-0.0714951-0.617981-0.0660019h-0.4680176v1.4280014L560.2709961,124.9539948z
		 M565.4680176,125.4999924l-0.4559937-1.2360001h-1.6560059L562.9000244,125.5h-0.6719971l1.6259766-4.302002h0.6719971
		L566.1459961,125.5L565.4680176,125.4999924z M564.4000244,122.4939957
		c-0.0120239-0.0440063-0.0339966-0.1100006-0.065979-0.197998l-0.0839844-0.276001
		c-0.0279541-0.095993-0.0499268-0.173996-0.065979-0.2340012c-0.0200195,0.0800018-0.0440063,0.1680069-0.0720215,0.2639999
		c-0.0239868,0.0920029-0.0480347,0.1780014-0.0720215,0.2580032c-0.0239868,0.0759964-0.0440063,0.1379929-0.0599976,0.185997
		l-0.4320068,1.2060013h1.2839966L564.4000244,122.4939957z M570.0650024,125.4999924h-0.6480103v-1.9560013h-2.0460205V125.5
		h-0.6480103v-4.2839966h0.6480103v1.776001h2.0460205v-1.776001h0.6480103V125.4999924z M574.4459839,125.4999924H573.68396
		l-1.8239746-2.1719971V125.5h-0.6480103v-4.2839966h0.6480103v2.0759964l1.7880249-2.0759964h0.7139893l-1.7700195,2.0759964
		L574.4459839,125.4999924z"/>
	<path style="display:none;fill:#5C5C5C;" d="M916.5440063,121.2160034
		c0.3071899-0.0066986,0.6138916,0.0276031,0.9119873,0.1019974c0.2185059,0.0495911,0.4146118,0.1697845,0.5579834,0.3420029
		c0.135498,0.178894,0.2034912,0.3998795,0.1920166,0.6240005c0.0026855,0.1547241-0.0280151,0.3082123-0.0900269,0.4499969
		c-0.0599976,0.1280594-0.1506958,0.2393417-0.2639771,0.3239975c-0.1243896,0.0890579-0.2684937,0.146698-0.4199829,0.1679993
		v0.0299988c0.1619263,0.0245743,0.3182983,0.0773697,0.4619751,0.1559982
		c0.1364746,0.0724335,0.2490234,0.1828995,0.3239746,0.3180008c0.0866089,0.1685257,0.1279907,0.3566742,0.1199951,0.5459976
		c0.006958,0.2357178-0.0579224,0.4679794-0.1859741,0.6660004c-0.1287231,0.1870346-0.3105469,0.3312302-0.5219727,0.4140015
		c-0.2554932,0.1018677-0.5290527,0.150856-0.8040161,0.1439972h-1.5360107v-4.2839966L916.5440063,121.2160034z
		 M916.6519775,123.0040054c0.2416992,0.0250931,0.4847412-0.0319824,0.6900024-0.1620026
		c0.1340942-0.1221924,0.204834-0.2990494,0.1920166-0.4800034c0.0159912-0.1844482-0.0718994-0.3624878-0.2280273-0.461998
		c-0.2260742-0.1077499-0.4761353-0.1552887-0.7260132-0.1380005h-0.6420288v1.2419968L916.6519775,123.0040054z
		 M915.9379883,123.5320053v1.4280014h0.7860107c0.2592163,0.0276413,0.519104-0.0453949,0.7260132-0.2040024
		c0.1392822-0.1443329,0.2130737-0.3396225,0.2039795-0.5400009c0.0025635-0.1258774-0.0285034-0.2501526-0.0900269-0.3600006
		c-0.071167-0.1130066-0.1793213-0.1978226-0.3060303-0.2399979c-0.1851807-0.0631256-0.3804932-0.0916061-0.5759888-0.0839996
		H915.9379883z M922.4609985,125.5000076h-0.7620239L919.875,123.3280106V125.5h-0.6480103v-4.2839966H919.875v2.0759964
		l1.7880249-2.0759964h0.7139893l-1.7700195,2.0759964L922.4609985,125.5000076z M924.9199829,124.2700043
		c-0.1104736,0.2481461-0.2409058,0.4869232-0.3899536,0.7139969c-0.1177979,0.1827164-0.281189,0.331604-0.473999,0.4319992
		c-0.2230835,0.1043396-0.4678955,0.1537094-0.7139893,0.1439972c-0.1084595-0.0000458-0.2167358-0.0080719-0.3239746-0.0240021
		c-0.0975952-0.0145187-0.1938477-0.0365906-0.2880249-0.0660019v-0.6060028
		c0.0888672,0.037468,0.1813354,0.0656204,0.276001,0.0839996c0.0987549,0.0198746,0.1992188,0.0299225,0.2999878,0.0299988
		c0.1227417,0.0037079,0.2450562-0.0166779,0.3599854-0.0599976c0.1005859-0.0444565,0.1890259-0.1123505,0.2579956-0.197998
		c0.0806274-0.107048,0.1471558-0.223999,0.197998-0.3479996l-1.5960083-3.1559982h0.7020264l1.0739746,2.2080002
		c0.022644,0.0377502,0.0407715,0.0780258,0.0540161,0.1200027c0.0199585,0.0440063,0.039978,0.090004,0.0599976,0.1380005
		c0.0217285,0.0423737,0.0397949,0.0865402,0.0539551,0.1320038h0.0239868
		c0.0187378-0.0388412,0.03479-0.0789413,0.0479736-0.1200027c0.0159912-0.0480042,0.0339966-0.0960007,0.0540161-0.1439972
		s0.0380249-0.090004,0.0540161-0.1259995l0.947998-2.2080002h0.6779785L924.9199829,124.2700043z M928.6160278,121.7140045
		c-0.1959839-0.003273-0.3903809,0.0356064-0.5700073,0.1139984c-0.1678467,0.0718842-0.315979,0.1829987-0.4320068,0.3239975
		c-0.1220093,0.1554871-0.213623,0.3325806-0.2700195,0.5220032c-0.0627441,0.2245331-0.0930786,0.4568863-0.0900269,0.6900024
		c-0.0065308,0.298912,0.0444336,0.5962906,0.1500244,0.8759995c0.088562,0.2297287,0.2456665,0.4266434,0.4500122,0.564003
		c0.2268677,0.1393509,0.4899292,0.2082596,0.7559814,0.197998c0.177124,0.0006332,0.3538818-0.0154419,0.5280151-0.0479965
		c0.1762085-0.0371094,0.3504639-0.083168,0.5219727-0.1380005v0.5579987
		c-0.166748,0.0636826-0.3397217,0.1099319-0.5159912,0.1380005c-0.2021484,0.0341263-0.4069824,0.0501938-0.6119995,0.0479965
		c-0.3820801,0.0137787-0.760376-0.0797577-1.09198-0.2699966c-0.2903442-0.1826935-0.5167847-0.4510574-0.6480103-0.7679977
		c-0.151123-0.369072-0.2246094-0.7652893-0.2160034-1.1640015c-0.003479-0.3011398,0.0410767-0.6008987,0.132019-0.8880005
		c0.0840454-0.257988,0.218689-0.4966354,0.3959961-0.7020035c0.1740723-0.1974716,0.3918457-0.3515625,0.6359863-0.4499969
		c0.2801514-0.1125793,0.5801392-0.1676712,0.882019-0.1620026c0.2140503-0.0002213,0.4274292,0.0239334,0.6359863,0.0719986
		c0.1954346,0.0397034,0.3849487,0.1042252,0.5640259,0.1920013l-0.2399902,0.5400009
		c-0.1477661-0.0668793-0.3001709-0.123024-0.4559937-0.1679993
		C928.9612427,121.7392502,928.7890625,121.7129211,928.6160278,121.7140045z M931.8370361,121.2160034
		c0.3071899-0.006691,0.6138916,0.0276108,0.9119873,0.1019974c0.2185059,0.0495987,0.4146118,0.1697922,0.5579834,0.3420029
		c0.135437,0.1789246,0.2034302,0.3998871,0.1920166,0.6240005c0.0026855,0.1547241-0.0280151,0.3082123-0.0900269,0.4499969
		c-0.0600586,0.1280441-0.1506958,0.2393188-0.2639771,0.3239975c-0.1243896,0.0890579-0.2684937,0.146698-0.4199829,0.1679993
		v0.0299988c0.1619263,0.0245743,0.3182983,0.0773773,0.4619751,0.1559982
		c0.1364746,0.0724335,0.2490234,0.1828995,0.3239746,0.3180008c0.0866699,0.1685181,0.1279907,0.3566742,0.1199951,0.5459976
		c0.006897,0.2357178-0.0579224,0.4679718-0.1859741,0.6660004c-0.1287231,0.1870346-0.3105469,0.3312302-0.5219727,0.4140015
		c-0.2554932,0.1018677-0.5289917,0.150856-0.8039551,0.1439972h-1.5360107v-4.2839966L931.8370361,121.2160034z
		 M931.9450073,123.0040054c0.2416992,0.0250854,0.4847412-0.0319901,0.6900024-0.1620026
		c0.1340942-0.1221924,0.204834-0.2990494,0.1920166-0.4800034c0.0159302-0.1844482-0.0718994-0.3624725-0.2280273-0.461998
		c-0.2260742-0.1077576-0.4761353-0.1552963-0.7260132-0.1380005h-0.6420288v1.2419968L931.9450073,123.0040054z
		 M931.2310181,123.5320053v1.4280014h0.7860107c0.2592163,0.0276566,0.519165-0.0453796,0.7260132-0.2040024
		c0.1393433-0.14431,0.2130737-0.3396149,0.2039795-0.5400009c0.0025635-0.1258774-0.0285034-0.2501526-0.0900269-0.3600006
		c-0.071167-0.1130142-0.1793213-0.1978378-0.3060303-0.2399979c-0.1852417-0.0631256-0.3804932-0.0915985-0.5760498-0.0839996
		H931.2310181z M934.526001,121.2160034h0.5939941v2.2679977c-0.000061,0.1000061-0.0020752,0.2099991-0.0059814,0.3300018
		c0,0.1199951-0.0020142,0.237999-0.0059814,0.3539963c-0.0040283,0.1159973-0.0099487,0.2200012-0.0179443,0.3119965
		c-0.0039673,0.0879974-0.0079956,0.1539993-0.0120239,0.197998h0.0239868l2.2440186-3.461998h0.7440186V125.5h-0.5941162v-2.25
		c-0.000061-0.1080017,0.0018921-0.223999,0.0059814-0.3479996c0.0039673-0.128006,0.0079956-0.2519989,0.0120239-0.3720016
		c0.0079956-0.1200027,0.0140381-0.223999,0.0180054-0.3119965c0.0039673-0.0920029,0.0079956-0.1580048,0.0120239-0.197998
		h-0.0239868l-2.25,3.4800034h-0.7440186V121.2160034z M942.3989868,125.5h-0.6480103v-3.7259979h-1.2659912
		c-0.0279541,0.2079926-0.0579834,0.4300003-0.0900269,0.6660004c-0.0280151,0.2319946-0.0580444,0.4639969-0.0900269,0.6959991
		s-0.0640259,0.4520035-0.0960083,0.6600037c-0.0319824,0.2039948-0.0639648,0.3839951-0.0960083,0.5400009
		c-0.0424805,0.2283249-0.1088257,0.4515533-0.197998,0.6660004c-0.0662231,0.1660919-0.1760864,0.311203-0.3179932,0.4199982
		c-0.1541748,0.102478-0.3370972,0.1529312-0.5219727,0.1439972c-0.0726929-0.0000687-0.1450806-0.0081177-0.2160034-0.0240021
		c-0.0632324-0.0107727-0.1254272-0.026825-0.1859741-0.0479965v-0.5339966
		c0.0480347,0.0160065,0.0980225,0.0319977,0.1500244,0.0479965c0.0571899,0.0121155,0.1155396,0.0181503,0.1740112,0.0179977
		c0.1033936,0.0041275,0.2021484-0.0430145,0.2639771-0.1259995c0.0722656-0.1014175,0.1251831-0.2153397,0.1560059-0.3359985
		c0.0400391-0.1399994,0.0759888-0.2940063,0.1079712-0.461998c0.0199585-0.1119919,0.0460205-0.262001,0.0780029-0.4499969
		s0.065979-0.4100037,0.1019897-0.6660004c0.039978-0.2560043,0.0800171-0.5340042,0.1199951-0.8339996
		c0.0440063-0.2999954,0.0839844-0.6119995,0.1199951-0.935997h2.4539795L942.3989868,125.5z M946.7119751,125.5h-0.6480103
		v-3.7259979h-1.2659912c-0.0279541,0.2079926-0.0579834,0.4300003-0.0900269,0.6660004
		c-0.0280151,0.2319946-0.0580444,0.4639969-0.0900269,0.6959991s-0.0640259,0.4520035-0.0960083,0.6600037
		c-0.0319824,0.2039948-0.0639648,0.3839951-0.0960083,0.5400009c-0.0424805,0.2283249-0.1088257,0.4515533-0.197998,0.6660004
		c-0.0662842,0.1660767-0.1761475,0.3111877-0.3180542,0.4199982c-0.1541748,0.102478-0.3370972,0.1529312-0.5219727,0.1439972
		c-0.0726929-0.0000687-0.1450806-0.0081177-0.2160034-0.0240021c-0.0632324-0.0107651-0.1254272-0.0268173-0.1859741-0.0479965
		v-0.5339966c0.0480347,0.0160065,0.0980835,0.0319977,0.1500244,0.0479965
		c0.0571899,0.0121155,0.1155396,0.0181503,0.1740112,0.0179977c0.1033936,0.0041351,0.2021484-0.0430069,0.2639771-0.1259995
		c0.0722656-0.1014175,0.1251831-0.215332,0.1560059-0.3359985c0.0400391-0.1399994,0.0760498-0.2940063,0.1079712-0.461998
		c0.0200195-0.1119919,0.0459595-0.262001,0.0780029-0.4499969s0.065979-0.4100037,0.1019897-0.6660004
		c0.039978-0.2560043,0.0800171-0.5340042,0.1199951-0.8339996c0.0440063-0.2999954,0.0839844-0.6119995,0.1199951-0.935997
		h2.4539795L946.7119751,125.5z"/>
	<path style="fill:#E52D2C;" d="M645.5949707,96.4947968h-1.1370239l-4.723999-12.0668869h-0.0040283l-3.1810303,6.8243866
		l-3.1740112-6.8243866h-0.0040283l-4.7318726,12.0668869h-1.1370239V97.5h6.5150146v-1.0052032h-1.2930298l1.507019-3.8286972
		L636.5490112,97.5l2.3250122-4.8339005l1.4990234,3.8286972h-1.2930298V97.5h6.5149536V96.4947968z"/>
	<path style="fill:#5C5C5C;" d="M654.0689697,95.5v-0.5390015h0.3410034
		c0.1151733,0.0011673,0.2299194-0.0136337,0.3410034-0.0439987c0.1038208-0.0304031,0.1934814-0.0966644,0.2529907-0.1869965
		c0.0744629-0.1381378,0.1087646-0.2943726,0.098999-0.4509964v-5.4010086
		c0.0117188-0.1567688-0.0227051-0.3135452-0.098999-0.4509964c-0.0567017-0.0952301-0.1469116-0.1658401-0.2529907-0.197998
		c-0.111084-0.030365-0.2258301-0.0451736-0.3410034-0.0439987h-0.3410034v-0.5390015h2.914978l2.0020142,5.6869965
		l1.9359741-5.6869965h2.8599854v0.5390015h-0.3410034c-0.1195068-0.0008545-0.2384033,0.0177231-0.3519897,0.0550003
		c-0.1062012,0.0318756-0.1965332,0.102562-0.2529907,0.197998c-0.0687866,0.151619-0.098999,0.3178787-0.0880127,0.4840012
		v5.302002c-0.0093994,0.1660233,0.020752,0.3319092,0.0880127,0.4840012
		c0.0581665,0.0963593,0.1473999,0.1700668,0.2529907,0.2089996c0.1149292,0.029953,0.2332153,0.0447388,0.3519897,0.0439987
		h0.3410034V95.5h-3.2999878v-0.5390015h0.0880127c0.1297607,0.0028763,0.2592773-0.0119324,0.3850098-0.0439987
		c0.1033936-0.0248642,0.1937256-0.0876846,0.2529907-0.1760025c0.06604-0.1290054,0.0964355-0.2733154,0.0880127-0.4179993
		v-5.6869965L658.9639893,95.5h-0.6929932l-2.4089966-6.8529968v5.5770035
		c-0.0100708,0.1672287,0.0241089,0.3341522,0.098999,0.4840012c0.0631714,0.1008148,0.1609497,0.1751251,0.2750244,0.2089996
		c0.1408691,0.0310974,0.28479,0.0458679,0.4290161,0.0439987h0.0549927V95.5H654.0689697z M664.1589966,95.5v-0.5390015h0.164978
		c0.1207275,0.0035248,0.2407837-0.0189819,0.3520508-0.0660019c0.1080322-0.0556564,0.1991577-0.1392136,0.2639771-0.2419968
		c0.1029053-0.1626053,0.1877441-0.335968,0.2529907-0.5169983l2.4089966-6.4899979h1.2540283l2.3759766,6.5999985
		c0.0487061,0.1557312,0.1190796,0.3038406,0.2089844,0.4400024c0.0689697,0.0935669,0.1594849,0.1690521,0.2639771,0.2200012
		c0.1096191,0.0379105,0.2250366,0.0565186,0.3410034,0.0550003h0.1760254V95.5h-3.3989868v-0.5390015h0.3629761
		c0.1331787,0.0038681,0.2641602-0.0346451,0.3740234-0.1100006c0.1133423-0.0799255,0.1760864-0.2137527,0.164978-0.3519974
		c-0.0004272-0.0520859-0.0078125-0.1038742-0.0219727-0.1539993c-0.0065918-0.0521851-0.0176392-0.1037064-0.03302-0.1539993
		c-0.0071411-0.0496674-0.0219727-0.0979156-0.0440063-0.1429977l-0.3959961-1.1549988h-2.7609863l-0.3519897,1.0339966
		c-0.0220337,0.0586624-0.0440063,0.1209946-0.065979,0.1869965c-0.0150146,0.0660019-0.0300293,0.1320038-0.0440063,0.197998
		c-0.0072021,0.0583954-0.0108643,0.1171646-0.0109863,0.1760025c-0.0093994,0.1410141,0.0525513,0.2773514,0.164978,0.362999
		c0.1252441,0.0775757,0.270813,0.1158905,0.4180298,0.1100006h0.3740234V95.5H664.1589966z M666.6890259,92.2770004h2.3209839
		l-0.6160278-1.8590012c-0.05896-0.183342-0.1212769-0.3740005-0.1870117-0.5719986
		c-0.05896-0.197998-0.1176147-0.3923264-0.1760254-0.5830002c-0.052002-0.1906967-0.098999-0.3703003-0.1430054-0.5390015
		c-0.0300293,0.1173019-0.065979,0.2419968-0.1099854,0.3740005c-0.0369873,0.1320038-0.0773315,0.267662-0.1209717,0.4069977
		c-0.0369873,0.139328-0.0809937,0.2823334-0.132019,0.4290009c-0.0440063,0.1393127-0.09198,0.2787018-0.1430054,0.4179993
		L666.6890259,92.2770004z M672.5780029,95.5v-0.5390015h0.3410034c0.1187744,0.0016556,0.2372437-0.0131531,0.3519897-0.0439987
		c0.1034546-0.0377808,0.1895752-0.1121216,0.2420044-0.2089996c0.0748901-0.1498489,0.1090698-0.3167725,0.098999-0.4840012
		v-5.3460007c0.0117188-0.1567688-0.0227051-0.3135452-0.098999-0.4509964
		c-0.0567017-0.0952301-0.1469116-0.1658478-0.2529907-0.197998c-0.111084-0.0303574-0.2258301-0.045166-0.3410034-0.0439987
		h-0.3410034v-0.5390015h3.2670288c0.7780762-0.0629807,1.5524902,0.1599426,2.1779785,0.6269989
		c0.4835205,0.4265747,0.7466431,1.0499878,0.7150269,1.6940002c0.0010376,0.3235703-0.0586548,0.6444626-0.1760254,0.9459991
		c-0.1176147,0.3044739-0.3017578,0.5788269-0.5390015,0.8030014c-0.27771,0.2556381-0.6081543,0.4471512-0.9680176,0.560997
		c-0.470459,0.142662-0.9605713,0.2094955-1.4520264,0.197998h-0.4949951v1.8040009
		c-0.0097656,0.1566238,0.0245361,0.3128586,0.098999,0.4509964c0.0593262,0.0905304,0.1491089,0.1568604,0.2530518,0.1869965
		c0.1149292,0.0299606,0.2332153,0.044754,0.3519897,0.0439987h0.5499878V95.5H672.5780029z M675.492981,91.8809967
		c0.2529297,0.0055084,0.505249-0.0278778,0.7480469-0.098999c0.1977539-0.0639267,0.3757935-0.1775589,0.5170288-0.3300018
		c0.1408081-0.1643143,0.2390747-0.3607559,0.2860107-0.5719986c0.0629272-0.2852783,0.0924683-0.5769043,0.0880127-0.8690033
		c0.0101318-0.3358002-0.038269-0.6707916-0.1430054-0.9899979c-0.0831909-0.2416611-0.2512817-0.4449158-0.4730225-0.5719986
		c-0.262146-0.1441116-0.5591431-0.2126541-0.8579712-0.197998h-0.5499878v3.6299973H675.492981z M679.4530029,95.5v-0.5390015
		h0.3410034c0.1269531,0.0041885,0.2536621-0.0144348,0.3740234-0.0550003
		c0.1032715-0.0452423,0.185791-0.1277161,0.2310181-0.2310028c0.0648804-0.1411667,0.0950317-0.2957993,0.0880127-0.4509964
		v-5.302002c0.0111694-0.1637726-0.0230713-0.3274536-0.098999-0.4729996
		c-0.0524292-0.0968781-0.1385498-0.1712189-0.2420044-0.2089996c-0.1132812-0.0383835-0.2323608-0.0569839-0.3519897-0.0550003
		h-0.3410034v-0.5390015h3.7839966v0.5390015h-0.5499878c-0.1278687-0.0035553-0.255127,0.018898-0.3740234,0.0660019
		c-0.1015015,0.0353699-0.1872559,0.1055069-0.2420044,0.197998c-0.0665283,0.1288376-0.0969238,0.2732773-0.0880127,0.4179993
		v2.2440033h0.6930542c0.5773315-0.0217972,1.1531982,0.0716858,1.6939697,0.2750015
		c0.3898926,0.1483002,0.7216187,0.4183121,0.9459839,0.7699966c0.2024536,0.3467102,0.3052368,0.7425919,0.2969971,1.1439972
		c0.0066528,0.4076233-0.1040649,0.8085632-0.3189697,1.1549988c-0.2280273,0.3484116-0.5585327,0.6174545-0.9459839,0.7699966
		c-0.5146484,0.2007675-1.0648804,0.2943497-1.6170044,0.2750015L679.4530029,95.5z M682.598999,94.8949966
		c0.2843018,0.0126343,0.5674438-0.0439835,0.8250122-0.1650009c0.203125-0.1149445,0.3590088-0.2980957,0.4400024-0.5169983
		c0.1038818-0.2775726,0.1524658-0.5727844,0.1430054-0.8690033c0.0126343-0.327034-0.0435791-0.6530762-0.164978-0.9570007
		c-0.0932617-0.2316437-0.2698364-0.4199982-0.4949951-0.5279999c-0.2769165-0.1213379-0.5779419-0.1777802-0.8800049-0.1650009
		h-0.4840088v3.2009964h0.6160278L682.598999,94.8949966z M686.3280029,95.5v-0.5390015h0.3410034
		c0.1151733,0.0011673,0.2299194-0.0136337,0.3410034-0.0439987c0.1077881-0.0350189,0.1982422-0.1097412,0.2529907-0.2089996
		c0.0748901-0.1498489,0.1090698-0.3167725,0.098999-0.4840012v-5.3460007
		c0.0117188-0.1567688-0.0227051-0.3135452-0.098999-0.4509964c-0.0567017-0.0952301-0.1469116-0.1658478-0.2529907-0.197998
		c-0.111084-0.0303574-0.2258301-0.045166-0.3410034-0.0439987h-0.3410034v-0.5390015h3.5640259v0.5390015h-0.3410034
		c-0.1195679-0.0008469-0.2384644,0.0177307-0.3520508,0.0550003c-0.1062012,0.0318832-0.1965332,0.1025696-0.2529907,0.197998
		c-0.0687256,0.1516266-0.098999,0.3178787-0.0880127,0.4840012v4.0589981l3.1790161-3.8499985v-0.2089996
		c0.0118408-0.1673508-0.0223999-0.3347397-0.098999-0.4840012c-0.0507202-0.095871-0.1380005-0.167244-0.2420044-0.197998
		c-0.1132812-0.0383835-0.2323608-0.0569839-0.3519897-0.0550003h-0.3410034v-0.5390015h3.5640259v0.5390015h-0.3410034
		c-0.1195068-0.0008469-0.2384033,0.0177307-0.3519897,0.0550003c-0.1062012,0.0318832-0.1965332,0.1025696-0.2529907,0.197998
		c-0.0687256,0.1516266-0.098999,0.3178787-0.0880127,0.4840012v5.3570023
		c-0.0098267,0.1566315,0.0244751,0.3128815,0.098999,0.4509964c0.0592651,0.0905457,0.1490479,0.1568832,0.2529907,0.1869965
		c0.1112671,0.0295258,0.2258911,0.0443192,0.3410034,0.0439987h0.3410034V95.5h-3.5640259v-0.5390015h0.3410034
		c0.1187744,0.0016556,0.2372437-0.0131531,0.3519897-0.0439987c0.1035156-0.0377579,0.1895752-0.1121063,0.2420044-0.2089996
		c0.0749512-0.1498413,0.1090698-0.3167725,0.098999-0.4840012v-4.2129974l-3.1790161,3.8499985v0.362999
		c-0.0093994,0.1660233,0.020813,0.3319016,0.0880127,0.4840012c0.0581665,0.0963516,0.1473999,0.1700592,0.2529907,0.2089996
		c0.1149292,0.029953,0.2332764,0.0447464,0.3520508,0.0439987h0.3410034V95.5H686.3280029z M695.276001,95.5v-0.5390015h0.3410034
		c0.1151733,0.0011673,0.2299194-0.0136337,0.3410034-0.0439987c0.1077881-0.0350189,0.1982422-0.1097412,0.2529907-0.2089996
		c0.0748901-0.1498489,0.1090698-0.3167725,0.098999-0.4840012v-5.3460007
		c0.0117188-0.1567688-0.0227051-0.3135452-0.098999-0.4509964c-0.0567017-0.0952301-0.1469116-0.1658478-0.2529907-0.197998
		c-0.111084-0.0303574-0.2258301-0.045166-0.3410034-0.0439987h-0.3410034v-0.5390015h3.5640259v0.5390015h-0.3410034
		c-0.1195068-0.0008392-0.2384033,0.0177383-0.3519897,0.0550003c-0.1062012,0.0318832-0.1965332,0.1025696-0.2529907,0.197998
		c-0.0687256,0.1516266-0.098999,0.3178787-0.0880127,0.4840012v2.1669998h3.1350098v-2.1670074
		c0.0118408-0.1673508-0.0223999-0.3347397-0.098999-0.4840012c-0.0507202-0.0958786-0.1380005-0.1672592-0.2420044-0.197998
		c-0.1132812-0.0383682-0.2323608-0.0569763-0.3519897-0.0550003h-0.3410034v-0.5390015h3.5640259v0.5390015h-0.3410034
		c-0.1159058-0.0002975-0.2310791,0.01828-0.3410034,0.0550003c-0.1083374,0.0277023-0.2000732,0.0995178-0.2529907,0.197998
		c-0.0687866,0.151619-0.098999,0.3178787-0.0880127,0.4840012v5.3570023
		c-0.0092163,0.1553497,0.0210571,0.3105087,0.0880127,0.4509964c0.0592651,0.0905457,0.1490479,0.1568756,0.2529907,0.1869965
		c0.1112671,0.0295181,0.2258911,0.0443115,0.3410034,0.0439987h0.3410034V95.5h-3.5640259v-0.5390015h0.3410034
		c0.1187744,0.0016556,0.2372437-0.0131531,0.3519897-0.0439987c0.1035156-0.0377426,0.1895752-0.1120911,0.2420044-0.2089996
		c0.0749512-0.1498413,0.1090698-0.3167725,0.098999-0.4840012v-2.5079956h-3.1350098v2.5080032
		c-0.0093384,0.1660233,0.020813,0.3318939,0.0880127,0.4840012c0.0581665,0.0963516,0.1473999,0.1700592,0.2529907,0.2089996
		c0.1149292,0.0299454,0.2332153,0.0447388,0.3519897,0.0439987h0.3410034V95.5H695.276001z M708.0529785,95.6100006
		c-0.7090454,0.0270462-1.4110718-0.148468-2.0239868-0.5059967c-0.5372314-0.3401184-0.9590454-0.8347702-1.210022-1.4189987
		c-0.2770386-0.6766281-0.4118042-1.4030304-0.3959961-2.1340027c-0.0166016-0.7274704,0.1182251-1.4504395,0.3959961-2.1230011
		c0.2516479-0.5780334,0.6738281-1.0654297,1.210022-1.3970032c0.6172485-0.3566513,1.3225708-0.5320282,2.0349731-0.5059967
		c0.6911621-0.02285,1.3744507,0.1527405,1.9689941,0.5059967c0.5402222,0.3348236,0.9660034,0.8258209,1.2210083,1.4079971
		c0.2925415,0.6686935,0.4352417,1.3933105,0.4180298,2.1230011c0.0164185,0.7331772-0.1262207,1.4612045-0.4180298,2.1340027
		c-0.2610474,0.5817413-0.6901245,1.0720901-1.2320557,1.4079971c-0.5945435,0.3532791-1.277832,0.5288696-1.9689941,0.5059967
		L708.0529785,95.6100006z M708.0529785,94.939003c0.3257446,0.0118256,0.6486816-0.0641632,0.9349976-0.2200012
		c0.2619629-0.1593857,0.4750366-0.3877029,0.6160278-0.6600037c0.175415-0.3337936,0.2943726-0.6943436,0.3519897-1.0670013
		c0.1466675-0.9440002,0.1466675-1.9049988,0-2.848999c-0.0567017-0.3679123-0.171814-0.724411-0.3410034-1.0559998
		c-0.1368408-0.2751923-0.3508911-0.5045471-0.6160278-0.6600037c-0.2846069-0.1612854-0.6080322-0.2412033-0.9349976-0.2310028
		c-0.3303223-0.0089798-0.6569824,0.0707932-0.9459839,0.2310028c-0.2662964,0.1574097-0.4834595,0.3859711-0.6270142,0.6600037
		c-0.1687622,0.3317642-0.2838745,0.6881866-0.3410034,1.0559998c-0.1467285,0.9440002-0.1467285,1.9049988,0,2.848999
		c0.0583496,0.3710251,0.1734009,0.7308884,0.3410034,1.0670013c0.1477051,0.2710266,0.3638916,0.4985886,0.6270142,0.6600037
		C707.4055786,94.8713684,707.7276001,94.9471359,708.0529785,94.939003z"/>
</g>
<g id="title-shops">
	<rect id="t-0a07" x="494" y="119.3703995" style="fill:none;" width="38.8888893" height="7.849194"/>
	<rect id="t-0a06" x="538.4796143" y="119.3703995" style="fill:none;" width="38.8888893" height="7.849194"/>
	<rect id="t-0a05-a" x="703.59729" y="119.3703995" style="fill:none;" width="31.8054638" height="7.849194"/>
	<rect id="t-0a05" x="741.2380371" y="119.3703995" style="fill:none;" width="36.5239258" height="7.849194"/>
	<rect id="t-0a04" x="783.3703613" y="119.3703995" style="fill:none;" width="26.2592602" height="7.849194"/>
	<rect id="t-0a03" x="814.3703613" y="119.3703995" style="fill:none;" width="26.2592602" height="7.849194"/>
	<rect id="t-0a01" x="896.2037964" y="119.3703995" style="fill:none;" width="60.7430534" height="7.849194"/>
	<rect id="t-0b02" x="450.3179932" y="201.7620087" style="fill:none;" width="60.7430534" height="7.849194"/>
</g>
<g id="points-logo">
	<rect id="l-0a07" x="498.4620056" y="134.5638275" style="fill:none;" width="30.506073" height="13.8829803"/>
	<rect id="l-0a06" x="543.2338867" y="134.5638275" style="fill:none;" width="30.5060425" height="13.8829803"/>
	<rect id="l-0b02" x="388.5" y="314.5" style="fill:none;" width="210.1383057" height="22.3435669"/>
	<rect id="l-0a01" x="904.9574585" y="163.5099945" style="fill:none;" width="51.9893799" height="7.2453156"/>
</g>
<g id="interactive">
	<rect id="s-0a07" x="493.5" y="117" style="fill:none;stroke:#D9D9D9;" width="40" height="53"/>
	<rect id="s-0a05-a" x="702.5" y="117" style="fill:none;stroke:#D9D9D9;" width="34" height="50"/>
	<rect id="s-0a06" x="537.5" y="117" style="fill:none;stroke:#D9D9D9;" width="41" height="53"/>
	<rect id="s-0a05" x="740.5" y="117" style="fill:none;stroke:#D9D9D9;" width="38" height="50"/>
	<rect id="s-0a04" x="782.5" y="117" style="fill:none;stroke:#D9D9D9;" width="28" height="50"/>
	<rect id="s-0a03" x="813.5" y="117" style="fill:none;stroke:#D9D9D9;" width="28" height="50"/>
	<rect id="s-0a02" x="845.5" y="117" style="fill:none;stroke:#D9D9D9;" width="21" height="50"/>
	<path id="s-0a01" style="fill:none;stroke:#D9D9D9;" d="M884.5,167v-0.5H870V117h102v99.5h-87.5V167z"/>
	<path id="s-0b02" style="fill:none;stroke:#D9D9D9;" d="M834.5,405.5v0.5h75v49H339V196h288v113.5h63V271h144.5V405.5z"/>
	<g id="stair-1">
		<circle style="fill:#6391CC;" cx="902.5" cy="256" r="11.5"/>
		<path style="fill:#FFFFFF;" d="M903.3850098,251.7859955h4.4790039v1.9199982h-2.559021v2.5599976h-2.5599976v2.5589905h-2.559021
			v2.5599976h-4.4799805v-1.9200134h2.5599976v-2.5599976h2.5599976v-2.5590057h2.559021V251.7859955z M900.2940063,252.2089996
			l-3.5250244,3.5249939l-1.1710205-1.1710052l3.5250244-3.5249939l-1.177002-1.1710052h3.5189819v3.5189972
			L900.2940063,252.2089996z"/>
		<path style="fill:#FFFFFF;" d="M904.5620117,259.7909851l3.5250244-3.526001l1.1710205,1.17099l-3.5250244,3.526001
			l1.177002,1.17099h-3.5189819v-3.5190125L904.5620117,259.7909851z"/>
	</g>
	<g id="elevator-1">
		<circle style="fill:#6391CC;" cx="951.5" cy="315" r="11.5"/>
		<path style="fill-rule:evenodd;clip-rule:evenodd;fill:#FFFFFF;" d="M946.9879761,308.6010132
			c0.6679688-0.6680298,1.7510376-0.6680298,2.4190674-0.000061c0.6680298,0.6679993,0.6680298,1.7510376,0.000061,2.4190674
			c-0.6680298,0.6679993-1.7510376,0.6680298-2.4190674,0.000061c-0.3209229-0.3209229-0.5011597-0.7562256-0.5010376-1.2100525
			C946.4871216,309.3565369,946.6672974,308.9216614,946.9879761,308.6010132z M956.2179565,310.4200134l2.9489746,3.9309998
			h-5.8980103L956.2179565,310.4200134z M949.4159546,314.9040222l0.9550171,6.1109924
			c0.0655518,0.418335-0.220459,0.8106079-0.6387939,0.8761597s-0.8106079-0.220459-0.8761597-0.6387939
			c0-0.0001221-0.000061-0.0002441-0.000061-0.0003662l-0.65802-4.2109985l-0.65802,4.2109985
			c-0.0653687,0.4183655-0.4574585,0.7045593-0.8758545,0.6392212c-0.418396-0.0653687-0.7045898-0.457489-0.6392212-0.8758545
			c0-0.0001221,0.000061-0.0002441,0.000061-0.0003662l0.9550171-6.1109924l-0.927002,1.8540039
			c-0.1891479,0.3788757-0.6496582,0.5326538-1.0285034,0.3435059s-0.5326538-0.6496277-0.3435059-1.0285034l0,0
			l1.4680176-2.9370117c0.4113159-0.7538147,1.1907349-1.2338562,2.0490112-1.2619934
			c0.4222412,0.0093994,0.8339233,0.1335144,1.190979,0.3590088c0.3635864,0.2164917,0.6602173,0.5293579,0.8569946,0.9039917
			l1.4680176,2.9360046c0.1901855,0.3780823,0.0378418,0.8387146-0.340271,1.0289001
			c-0.3780518,0.190155-0.8386841,0.0378113-1.0288696-0.340271l-0.0018311-0.0036316L949.4159546,314.9040222z
			 M953.2689819,316.5920105h5.8980103l-2.9489746,3.9320068L953.2689819,316.5920105z"/>
	</g>
	<g id="escalator-1">
		<circle style="fill:#6391CC;" cx="648.5" cy="266" r="11.5"/>
		<path style="fill:#FFFFFF;" d="M654.1380005,262.8059998h-0.7310181l-8.3590088,8.3590088h-2.0549927
			c-0.7693481,0-1.3930054-0.6236572-1.3930054-1.3930054s0.6236572-1.3930054,1.3930054-1.3930054l0,0h0.8989868
			l1.190979-1.1910095v-2.9890137c0.0009766-0.3839722,0.3120117-0.6950073,0.6959839-0.6960144h0.6970215
			c0.3842163,0.000885,0.6955566,0.3118286,0.6970215,0.6960144v0.8989868l5.0780029-5.0780029h1.8870239
			c0.7693481,0,1.3930054,0.6236572,1.3930054,1.3930054s-0.6236572,1.3930054-1.3930054,1.3930054V262.8059998z
			 M646.1279907,260.7170105c0.5768433,0.0002747,1.0443115,0.4681091,1.0440063,1.0449829
			c-0.0002441,0.5768738-0.4681396,1.044281-1.0449829,1.0440063c-0.5768433-0.0002441-1.0442505-0.4681091-1.0440063-1.0449829l0,0
			l0,0c-0.0005493-0.5760193,0.4659424-1.043457,1.0419922-1.0440063H646.1279907z"/>
	</g>
	<g id="stair-2">
		<circle style="fill:#6391CC;" cx="612.5" cy="470" r="11.5"/>
		<path style="fill:#FFFFFF;" d="M613.3850098,465.7860107h4.4790039v1.9200134h-2.559021v2.5599976h-2.5599976v2.5589905h-2.559021
			v2.5599976h-4.4799805v-1.9200134h2.5599976v-2.5599976h2.5599976v-2.5589905h2.559021V465.7860107z M610.2940063,466.2090149
			l-3.5250244,3.5249939l-1.1710205-1.17099l3.5250244-3.5249939l-1.177002-1.17099h3.5189819v3.5190125L610.2940063,466.2090149z"
			/>
		<path style="fill:#FFFFFF;" d="M614.5620117,473.7909851l3.5250244-3.526001l1.1710205,1.17099l-3.5250244,3.526001
			l1.177002,1.17099h-3.5189819v-3.5190125L614.5620117,473.7909851z"/>
	</g>
</g>
</svg>
