<svg id="Layer_1" data-name="Layer 1" xmlns="http://www.w3.org/2000/svg" viewBox="0 0 1199 599">
  <g id="background">
    <rect width="1199" height="599" style="fill: #fff"/>
    <path d="M980.5,108.5h-740V178c-4,1-14.6,5.3-25,14.5s-15,22.5-16,28v240H270v16h50V490h17V460.5H580V487h59.5V460.5h341Z" style="fill: #f8f8f8;stroke: #5c5c5c;stroke-width: 2px"/>
    <path d="M238.999,461.164v-212c-.166-7.833.501-22.5,15.502-31,12.615-7.148,24.003-5.5,28.501-5.5" style="fill: none;stroke: #5c5c5c;stroke-width: 2px"/>
    <path d="M287.5,384.5V171H247V116.5H489V171H334.5V384.5Z" style="fill: #efeded"/>
    <rect x="288" y="387.5" width="47" height="26" style="fill: #efeded"/>
    <rect x="288" y="416.5" width="47" height="39" style="fill: #efeded"/>
    <rect x="630" y="217.5" width="37" height="89" style="fill: #efeded"/>
    <path d="M282.998,456.187v-238.5c-6,0-16.498-1.5-26.5,4-10.821,5.95-13.334,17.833-13,23.5v211Z" style="fill: #efeded"/>
    <rect x="882" y="225.5" width="92" height="63" style="fill: #efeded"/>
    <rect x="882" y="343.5" width="92" height="48" style="fill: #efeded"/>
    <rect x="914" y="406.5" width="60" height="49" style="fill: #efeded"/>
    <rect x="929" y="291.5" width="45" height="48" style="fill: #efeded"/>
    <rect x="493.5" y="117" width="40" height="53" style="fill: #fff;stroke: #d9d9d9"/>
    <rect x="702.5" y="117" width="34" height="50" style="fill: #fff;stroke: #d9d9d9"/>
    <rect x="537.5" y="117" width="41" height="53" style="fill: #fff;stroke: #d9d9d9"/>
    <rect x="740.5" y="117" width="38" height="50" style="fill: #fff;stroke: #d9d9d9"/>
    <rect x="782.5" y="117" width="28" height="50" style="fill: #fff;stroke: #d9d9d9"/>
    <rect x="813.5" y="117" width="28" height="50" style="fill: #fff;stroke: #d9d9d9"/>
    <rect x="845.5" y="117" width="21" height="50" style="fill: #fff;stroke: #d9d9d9"/>
    <path d="M884.5,167v-.5H870V117H972v99.5H884.5Z" style="fill: #fff;stroke: #d9d9d9"/>
    <path d="M834.5,405.5v.5h75v49H339V196H627V309.5h63V271H834.5Z" style="fill: #fff;stroke: #d9d9d9"/>
    <path d="M590,194.5H532v3h58Z" style="fill: #d9d9d9"/>
    <path d="M788,269.5H730v3h58Z" style="fill: #d9d9d9"/>
    <line x1="602.5" y1="115.5" x2="602.5" y2="150.5" style="fill: none;stroke: #5c5c5c"/>
    <line x1="673.5" y1="115.5" x2="673.5" y2="150.5" style="fill: none;stroke: #5c5c5c"/>
    <line x1="673" y1="121" x2="602" y2="121" style="fill: none;stroke: #5c5c5c"/>
    <line x1="673" y1="118" x2="602" y2="118" style="fill: none;stroke: #5c5c5c"/>
    <line x1="673" y1="124" x2="602" y2="124" style="fill: none;stroke: #5c5c5c"/>
    <line x1="673" y1="127" x2="602" y2="127" style="fill: none;stroke: #5c5c5c"/>
    <line x1="673" y1="130" x2="602" y2="130" style="fill: none;stroke: #5c5c5c"/>
    <line x1="673" y1="133" x2="602" y2="133" style="fill: none;stroke: #5c5c5c"/>
    <line x1="673" y1="136" x2="602" y2="136" style="fill: none;stroke: #5c5c5c"/>
    <line x1="673" y1="139" x2="602" y2="139" style="fill: none;stroke: #5c5c5c"/>
    <line x1="673" y1="142" x2="602" y2="142" style="fill: none;stroke: #5c5c5c"/>
    <line x1="673" y1="145" x2="602" y2="145" style="fill: none;stroke: #5c5c5c"/>
    <line x1="673" y1="148" x2="602" y2="148" style="fill: none;stroke: #5c5c5c"/>
    <path d="M475.145,448.352a4.6381,4.6381,0,0,1-.084.93,2.09921,2.09921,0,0,1-.252.696,1.13884,1.13884,0,0,1-.45.432,1.37674,1.37674,0,0,1-.666.15,1.22553,1.22553,0,0,1-.81-.264,1.56757,1.56757,0,0,1-.474-.756,3.99807,3.99807,0,0,1-.156-1.188,4.44807,4.44807,0,0,1,.138-1.188,1.461,1.461,0,0,1,.462-.75,1.27263,1.27263,0,0,1,.84-.264,1.22561,1.22561,0,0,1,.81.264,1.50963,1.50963,0,0,1,.48.75A3.82387,3.82387,0,0,1,475.145,448.352Zm-2.256,0a4.63841,4.63841,0,0,0,.078.93,1.1508,1.1508,0,0,0,.252.558.62959.62959,0,0,0,.474.186.6207.6207,0,0,0,.468-.18,1.11768,1.11768,0,0,0,.258-.558,4.40369,4.40369,0,0,0,.084-.936,4.23135,4.23135,0,0,0-.084-.924,1.11761,1.11761,0,0,0-.258-.558.61015.61015,0,0,0-.468-.186.62959.62959,0,0,0-.474.186,1.15061,1.15061,0,0,0-.252.558,4.546,4.546,0,0,0-.078.924Zm3.098,2.148v-4.284h2.592v.558h-1.944v1.206h.552a2.48238,2.48238,0,0,1,.996.162,1.02468,1.02468,0,0,1,.516.444,1.27006,1.27006,0,0,1,.156.636,1.334,1.334,0,0,1-.168.684,1.05484,1.05484,0,0,1-.516.444,2.41619,2.41619,0,0,1-.93.15Zm1.206-.546a1.2975,1.2975,0,0,0,.762-.174.65955.65955,0,0,0,.234-.558.66989.66989,0,0,0-.114-.414.63974.63974,0,0,0-.354-.216,2.34775,2.34775,0,0,0-.618-.066h-.468v1.428Zm5.118-1.602a4.63883,4.63883,0,0,1-.084.93,2.10009,2.10009,0,0,1-.252.696,1.13887,1.13887,0,0,1-.45.432,1.37636,1.37636,0,0,1-.666.15,1.22555,1.22555,0,0,1-.81-.264,1.56752,1.56752,0,0,1-.474-.756,3.99786,3.99786,0,0,1-.156-1.188,4.44482,4.44482,0,0,1,.138-1.188,1.46115,1.46115,0,0,1,.462-.75,1.27251,1.27251,0,0,1,.84-.264,1.22563,1.22563,0,0,1,.81.264,1.50969,1.50969,0,0,1,.48.75,3.82369,3.82369,0,0,1,.162,1.188Zm-2.256,0a4.63549,4.63549,0,0,0,.078.93,1.15052,1.15052,0,0,0,.252.558.62958.62958,0,0,0,.474.186.62066.62066,0,0,0,.468-.18,1.11754,1.11754,0,0,0,.258-.558,4.4037,4.4037,0,0,0,.084-.936,4.23074,4.23074,0,0,0-.084-.924,1.11743,1.11743,0,0,0-.258-.558.61014.61014,0,0,0-.468-.186.62955.62955,0,0,0-.474.186,1.15053,1.15053,0,0,0-.252.558,4.54361,4.54361,0,0,0-.078.924Zm5.684,2.148h-2.88v-.492l1.104-1.122q.324-.33.54-.57a2.154,2.154,0,0,0,.324-.468,1.13477,1.13477,0,0,0,.108-.492.60767.60767,0,0,0-.192-.492.72865.72865,0,0,0-.498-.168,1.19038,1.19038,0,0,0-.528.114,2.478,2.478,0,0,0-.486.306l-.342-.426a2.755,2.755,0,0,1,.372-.27,1.98041,1.98041,0,0,1,.45-.192,2.004,2.004,0,0,1,.552-.072,1.58164,1.58164,0,0,1,.702.144,1.0136,1.0136,0,0,1,.45.396,1.11572,1.11572,0,0,1,.162.606,1.49159,1.49159,0,0,1-.078.486,1.8374,1.8374,0,0,1-.228.438,3.33581,3.33581,0,0,1-.354.438q-.21.222-.462.468l-.798.774v.03h2.082Z" style="fill: #5c5c5c"/>
    <path d="M555.049,162.352a4.63887,4.63887,0,0,1-.084.93,2.10224,2.10224,0,0,1-.252.696,1.13872,1.13872,0,0,1-.45.432,1.37686,1.37686,0,0,1-.666.15,1.22558,1.22558,0,0,1-.81-.264,1.56758,1.56758,0,0,1-.474-.756,3.99712,3.99712,0,0,1-.156-1.188,4.44687,4.44687,0,0,1,.138-1.188,1.46107,1.46107,0,0,1,.462-.75,1.27249,1.27249,0,0,1,.84-.264,1.22548,1.22548,0,0,1,.81.264,1.50957,1.50957,0,0,1,.48.75A3.824,3.824,0,0,1,555.049,162.352Zm-2.256,0a4.63634,4.63634,0,0,0,.07794.93,1.15091,1.15091,0,0,0,.252.558.6296.6296,0,0,0,.474.186.62081.62081,0,0,0,.468-.18,1.11767,1.11767,0,0,0,.258-.558,4.39929,4.39929,0,0,0,.084-.936,4.23056,4.23056,0,0,0-.084-.924,1.11767,1.11767,0,0,0-.258-.558.6101.6101,0,0,0-.468-.186.62956.62956,0,0,0-.474.186,1.15091,1.15091,0,0,0-.252.558A4.5509,4.5509,0,0,0,552.793,162.352Zm5.767,2.148-.456-1.236h-1.656l-.456,1.236h-.672l1.626-4.302h.672l1.62,4.302Zm-1.068-3.006q-.018-.066-.066-.198l-.084-.276q-.04192-.144-.066-.234-.03.12-.072.264-.036.138-.072.258-.03607.114-.06.186l-.432,1.206h1.284Zm4.916.858a4.63887,4.63887,0,0,1-.084.93,2.09936,2.09936,0,0,1-.252.696,1.13872,1.13872,0,0,1-.45.432,1.37686,1.37686,0,0,1-.666.15,1.22548,1.22548,0,0,1-.81-.264,1.56758,1.56758,0,0,1-.474-.756,3.99712,3.99712,0,0,1-.156-1.188,4.44687,4.44687,0,0,1,.138-1.188,1.46107,1.46107,0,0,1,.462-.75,1.27249,1.27249,0,0,1,.84-.264,1.22548,1.22548,0,0,1,.81.264,1.50944,1.50944,0,0,1,.48.75,3.82221,3.82221,0,0,1,.162,1.188Zm-2.256,0a4.64067,4.64067,0,0,0,.078.93,1.15146,1.15146,0,0,0,.252.558.62968.62968,0,0,0,.474.186.6208.6208,0,0,0,.468-.18,1.11767,1.11767,0,0,0,.258-.558,4.40325,4.40325,0,0,0,.084-.936,4.23426,4.23426,0,0,0-.084-.924,1.11767,1.11767,0,0,0-.258-.558.61015.61015,0,0,0-.468-.186.62961.62961,0,0,0-.474.186,1.15146,1.15146,0,0,0-.252.558,4.55022,4.55022,0,0,0-.07812.924Zm2.822.324a5.54047,5.54047,0,0,1,.048-.732,3.06607,3.06607,0,0,1,.18006-.678,1.86427,1.86427,0,0,1,.36-.57,1.51553,1.51553,0,0,1,.576-.39,2.25975,2.25975,0,0,1,.852-.144q.126,0,.282.012a1.10382,1.10382,0,0,1,.264.036v.534a1.4693,1.4693,0,0,0-.252-.054,1.95018,1.95018,0,0,0-.264-.018,1.61978,1.61978,0,0,0-.684.126,1.05065,1.05065,0,0,0-.426.348,1.51463,1.51463,0,0,0-.228.516,3.32052,3.32052,0,0,0-.09.63h.036a1.13433,1.13433,0,0,1,.222-.258.97327.97327,0,0,1,.324-.18,1.36475,1.36475,0,0,1,.444-.066,1.295,1.295,0,0,1,.648.156,1.0434,1.0434,0,0,1,.432.45,1.50681,1.50681,0,0,1,.156.714,1.6503,1.6503,0,0,1-.174.78,1.17706,1.17706,0,0,1-.48.498,1.60242,1.60242,0,0,1-1.32.06,1.28983,1.28983,0,0,1-.474-.348,1.65427,1.65427,0,0,1-.318-.588,2.76683,2.76683,0,0,1-.11395-.834Zm1.482,1.356a.74414.74414,0,0,0,.558-.222.98987.98987,0,0,0,.216-.702.88591.88591,0,0,0-.192-.6.69415.69415,0,0,0-.564-.222.90272.90272,0,0,0-.45.108.83451.83451,0,0,0-.3.276.6255.6255,0,0,0-.108.342,1.26888,1.26888,0,0,0,.05395.366,1.19267,1.19267,0,0,0,.156.33.839.839,0,0,0,.264.24.76043.76043,0,0,0,.366.084Z" style="fill: #5c5c5c"/>
    <path d="M510.049,162.352a4.63889,4.63889,0,0,1-.084.93,2.10075,2.10075,0,0,1-.252.696,1.13891,1.13891,0,0,1-.45.432,1.37685,1.37685,0,0,1-.666.15,1.22563,1.22563,0,0,1-.81-.264,1.568,1.568,0,0,1-.474-.756,3.99809,3.99809,0,0,1-.156-1.188,4.44561,4.44561,0,0,1,.138-1.188,1.46093,1.46093,0,0,1,.462-.75,1.27252,1.27252,0,0,1,.84-.264,1.22559,1.22559,0,0,1,.81.264,1.50983,1.50983,0,0,1,.48.75A3.82308,3.82308,0,0,1,510.049,162.352Zm-2.256,0a4.63847,4.63847,0,0,0,.078.93,1.15079,1.15079,0,0,0,.252.558.62964.62964,0,0,0,.474.186.62069.62069,0,0,0,.468-.18,1.11742,1.11742,0,0,0,.258-.558,4.40322,4.40322,0,0,0,.084-.936,4.23059,4.23059,0,0,0-.084-.924,1.11742,1.11742,0,0,0-.258-.558.61014.61014,0,0,0-.468-.186.62956.62956,0,0,0-.474.186,1.15051,1.15051,0,0,0-.252.558A4.54667,4.54667,0,0,0,507.793,162.352Zm5.767,2.148-.456-1.236h-1.656l-.456,1.236h-.672l1.626-4.302h.672l1.62,4.302Zm-1.068-3.006q-.018-.066-.066-.198l-.084-.276q-.04192-.144-.066-.234-.03.12-.072.264-.03607.138-.072.258-.03607.114-.06.186l-.432,1.206h1.284Zm4.916.858a4.63887,4.63887,0,0,1-.084.93,2.09958,2.09958,0,0,1-.252.696,1.13872,1.13872,0,0,1-.45.432,1.37686,1.37686,0,0,1-.666.15,1.22548,1.22548,0,0,1-.81-.264,1.56758,1.56758,0,0,1-.474-.756,3.99712,3.99712,0,0,1-.156-1.188,4.44687,4.44687,0,0,1,.138-1.188,1.46107,1.46107,0,0,1,.462-.75,1.27249,1.27249,0,0,1,.84-.264,1.2255,1.2255,0,0,1,.81.264,1.50944,1.50944,0,0,1,.48.75A3.824,3.824,0,0,1,517.408,162.352Zm-2.256,0a4.64067,4.64067,0,0,0,.078.93,1.15146,1.15146,0,0,0,.252.558.62967.62967,0,0,0,.474.186.62081.62081,0,0,0,.468-.18,1.11767,1.11767,0,0,0,.258-.558,4.40325,4.40325,0,0,0,.084-.936,4.23426,4.23426,0,0,0-.084-.924,1.11767,1.11767,0,0,0-.258-.558.61017.61017,0,0,0-.468-.186.6296.6296,0,0,0-.474.186,1.15146,1.15146,0,0,0-.252.558,4.54589,4.54589,0,0,0-.07806.924Zm3.302,2.148,1.71-3.72h-2.25v-.564h2.934v.456l-1.704,3.828Z" style="fill: #5c5c5c"/>
    <path d="M712.934,159.352a4.63887,4.63887,0,0,1-.084.93,2.10091,2.10091,0,0,1-.252.696,1.13872,1.13872,0,0,1-.45.432,1.37686,1.37686,0,0,1-.666.15,1.22548,1.22548,0,0,1-.81-.264,1.56758,1.56758,0,0,1-.474-.756,3.99712,3.99712,0,0,1-.156-1.188,4.44687,4.44687,0,0,1,.138-1.188,1.46107,1.46107,0,0,1,.462-.75,1.27249,1.27249,0,0,1,.84-.264,1.22548,1.22548,0,0,1,.81.264,1.509,1.509,0,0,1,.48.75A3.824,3.824,0,0,1,712.934,159.352Zm-2.256,0a4.64067,4.64067,0,0,0,.078.93,1.15091,1.15091,0,0,0,.252.558.62961.62961,0,0,0,.474.186.6208.6208,0,0,0,.468-.18,1.11767,1.11767,0,0,0,.258-.558,4.40325,4.40325,0,0,0,.084-.936,4.23426,4.23426,0,0,0-.084-.924,1.11767,1.11767,0,0,0-.258-.558.61016.61016,0,0,0-.468-.186.62957.62957,0,0,0-.474.186,1.15091,1.15091,0,0,0-.252.558,4.54589,4.54589,0,0,0-.07806.924Zm5.768,2.148-.456-1.236h-1.656l-.456,1.236h-.672l1.626-4.302h.67206l1.62,4.302Zm-1.068-3.006q-.018-.066-.066-.198l-.084-.276q-.04194-.144-.066-.234-.03.12-.072.264-.036.138-.072.258-.036.114-.06.186l-.432,1.206h1.284Zm4.916.858a4.63888,4.63888,0,0,1-.084.93,2.102,2.102,0,0,1-.252.696,1.13917,1.13917,0,0,1-.45.432,1.37686,1.37686,0,0,1-.666.15,1.22561,1.22561,0,0,1-.81-.264,1.56862,1.56862,0,0,1-.474-.756,3.99711,3.99711,0,0,1-.156-1.188,4.44647,4.44647,0,0,1,.138-1.188,1.46112,1.46112,0,0,1,.462-.75,1.27259,1.27259,0,0,1,.84-.264,1.2255,1.2255,0,0,1,.81.264,1.50957,1.50957,0,0,1,.48.75,3.82577,3.82577,0,0,1,.162,1.188Zm-2.256,0a4.64067,4.64067,0,0,0,.078.93,1.1508,1.1508,0,0,0,.25195.558.62971.62971,0,0,0,.474.186.62081.62081,0,0,0,.468-.18,1.11766,1.11766,0,0,0,.258-.558,4.4,4.4,0,0,0,.084-.936,4.23057,4.23057,0,0,0-.084-.924,1.11766,1.11766,0,0,0-.258-.558.6101.6101,0,0,0-.468-.186.62964.62964,0,0,0-.474.186,1.1508,1.1508,0,0,0-.25195.558,4.54589,4.54589,0,0,0-.07807.924Zm4.219-.51a1.7273,1.7273,0,0,1,.744.15,1.1276,1.1276,0,0,1,.492.432,1.25678,1.25678,0,0,1,.18.69,1.49157,1.49157,0,0,1-.192.774,1.25605,1.25605,0,0,1-.558.498,2.01565,2.01565,0,0,1-.882.174,3.11652,3.11652,0,0,1-.624-.06,1.72793,1.72793,0,0,1-.498-.174v-.582a2.0293,2.0293,0,0,0,.522.204,2.45067,2.45067,0,0,0,.594.078,1.35586,1.35586,0,0,0,.522-.09.74774.74774,0,0,0,.342-.282.85757.85757,0,0,0,.126-.48.72739.72739,0,0,0-.246-.594,1.141,1.141,0,0,0-.762-.21,2.70025,2.70025,0,0,0-.37805.03q-.204.03-.33.06l-.294-.174.162-2.07h2.202v.564h-1.65l-.096,1.122q.102-.018.258-.036a2.441,2.441,0,0,1,.36609-.024Zm3.998-1.626-1.596,4.284h-.606l1.596-4.284Zm3.287,4.284-.456-1.236H727.43l-.456,1.236h-.672l1.626-4.302h.672l1.62,4.302Zm-1.068-3.006q-.01794-.066-.066-.198l-.084-.276q-.04194-.144-.066-.234-.03.12-.072.264-.036.138-.072.258-.036.114-.06.186l-.432,1.206h1.284Z" style="fill: #5c5c5c"/>
    <path d="M756.049,159.352a4.63887,4.63887,0,0,1-.084.93,2.10224,2.10224,0,0,1-.252.696,1.13872,1.13872,0,0,1-.45.432,1.37686,1.37686,0,0,1-.666.15,1.22558,1.22558,0,0,1-.81-.264,1.56758,1.56758,0,0,1-.474-.756,3.99712,3.99712,0,0,1-.156-1.188,4.44687,4.44687,0,0,1,.138-1.188,1.46107,1.46107,0,0,1,.462-.75,1.27249,1.27249,0,0,1,.84-.264,1.22548,1.22548,0,0,1,.81.264,1.50957,1.50957,0,0,1,.48.75A3.824,3.824,0,0,1,756.049,159.352Zm-2.256,0a4.63634,4.63634,0,0,0,.07794.93,1.15091,1.15091,0,0,0,.252.558.6296.6296,0,0,0,.474.186.62081.62081,0,0,0,.468-.18,1.11767,1.11767,0,0,0,.258-.558,4.39929,4.39929,0,0,0,.084-.936,4.23056,4.23056,0,0,0-.084-.924,1.11767,1.11767,0,0,0-.258-.558.6101.6101,0,0,0-.468-.186.62956.62956,0,0,0-.474.186,1.15091,1.15091,0,0,0-.252.558A4.5509,4.5509,0,0,0,753.793,159.352Zm5.767,2.148-.456-1.236h-1.656l-.456,1.236h-.672l1.626-4.302h.672l1.62,4.302Zm-1.068-3.006q-.018-.066-.066-.198l-.084-.276q-.04192-.144-.066-.234-.03.12-.072.264-.036.138-.072.258-.036.114-.06.186l-.432,1.206h1.284Zm4.916.858a4.63887,4.63887,0,0,1-.084.93,2.09936,2.09936,0,0,1-.252.696,1.13872,1.13872,0,0,1-.45.432,1.37686,1.37686,0,0,1-.666.15,1.22548,1.22548,0,0,1-.81-.264,1.56758,1.56758,0,0,1-.474-.756,3.99712,3.99712,0,0,1-.156-1.188,4.44687,4.44687,0,0,1,.138-1.188,1.46107,1.46107,0,0,1,.462-.75,1.27249,1.27249,0,0,1,.84-.264,1.22548,1.22548,0,0,1,.81.264,1.50944,1.50944,0,0,1,.48.75,3.82221,3.82221,0,0,1,.162,1.188Zm-2.256,0a4.64067,4.64067,0,0,0,.078.93,1.15146,1.15146,0,0,0,.252.558.62968.62968,0,0,0,.474.186.6208.6208,0,0,0,.468-.18,1.11767,1.11767,0,0,0,.258-.558,4.40325,4.40325,0,0,0,.084-.936,4.23426,4.23426,0,0,0-.084-.924,1.11767,1.11767,0,0,0-.258-.558.61015.61015,0,0,0-.468-.186.62961.62961,0,0,0-.474.186,1.15146,1.15146,0,0,0-.252.558,4.55022,4.55022,0,0,0-.07812.924Zm4.22-.51a1.72774,1.72774,0,0,1,.744.15,1.12731,1.12731,0,0,1,.49194.432,1.25614,1.25614,0,0,1,.18.69,1.49157,1.49157,0,0,1-.192.774,1.25608,1.25608,0,0,1-.558.498,2.01586,2.01586,0,0,1-.882.174,3.11792,3.11792,0,0,1-.624-.06,1.72782,1.72782,0,0,1-.498-.174v-.582a2.02845,2.02845,0,0,0,.522.204,2.45021,2.45021,0,0,0,.594.078,1.35591,1.35591,0,0,0,.522-.09.74768.74768,0,0,0,.342-.282.85655.85655,0,0,0,.126-.48.72739.72739,0,0,0-.246-.594,1.141,1.141,0,0,0-.762-.21,2.6994,2.6994,0,0,0-.378.03q-.20408.03-.33.06l-.294-.174.162-2.07h2.202v.564h-1.65l-.096,1.122q.102-.018.258-.036a2.44124,2.44124,0,0,1,.36615-.024Z" style="fill: #5c5c5c"/>
    <path d="M793.049,159.352a4.63887,4.63887,0,0,1-.084.93,2.10224,2.10224,0,0,1-.252.696,1.13872,1.13872,0,0,1-.45.432,1.37686,1.37686,0,0,1-.666.15,1.22558,1.22558,0,0,1-.81-.264,1.56758,1.56758,0,0,1-.474-.756,3.99712,3.99712,0,0,1-.156-1.188,4.44687,4.44687,0,0,1,.138-1.188,1.46107,1.46107,0,0,1,.462-.75,1.27249,1.27249,0,0,1,.84-.264,1.22548,1.22548,0,0,1,.81.264,1.50957,1.50957,0,0,1,.48.75A3.824,3.824,0,0,1,793.049,159.352Zm-2.256,0a4.63634,4.63634,0,0,0,.07794.93,1.15091,1.15091,0,0,0,.252.558.6296.6296,0,0,0,.474.186.62081.62081,0,0,0,.468-.18,1.11767,1.11767,0,0,0,.258-.558,4.39929,4.39929,0,0,0,.084-.936,4.23056,4.23056,0,0,0-.084-.924,1.11767,1.11767,0,0,0-.258-.558.6101.6101,0,0,0-.468-.186.62956.62956,0,0,0-.474.186,1.15091,1.15091,0,0,0-.252.558A4.5509,4.5509,0,0,0,790.793,159.352Zm5.767,2.148-.456-1.236h-1.656l-.456,1.236h-.672l1.626-4.302h.672l1.62,4.302Zm-1.068-3.006q-.018-.066-.066-.198l-.084-.276q-.04192-.144-.066-.234-.03.12-.072.264-.036.138-.072.258-.036.114-.06.186l-.432,1.206h1.284Zm4.916.858a4.63887,4.63887,0,0,1-.084.93,2.09936,2.09936,0,0,1-.252.696,1.13872,1.13872,0,0,1-.45.432,1.37686,1.37686,0,0,1-.666.15,1.22548,1.22548,0,0,1-.81-.264,1.56758,1.56758,0,0,1-.474-.756,3.99712,3.99712,0,0,1-.156-1.188,4.44687,4.44687,0,0,1,.138-1.188,1.46107,1.46107,0,0,1,.462-.75,1.27249,1.27249,0,0,1,.84-.264,1.22548,1.22548,0,0,1,.81.264,1.50944,1.50944,0,0,1,.48.75,3.82221,3.82221,0,0,1,.162,1.188Zm-2.256,0a4.64067,4.64067,0,0,0,.078.93,1.15146,1.15146,0,0,0,.252.558.62968.62968,0,0,0,.474.186.6208.6208,0,0,0,.468-.18,1.11767,1.11767,0,0,0,.258-.558,4.40325,4.40325,0,0,0,.084-.936,4.23426,4.23426,0,0,0-.084-.924,1.11767,1.11767,0,0,0-.258-.558.61015.61015,0,0,0-.468-.186.62961.62961,0,0,0-.474.186,1.15146,1.15146,0,0,0-.252.558,4.55022,4.55022,0,0,0-.07812.924Zm5.846,1.2h-.594v.948h-.618v-.948H800.8v-.504l1.974-2.85h.63v2.814h.594Zm-1.212-1.704v-.276q.006-.132.012-.252.006-.126.006-.228.00587-.108.012-.192h-.024a1.97958,1.97958,0,0,1-.12.246,1.63634,1.63634,0,0,1-.138.222l-1.134,1.644h1.386Z" style="fill: #5c5c5c"/>
    <path d="M824.049,159.352a4.63887,4.63887,0,0,1-.084.93,2.10224,2.10224,0,0,1-.252.696,1.13872,1.13872,0,0,1-.45.432,1.37686,1.37686,0,0,1-.666.15,1.22558,1.22558,0,0,1-.81-.264,1.56758,1.56758,0,0,1-.474-.756,3.99712,3.99712,0,0,1-.156-1.188,4.44687,4.44687,0,0,1,.138-1.188,1.46107,1.46107,0,0,1,.462-.75,1.27249,1.27249,0,0,1,.84-.264,1.22548,1.22548,0,0,1,.81.264,1.50957,1.50957,0,0,1,.48.75A3.824,3.824,0,0,1,824.049,159.352Zm-2.256,0a4.63634,4.63634,0,0,0,.07794.93,1.15091,1.15091,0,0,0,.252.558.6296.6296,0,0,0,.474.186.62081.62081,0,0,0,.468-.18,1.11767,1.11767,0,0,0,.258-.558,4.39929,4.39929,0,0,0,.084-.936,4.23056,4.23056,0,0,0-.084-.924,1.11767,1.11767,0,0,0-.258-.558.6101.6101,0,0,0-.468-.186.62956.62956,0,0,0-.474.186,1.15091,1.15091,0,0,0-.252.558A4.5509,4.5509,0,0,0,821.793,159.352Zm5.767,2.148-.456-1.236h-1.656l-.456,1.236h-.672l1.626-4.302h.672l1.62,4.302Zm-1.068-3.006q-.018-.066-.066-.198l-.084-.276q-.04192-.144-.066-.234-.03.12-.072.264-.036.138-.072.258-.036.114-.06.186l-.432,1.206h1.284Zm4.916.858a4.63887,4.63887,0,0,1-.084.93,2.09936,2.09936,0,0,1-.252.696,1.13872,1.13872,0,0,1-.45.432,1.37686,1.37686,0,0,1-.666.15,1.22548,1.22548,0,0,1-.81-.264,1.56758,1.56758,0,0,1-.474-.756,3.99712,3.99712,0,0,1-.156-1.188,4.44687,4.44687,0,0,1,.138-1.188,1.46107,1.46107,0,0,1,.462-.75,1.27249,1.27249,0,0,1,.84-.264,1.22548,1.22548,0,0,1,.81.264,1.50944,1.50944,0,0,1,.48.75,3.82221,3.82221,0,0,1,.162,1.188Zm-2.256,0a4.64067,4.64067,0,0,0,.078.93,1.15146,1.15146,0,0,0,.252.558.62968.62968,0,0,0,.474.186.6208.6208,0,0,0,.468-.18,1.11767,1.11767,0,0,0,.258-.558,4.40325,4.40325,0,0,0,.084-.936,4.23426,4.23426,0,0,0-.084-.924,1.11767,1.11767,0,0,0-.258-.558.61015.61015,0,0,0-.468-.186.62961.62961,0,0,0-.474.186,1.15146,1.15146,0,0,0-.252.558,4.55022,4.55022,0,0,0-.07812.924Zm5.516-1.146a1.06492,1.06492,0,0,1-.114.504.88356.88356,0,0,1-.312.342,1.44148,1.44148,0,0,1-.468.192v.024a1.22092,1.22092,0,0,1,.768.324.92459.92459,0,0,1,.258.684,1.25018,1.25018,0,0,1-.18.666,1.17919,1.17919,0,0,1-.546.456,2.34352,2.34352,0,0,1-.942.162,3.52344,3.52344,0,0,1-.636-.054,2.22136,2.22136,0,0,1-.558-.18v-.576a2.538,2.538,0,0,0,.576.21,2.6442,2.6442,0,0,0,.594.072,1.21041,1.21041,0,0,0,.786-.204.7327.7327,0,0,0,.24-.582.58575.58575,0,0,0-.126-.39.727.727,0,0,0-.384-.228,2.25138,2.25138,0,0,0-.642-.078h-.39v-.522h.396a1.64226,1.64226,0,0,0,.594-.09.7122.7122,0,0,0,.33606-.264.6947.6947,0,0,0,.108-.384.53948.53948,0,0,0-.192-.444.79905.79905,0,0,0-.54-.162,1.54528,1.54528,0,0,0-.732.174,3.14667,3.14667,0,0,0-.294.174l-.312-.438a2.62238,2.62238,0,0,1,.36-.222,1.926,1.926,0,0,1,.45-.156,2.35432,2.35432,0,0,1,.546-.06,1.50836,1.50836,0,0,1,1.008.294.93358.93358,0,0,1,.3479.756Z" style="fill: #5c5c5c"/>
    <path d="M852.049,159.352a4.63887,4.63887,0,0,1-.084.93,2.10224,2.10224,0,0,1-.252.696,1.13872,1.13872,0,0,1-.45.432,1.37686,1.37686,0,0,1-.666.15,1.22558,1.22558,0,0,1-.81-.264,1.56758,1.56758,0,0,1-.474-.756,3.99712,3.99712,0,0,1-.156-1.188,4.44687,4.44687,0,0,1,.138-1.188,1.46107,1.46107,0,0,1,.462-.75,1.27249,1.27249,0,0,1,.84-.264,1.22548,1.22548,0,0,1,.81.264,1.50957,1.50957,0,0,1,.48.75A3.824,3.824,0,0,1,852.049,159.352Zm-2.256,0a4.63634,4.63634,0,0,0,.07794.93,1.15091,1.15091,0,0,0,.252.558.6296.6296,0,0,0,.474.186.62081.62081,0,0,0,.468-.18,1.11767,1.11767,0,0,0,.258-.558,4.39929,4.39929,0,0,0,.084-.936,4.23056,4.23056,0,0,0-.084-.924,1.11767,1.11767,0,0,0-.258-.558.6101.6101,0,0,0-.468-.186.62956.62956,0,0,0-.474.186,1.15091,1.15091,0,0,0-.252.558A4.5509,4.5509,0,0,0,849.793,159.352Zm5.767,2.148-.456-1.236h-1.656l-.456,1.236h-.672l1.626-4.302h.672l1.62,4.302Zm-1.068-3.006q-.018-.066-.066-.198l-.084-.276q-.04192-.144-.066-.234-.03.12-.072.264-.036.138-.072.258-.036.114-.06.186l-.432,1.206h1.284Zm4.916.858a4.63887,4.63887,0,0,1-.084.93,2.09936,2.09936,0,0,1-.252.696,1.13872,1.13872,0,0,1-.45.432,1.37686,1.37686,0,0,1-.666.15,1.22548,1.22548,0,0,1-.81-.264,1.56758,1.56758,0,0,1-.474-.756,3.99712,3.99712,0,0,1-.156-1.188,4.44687,4.44687,0,0,1,.138-1.188,1.46107,1.46107,0,0,1,.462-.75,1.27249,1.27249,0,0,1,.84-.264,1.22548,1.22548,0,0,1,.81.264,1.50944,1.50944,0,0,1,.48.75,3.82221,3.82221,0,0,1,.162,1.188Zm-2.256,0a4.64067,4.64067,0,0,0,.078.93,1.15146,1.15146,0,0,0,.252.558.62968.62968,0,0,0,.474.186.6208.6208,0,0,0,.468-.18,1.11767,1.11767,0,0,0,.258-.558,4.40325,4.40325,0,0,0,.084-.936,4.23426,4.23426,0,0,0-.084-.924,1.11767,1.11767,0,0,0-.258-.558.61015.61015,0,0,0-.468-.186.62961.62961,0,0,0-.474.186,1.15146,1.15146,0,0,0-.252.558,4.55022,4.55022,0,0,0-.07812.924Zm5.684,2.148h-2.88v-.492l1.104-1.122q.324-.33.54-.57a2.15281,2.15281,0,0,0,.324-.468,1.13535,1.13535,0,0,0,.108-.492.60775.60775,0,0,0-.192-.492.729.729,0,0,0-.498-.168,1.18946,1.18946,0,0,0-.528.114,2.47681,2.47681,0,0,0-.486.306l-.342-.426a2.759,2.759,0,0,1,.37195-.27,1.98226,1.98226,0,0,1,.45-.192,2.00324,2.00324,0,0,1,.552-.072,1.58115,1.58115,0,0,1,.702.144,1.01328,1.01328,0,0,1,.45.396,1.1157,1.1157,0,0,1,.162.606,1.4914,1.4914,0,0,1-.078.486,1.83424,1.83424,0,0,1-.228.438,3.33354,3.33354,0,0,1-.354.438q-.20994.222-.462.468l-.798.774v.03h2.082Z" style="fill: #5c5c5c"/>
    <path d="M927.049,209.352a4.63887,4.63887,0,0,1-.084.93,2.10224,2.10224,0,0,1-.252.696,1.13872,1.13872,0,0,1-.45.432,1.37686,1.37686,0,0,1-.666.15,1.22558,1.22558,0,0,1-.81-.264,1.56758,1.56758,0,0,1-.474-.756,3.99712,3.99712,0,0,1-.156-1.188,4.44687,4.44687,0,0,1,.138-1.188,1.46107,1.46107,0,0,1,.462-.75,1.27249,1.27249,0,0,1,.84-.264,1.22548,1.22548,0,0,1,.81.264,1.50957,1.50957,0,0,1,.48.75A3.824,3.824,0,0,1,927.049,209.352Zm-2.256,0a4.63634,4.63634,0,0,0,.07794.93,1.15091,1.15091,0,0,0,.252.558.6296.6296,0,0,0,.474.186.62081.62081,0,0,0,.468-.18,1.11767,1.11767,0,0,0,.258-.558,4.39929,4.39929,0,0,0,.084-.936,4.23056,4.23056,0,0,0-.084-.924,1.11767,1.11767,0,0,0-.258-.558.6101.6101,0,0,0-.468-.186.62956.62956,0,0,0-.474.186,1.15091,1.15091,0,0,0-.252.558A4.5509,4.5509,0,0,0,924.793,209.352Zm5.767,2.148-.456-1.236h-1.656l-.456,1.236h-.672l1.626-4.302h.672l1.62,4.302Zm-1.068-3.006q-.018-.066-.066-.198l-.084-.276q-.04192-.144-.066-.234-.03.12-.072.264-.036.138-.072.258-.036.114-.06.186l-.432,1.206h1.284Zm4.916.858a4.63887,4.63887,0,0,1-.084.93,2.09936,2.09936,0,0,1-.252.696,1.13872,1.13872,0,0,1-.45.432,1.37686,1.37686,0,0,1-.666.15,1.22548,1.22548,0,0,1-.81-.264,1.56758,1.56758,0,0,1-.474-.756,3.99712,3.99712,0,0,1-.156-1.188,4.44687,4.44687,0,0,1,.138-1.188,1.46107,1.46107,0,0,1,.462-.75,1.27249,1.27249,0,0,1,.84-.264,1.22548,1.22548,0,0,1,.81.264,1.50944,1.50944,0,0,1,.48.75,3.82221,3.82221,0,0,1,.162,1.188Zm-2.256,0a4.64067,4.64067,0,0,0,.078.93,1.15146,1.15146,0,0,0,.252.558.62968.62968,0,0,0,.474.186.6208.6208,0,0,0,.468-.18,1.11767,1.11767,0,0,0,.258-.558,4.40325,4.40325,0,0,0,.084-.936,4.23426,4.23426,0,0,0-.084-.924,1.11767,1.11767,0,0,0-.258-.558.61015.61015,0,0,0-.468-.186.62961.62961,0,0,0-.474.186,1.15146,1.15146,0,0,0-.252.558,4.55022,4.55022,0,0,0-.07812.924Zm4.76,2.148h-.63v-3.12q.006-.132.012-.252.006-.126.012-.24-.078.078-.162.15t-.192.168l-.468.378-.324-.408,1.224-.96h.528Z" style="fill: #5c5c5c"/>
    <path d="M459.492,205.5v-4.284h3.264V205.5h-.642v-3.726H460.14V205.5Zm6.824,0h-2.412v-4.284h2.412v.552h-1.764v1.224h1.656v.546h-1.656v1.404h1.764Zm2.128-4.284a1.81154,1.81154,0,0,1,1.224.342,1.18534,1.18534,0,0,1,.384.942,1.49009,1.49009,0,0,1-.09.516,1.14914,1.14914,0,0,1-.282.444,1.405,1.405,0,0,1-.528.306,2.54923,2.54923,0,0,1-.798.108h-.462V205.5h-.648v-4.284Zm-.048.546h-.504v1.566h.39a2.0522,2.0522,0,0,0,.612-.078.70216.70216,0,0,0,.366-.258.79914.79914,0,0,0,.126-.468.67605.67605,0,0,0-.24-.57,1.17957,1.17957,0,0,0-.75-.192Zm4.934,3.738h-2.412v-4.284h2.412v.552h-1.764v1.224h1.656v.546h-1.656v1.404h1.764Zm4.162,0h-.762l-1.824-2.172V205.5h-.648v-4.284h.648v2.076l1.788-2.076h.714l-1.77,2.076Zm1.768-4.284a1.81154,1.81154,0,0,1,1.224.342,1.18547,1.18547,0,0,1,.384.942,1.48977,1.48977,0,0,1-.09.516,1.14985,1.14985,0,0,1-.282.444,1.4047,1.4047,0,0,1-.528.306,2.54835,2.54835,0,0,1-.798.108h-.462V205.5h-.648v-4.284Zm-.048.546h-.504v1.566h.39a2.05188,2.05188,0,0,0,.612-.078.70222.70222,0,0,0,.366-.258.79894.79894,0,0,0,.126-.468.676.676,0,0,0-.24-.57,1.17956,1.17956,0,0,0-.75-.192Zm4.934,3.738h-2.412v-4.284h2.412v.552h-1.764v1.224h1.656v.546h-1.656v1.404h1.764Zm2.758-3.786a1.36834,1.36834,0,0,0-.57.114,1.14084,1.14084,0,0,0-.432.324,1.573,1.573,0,0,0-.27.522,2.44479,2.44479,0,0,0-.09.69,2.3352,2.3352,0,0,0,.15.876,1.19931,1.19931,0,0,0,.45.564,1.34521,1.34521,0,0,0,.756.198,2.81776,2.81776,0,0,0,.528-.048,5.30711,5.30711,0,0,0,.522-.138v.558a2.58816,2.58816,0,0,1-.516.138,3.454,3.454,0,0,1-.612.048,2.04629,2.04629,0,0,1-1.092-.27,1.656,1.656,0,0,1-.648-.768,2.90618,2.90618,0,0,1-.216-1.164,2.83323,2.83323,0,0,1,.132-.888,2.04225,2.04225,0,0,1,.396-.702,1.69042,1.69042,0,0,1,.636-.45,2.2527,2.2527,0,0,1,.882-.162,2.81789,2.81789,0,0,1,.636.072,2.33874,2.33874,0,0,1,.564.192l-.24.54a3.37621,3.37621,0,0,0-.456-.168,1.6401,1.6401,0,0,0-.51-.078Zm3.407,3.786h-.648v-3.726h-1.284v-.558h3.216v.558h-1.284Zm5.603-2.148a3.06187,3.06187,0,0,1-.126.906,1.88,1.88,0,0,1-.372.696,1.58788,1.58788,0,0,1-.624.45,2.2374,2.2374,0,0,1-.87.156,2.31779,2.31779,0,0,1-.888-.156,1.73774,1.73774,0,0,1-.624-.45,1.9241,1.9241,0,0,1-.366-.702,3.20315,3.20315,0,0,1-.12-.906,2.84607,2.84607,0,0,1,.216-1.152,1.67353,1.67353,0,0,1,.66-.768,2.12359,2.12359,0,0,1,1.128-.276,2.02365,2.02365,0,0,1,1.098.276,1.66886,1.66886,0,0,1,.666.768,2.79459,2.79459,0,0,1,.222,1.158Zm-3.306,0a2.55616,2.55616,0,0,0,.138.888,1.17814,1.17814,0,0,0,.432.57,1.30411,1.30411,0,0,0,.744.198,1.28649,1.28649,0,0,0,.744-.198,1.19226,1.19226,0,0,0,.426-.57,2.55767,2.55767,0,0,0,.138-.888,2.03009,2.03009,0,0,0-.312-1.206,1.12227,1.12227,0,0,0-.99-.438,1.31555,1.31555,0,0,0-.75.198,1.14411,1.14411,0,0,0-.432.564,2.50484,2.50484,0,0,0-.13794.882Zm7.471,2.148h-.762l-1.824-2.172V205.5h-.648v-4.284h.648v2.076l1.788-2.076h.714l-1.77,2.076Z" style="fill: #5c5c5c"/>
    <path d="M502.684,121.216a3.45588,3.45588,0,0,1,.912.102,1.01961,1.01961,0,0,1,.558.342.95336.95336,0,0,1,.192.624,1.076,1.076,0,0,1-.09.45.86045.86045,0,0,1-.264.324.94822.94822,0,0,1-.42.168v.03a1.39986,1.39986,0,0,1,.462.156.799.799,0,0,1,.324.318,1.0933,1.0933,0,0,1,.12.546,1.16363,1.16363,0,0,1-.186.666,1.13662,1.13662,0,0,1-.522.414,2.03406,2.03406,0,0,1-.804.144H501.43v-4.284Zm.108,1.788a1.08092,1.08092,0,0,0,.69-.162.59277.59277,0,0,0,.192-.48.4971.4971,0,0,0-.228-.462,1.454,1.454,0,0,0-.726-.138h-.642v1.242Zm-.714.528v1.428h.786a1.01617,1.01617,0,0,0,.726-.204.72989.72989,0,0,0,.204-.54.70762.70762,0,0,0-.09-.36.57684.57684,0,0,0-.306-.24,1.59366,1.59366,0,0,0-.576-.084Zm5.96,1.968-.456-1.236h-1.656l-.456,1.236h-.672l1.626-4.302h.672l1.62,4.302Zm-1.068-3.006q-.018-.066-.066-.198l-.084-.276q-.042-.144-.066-.234-.03.12-.072.264-.036.138-.072.258-.036.114-.06.186l-.432,1.206h1.284Zm3.524-1.278a1.81165,1.81165,0,0,1,1.224.342,1.18549,1.18549,0,0,1,.384.942,1.49064,1.49064,0,0,1-.09.516,1.14893,1.14893,0,0,1-.282.444,1.40388,1.40388,0,0,1-.528.306,2.54855,2.54855,0,0,1-.798.108h-.462V125.5h-.648v-4.284Zm-.048.546h-.504v1.566h.39a2.0522,2.0522,0,0,0,.612-.078.70218.70218,0,0,0,.366-.258.79891.79891,0,0,0,.126-.468.67606.67606,0,0,0-.24-.57,1.17932,1.17932,0,0,0-.75-.192Zm5.188-.546v3.72h.552v1.728h-.624V125.5h-2.868v1.164h-.618v-1.728h.33q.198-.36.384-.792a8.86629,8.86629,0,0,0,.33-.918q.144-.486.24-.99a8.94664,8.94664,0,0,0,.144-1.02Zm-1.584.564a6.0946,6.0946,0,0,1-.12.756q-.09009.408-.222.84-.126.432-.288.84a6.103,6.103,0,0,1-.33.72h1.902V121.78h-.942Zm5.249,3.72h-2.412v-4.284h2.412v.552h-1.764v1.224h1.656v.546h-1.656v1.404h1.764Zm4.162,0h-.762l-1.824-2.172V125.5h-.648v-4.284h.648v2.076l1.788-2.076h.714l-1.77,2.076Zm2.282-3.786a1.36841,1.36841,0,0,0-.57.114,1.14079,1.14079,0,0,0-.43194.324,1.57207,1.57207,0,0,0-.27.522,2.44477,2.44477,0,0,0-.09.69,2.33451,2.33451,0,0,0,.15.876,1.19924,1.19924,0,0,0,.45.564,1.34519,1.34519,0,0,0,.756.198,2.81714,2.81714,0,0,0,.528-.048,5.30654,5.30654,0,0,0,.522-.138v.558a2.58748,2.58748,0,0,1-.516.138,3.45568,3.45568,0,0,1-.612.048,2.04629,2.04629,0,0,1-1.092-.27,1.65574,1.65574,0,0,1-.648-.768,2.90621,2.90621,0,0,1-.216-1.164,2.8323,2.8323,0,0,1,.132-.888,2.04233,2.04233,0,0,1,.396-.702,1.69018,1.69018,0,0,1,.636-.45,2.25239,2.25239,0,0,1,.882-.162,2.81941,2.81941,0,0,1,.636.072,2.33789,2.33789,0,0,1,.564.192l-.24.54a3.3795,3.3795,0,0,0-.456-.168,1.63965,1.63965,0,0,0-.51007-.078Z" style="fill: #5c5c5c"/>
    <path d="M544.322,121.156v.528a2.38457,2.38457,0,0,1,1.104.234,1.287,1.287,0,0,1,.582.576,1.75728,1.75728,0,0,1,.174.786,1.904,1.904,0,0,1-.09.57,1.37118,1.37118,0,0,1-.306.516,1.59459,1.59459,0,0,1-.57.378,2.54313,2.54313,0,0,1-.894.156v.66h-.618v-.66a2.6156,2.6156,0,0,1-.906-.156,1.431,1.431,0,0,1-.86395-.906,1.94674,1.94674,0,0,1-.084-.558,1.851,1.851,0,0,1,.096-.6,1.33155,1.33155,0,0,1,.312-.504,1.52221,1.52221,0,0,1,.57-.354,2.64729,2.64729,0,0,1,.876-.138v-.528Zm-.618,1.056a1.74772,1.74772,0,0,0-.72.156.79728.79728,0,0,0-.384.366,1.19489,1.19489,0,0,0-.114.54,1.24776,1.24776,0,0,0,.126.576.9222.9222,0,0,0,.402.378,1.74528,1.74528,0,0,0,.69.15Zm.618,2.166a1.67213,1.67213,0,0,0,.702-.156.87732.87732,0,0,0,.396-.384,1.21934,1.21934,0,0,0,.126-.564,1.23274,1.23274,0,0,0-.114-.546.79666.79666,0,0,0-.384-.366,1.80643,1.80643,0,0,0-.726-.15Zm6.511-1.026a3.059,3.059,0,0,1-.126.906,1.88042,1.88042,0,0,1-.372.696,1.58774,1.58774,0,0,1-.624.45,2.23778,2.23778,0,0,1-.87.156,2.31739,2.31739,0,0,1-.888-.156,1.73857,1.73857,0,0,1-.624-.45,1.92587,1.92587,0,0,1-.366-.702,3.20521,3.20521,0,0,1-.12-.906,2.84511,2.84511,0,0,1,.216-1.152,1.67338,1.67338,0,0,1,.66-.768,2.12337,2.12337,0,0,1,1.128-.276,2.02372,2.02372,0,0,1,1.098.276,1.66888,1.66888,0,0,1,.666.768A2.79634,2.79634,0,0,1,550.833,123.352Zm-3.306,0a2.55643,2.55643,0,0,0,.138.888,1.1785,1.1785,0,0,0,.432.57,1.30448,1.30448,0,0,0,.744.198,1.28669,1.28669,0,0,0,.744-.198,1.19246,1.19246,0,0,0,.426-.57,2.55546,2.55546,0,0,0,.138-.888,2.02986,2.02986,0,0,0-.312-1.206,1.12225,1.12225,0,0,0-.99-.438,1.316,1.316,0,0,0-.75.198,1.14421,1.14421,0,0,0-.432.564A2.50579,2.50579,0,0,0,547.527,123.352Zm5.437-2.136a1.81154,1.81154,0,0,1,1.224.342,1.18545,1.18545,0,0,1,.384.942,1.4905,1.4905,0,0,1-.09.516,1.14886,1.14886,0,0,1-.282.444,1.40446,1.40446,0,0,1-.528.306,2.54858,2.54858,0,0,1-.798.108h-.462V125.5h-.648v-4.284Zm-.048.546h-.504v1.566h.39a2.05209,2.05209,0,0,0,.612-.078.70217.70217,0,0,0,.366-.258.79937.79937,0,0,0,.126-.468.6762.6762,0,0,0-.24-.57A1.17948,1.17948,0,0,0,552.916,121.762Zm4.893,3.738-.456-1.236h-1.656l-.456,1.236H554.569l1.626-4.302h.672l1.62,4.302Zm-1.068-3.006q-.018-.066-.066-.198l-.084-.276q-.042-.144-.066-.234-.03.12-.072.264-.03606.138-.072.258-.03607.114-.06.186l-.432,1.206h1.284Zm2.324,3.006v-4.284h2.592v.558h-1.944v1.206h.552a2.48189,2.48189,0,0,1,.996.162,1.02426,1.02426,0,0,1,.516.444,1.27046,1.27046,0,0,1,.156.636,1.33385,1.33385,0,0,1-.168.684,1.0551,1.0551,0,0,1-.516.444,2.41648,2.41648,0,0,1-.93.15Zm1.206-.546a1.29761,1.29761,0,0,0,.762-.174.65946.65946,0,0,0,.234-.558.67021.67021,0,0,0-.114-.414.63988.63988,0,0,0-.354-.216,2.34692,2.34692,0,0,0-.618-.066h-.468v1.428Zm5.197.546-.456-1.236h-1.656L562.9,125.5h-.672l1.626-4.302h.672l1.62,4.302Zm-1.068-3.006q-.018-.066-.066-.198l-.084-.276q-.04192-.144-.066-.234-.03.12-.072.264-.036.138-.072.258-.036.114-.06.186l-.432,1.206h1.284Zm5.665,3.006h-.648v-1.956h-2.046V125.5h-.648v-4.284h.648v1.776h2.046v-1.776h.648Zm4.381,0h-.762l-1.824-2.172V125.5h-.648v-4.284h.648v2.076l1.788-2.076h.714l-1.77,2.076Z" style="fill: #5c5c5c"/>
    <path d="M916.544,121.216a3.45534,3.45534,0,0,1,.912.102,1.01963,1.01963,0,0,1,.558.342.95278.95278,0,0,1,.192.624,1.0763,1.0763,0,0,1-.09.45.86019.86019,0,0,1-.264.324.94824.94824,0,0,1-.42.168v.03a1.39987,1.39987,0,0,1,.462.156.79879.79879,0,0,1,.324.318,1.09353,1.09353,0,0,1,.12.546,1.16329,1.16329,0,0,1-.186.666,1.13676,1.13676,0,0,1-.522.414,2.03419,2.03419,0,0,1-.804.144H915.29v-4.284Zm.108,1.788a1.08081,1.08081,0,0,0,.69-.162.59276.59276,0,0,0,.192-.48.497.497,0,0,0-.228-.462,1.45419,1.45419,0,0,0-.726-.138h-.642v1.242Zm-.714.528v1.428h.786a1.01618,1.01618,0,0,0,.726-.204.73.73,0,0,0,.204-.54.70712.70712,0,0,0-.09-.36.577.577,0,0,0-.306-.24,1.59342,1.59342,0,0,0-.576-.084Zm6.523,1.968h-.762l-1.824-2.172V125.5h-.648v-4.284h.648v2.076l1.788-2.076h.714l-1.77,2.076Zm2.459-1.23a5.027,5.027,0,0,1-.38995.714,1.25184,1.25184,0,0,1-.474.432,1.54173,1.54173,0,0,1-.714.144,2.21169,2.21169,0,0,1-.324-.024,1.908,1.908,0,0,1-.288-.066v-.606a1.39451,1.39451,0,0,0,.276.084,1.52687,1.52687,0,0,0,.3.03.94021.94021,0,0,0,.36-.06.68863.68863,0,0,0,.258-.198,1.56526,1.56526,0,0,0,.198-.348l-1.596-3.156h.702l1.074,2.208a.562.562,0,0,1,.054.12q.02994.066.06.138a.83224.83224,0,0,1,.05395.132h.024a.931.931,0,0,0,.048-.12q.024-.072.054-.144t.054-.126l.948-2.208h.678Zm3.69605-2.556a1.36807,1.36807,0,0,0-.57.114,1.14128,1.14128,0,0,0-.432.324,1.57264,1.57264,0,0,0-.27.522,2.44519,2.44519,0,0,0-.09.69,2.336,2.336,0,0,0,.15.876,1.19946,1.19946,0,0,0,.45.564,1.34529,1.34529,0,0,0,.756.198,2.818,2.818,0,0,0,.528-.048,5.30356,5.30356,0,0,0,.522-.138v.558a2.58663,2.58663,0,0,1-.516.138,3.45467,3.45467,0,0,1-.612.048,2.04632,2.04632,0,0,1-1.092-.27,1.65581,1.65581,0,0,1-.648-.768,2.9062,2.9062,0,0,1-.216-1.164,2.83235,2.83235,0,0,1,.132-.888,2.04217,2.04217,0,0,1,.396-.702,1.69042,1.69042,0,0,1,.636-.45,2.25235,2.25235,0,0,1,.882-.162,2.81883,2.81883,0,0,1,.636.072,2.33957,2.33957,0,0,1,.564.192l-.24.54a3.37621,3.37621,0,0,0-.456-.168A1.63936,1.63936,0,0,0,928.616,121.714Zm3.221-.498a3.45576,3.45576,0,0,1,.912.102,1.01974,1.01974,0,0,1,.558.342.95354.95354,0,0,1,.192.624,1.0763,1.0763,0,0,1-.09.45.86083.86083,0,0,1-.264.324.94824.94824,0,0,1-.42.168v.03a1.4,1.4,0,0,1,.462.156.79873.79873,0,0,1,.324.318,1.09286,1.09286,0,0,1,.12.546,1.16379,1.16379,0,0,1-.186.666,1.13676,1.13676,0,0,1-.522.414,2.0339,2.0339,0,0,1-.80395.144h-1.536v-4.284Zm.108,1.788a1.08094,1.08094,0,0,0,.69-.162.59276.59276,0,0,0,.192-.48.4971.4971,0,0,0-.228-.462,1.454,1.454,0,0,0-.726-.138h-.642v1.242Zm-.714.528v1.428h.786a1.016,1.016,0,0,0,.726-.204.72967.72967,0,0,0,.204-.54.70722.70722,0,0,0-.09-.36.57684.57684,0,0,0-.306-.24,1.594,1.594,0,0,0-.57605-.084Zm3.295-2.316h.594v2.268q-.00011.15-.006.33,0,.18-.006.354-.006.174-.01794.312-.006.132-.012.198h.024l2.244-3.462h.744V125.5H937.496v-2.25q-.00009-.162.006-.348.006-.192.012-.372.012-.18.018-.312.006-.138.012-.198h-.024l-2.25,3.48h-.744Zm7.873,4.284h-.648v-3.726h-1.266q-.04194.312-.09.666-.042.348-.09.696t-.096.66q-.048.306-.096.54a3.31326,3.31326,0,0,1-.198.666.99243.99243,0,0,1-.318.42.86727.86727,0,0,1-.522.144.99263.99263,0,0,1-.216-.024,1.14706,1.14706,0,0,1-.186-.048v-.534q.07206.024.15.048a.82922.82922,0,0,0,.174.018.31357.31357,0,0,0,.264-.126,1.00978,1.00978,0,0,0,.156-.336q.06006-.21.108-.462.02994-.168.078-.45.048-.282.102-.666.06-.384.12-.834.066-.45.12-.936h2.454Zm4.313,0h-.648v-3.726h-1.266q-.04192.312-.09.666-.042.348-.09.696t-.096.66q-.048.306-.096.54a3.31316,3.31316,0,0,1-.198.666.99311.99311,0,0,1-.31806.42.86729.86729,0,0,1-.522.144.99263.99263,0,0,1-.216-.024,1.14577,1.14577,0,0,1-.186-.048v-.534q.07206.024.15.048a.82922.82922,0,0,0,.174.018.31351.31351,0,0,0,.264-.126,1.00951,1.00951,0,0,0,.156-.336q.06006-.21.108-.462.02994-.168.078-.45.048-.282.102-.666.06-.384.12-.834.066-.45.12-.936h2.454Z" style="fill: #5c5c5c"/>
    <path d="M645.595,96.4948h-1.137l-4.724-12.06689h-.004l-3.181,6.82439-3.174-6.82439h-.004L628.639,96.4948h-1.137V97.5h6.515V96.4948h-1.293l1.507-3.8287L636.549,97.5l2.325-4.8339,1.499,3.8287H639.08V97.5H645.595Z" style="fill: #e52d2c"/>
    <path d="M654.069,95.5v-.539h.341a1.24543,1.24543,0,0,0,.341-.044.45666.45666,0,0,0,.253-.187.84031.84031,0,0,0,.099-.451V88.878a.80562.80562,0,0,0-.099-.451.44455.44455,0,0,0-.253-.198,1.245,1.245,0,0,0-.341-.044h-.341v-.539h2.915l2.002,5.687,1.936-5.687h2.86v.539h-.341a1.10333,1.10333,0,0,0-.352.055.44133.44133,0,0,0-.253.198,1.01013,1.01013,0,0,0-.088.484v5.302a1.05006,1.05006,0,0,0,.088.484.49588.49588,0,0,0,.253.209,1.36188,1.36188,0,0,0,.352.044h.341V95.5h-3.3v-.539h.088a1.42984,1.42984,0,0,0,.385-.044.42408.42408,0,0,0,.253-.176.81359.81359,0,0,0,.088-.418V88.636L658.964,95.5h-.693l-2.409-6.853v5.577a.95437.95437,0,0,0,.099.484.48881.48881,0,0,0,.275.209,1.877,1.877,0,0,0,.429.044h.055V95.5H654.069Zm10.09,0v-.539h.165a.84125.84125,0,0,0,.35206-.066.6807.6807,0,0,0,.264-.242,2.64141,2.64141,0,0,0,.253-.517l2.409-6.49h1.254l2.376,6.6a1.74259,1.74259,0,0,0,.209.44.71981.71981,0,0,0,.264.22,1.00325,1.00325,0,0,0,.341.055h.176V95.5h-3.399v-.539h.363a.629.629,0,0,0,.374-.11.39231.39231,0,0,0,.165-.352.58426.58426,0,0,0-.022-.154.92137.92137,0,0,0-.033-.154.48189.48189,0,0,0-.044-.143l-.396-1.155h-2.761l-.352,1.034q-.033.088-.066.187c-.015.066-.03.132-.044.198a1.46245,1.46245,0,0,0-.011.176.42113.42113,0,0,0,.165.363.73784.73784,0,0,0,.418.11h.374V95.5H664.159Zm2.53-3.223h2.321l-.616-1.859q-.08844-.275-.187-.572-.08844-.297-.176-.583c-.052-.1907-.099-.3703-.143-.539-.03.1173-.066.242-.11.374q-.05547.198-.121.407-.05547.209-.132.429c-.044.13931-.092.2787-.143.418Zm5.889,3.223v-.539h.341a1.28659,1.28659,0,0,0,.352-.044.45116.45116,0,0,0,.242-.209.95437.95437,0,0,0,.099-.484V88.878a.80562.80562,0,0,0-.099-.451.44447.44447,0,0,0-.253-.198,1.24574,1.24574,0,0,0-.341-.044h-.341v-.539h3.267a3.20774,3.20774,0,0,1,2.178.627,2.12037,2.12037,0,0,1,.715,1.694,2.58531,2.58531,0,0,1-.176.946,2.19083,2.19083,0,0,1-.539.803,2.57669,2.57669,0,0,1-.968.561,4.6303,4.6303,0,0,1-1.452.198h-.495v1.804a.84035.84035,0,0,0,.099.451.45356.45356,0,0,0,.25305.187,1.36064,1.36064,0,0,0,.352.044h.55V95.5Zm2.915-3.619a2.46988,2.46988,0,0,0,.74805-.099,1.21391,1.21391,0,0,0,.517-.33,1.31886,1.31886,0,0,0,.286-.572,3.76775,3.76775,0,0,0,.088-.869,2.89525,2.89525,0,0,0-.143-.99,1.05514,1.05514,0,0,0-.473-.572,1.61661,1.61661,0,0,0-.858-.198h-.55v3.63Zm3.96,3.619v-.539h.341a1.06167,1.06167,0,0,0,.374-.055.44879.44879,0,0,0,.231-.231.97451.97451,0,0,0,.088-.451V88.922a.89143.89143,0,0,0-.099-.473.45116.45116,0,0,0-.242-.209,1.04317,1.04317,0,0,0-.352-.055h-.341v-.539h3.784v.539h-.55a.9444.9444,0,0,0-.374.066.45538.45538,0,0,0-.242.198.80349.80349,0,0,0-.088.418v2.244h.69306a4.34746,4.34746,0,0,1,1.694.275,1.9403,1.9403,0,0,1,.946.77,2.18,2.18,0,0,1,.297,1.144,2.12531,2.12531,0,0,1-.319,1.155,2.011,2.011,0,0,1-.946.77,4.05825,4.05825,0,0,1-1.617.275Zm3.146-.605a1.75674,1.75674,0,0,0,.825-.165.98791.98791,0,0,0,.44-.517,2.27218,2.27218,0,0,0,.143-.869,2.33684,2.33684,0,0,0-.165-.957.99974.99974,0,0,0-.495-.528,1.98383,1.98383,0,0,0-.88-.165h-.484v3.201h.616Zm3.729.605v-.539h.341a1.24536,1.24536,0,0,0,.341-.044.44642.44642,0,0,0,.253-.209.95437.95437,0,0,0,.099-.484V88.878a.80562.80562,0,0,0-.099-.451.44447.44447,0,0,0-.253-.198,1.24574,1.24574,0,0,0-.341-.044h-.341v-.539h3.564v.539h-.341a1.10438,1.10438,0,0,0-.35206.055.44149.44149,0,0,0-.253.198,1.01086,1.01086,0,0,0-.088.484v4.059l3.179-3.85v-.209a.91813.91813,0,0,0-.099-.484.40315.40315,0,0,0-.242-.198,1.04317,1.04317,0,0,0-.352-.055h-.341v-.539h3.564v.539h-.341a1.104,1.104,0,0,0-.352.055.44145.44145,0,0,0-.253.198,1.01088,1.01088,0,0,0-.088.484v5.357a.8391.8391,0,0,0,.099.451.45307.45307,0,0,0,.253.187,1.315,1.315,0,0,0,.341.044h.341V95.5h-3.564v-.539h.341a1.28649,1.28649,0,0,0,.352-.044.45085.45085,0,0,0,.242-.209.95372.95372,0,0,0,.099-.484V90.011l-3.179,3.85v.363a1.05073,1.05073,0,0,0,.088.484.496.496,0,0,0,.253.209,1.362,1.362,0,0,0,.35206.044h.341V95.5Zm8.948,0v-.539h.341a1.24543,1.24543,0,0,0,.341-.044.44642.44642,0,0,0,.253-.209.95437.95437,0,0,0,.099-.484V88.878a.80562.80562,0,0,0-.099-.451.44447.44447,0,0,0-.253-.198,1.24581,1.24581,0,0,0-.341-.044h-.341v-.539h3.564v.539h-.341a1.10426,1.10426,0,0,0-.352.055.44149.44149,0,0,0-.253.198,1.01088,1.01088,0,0,0-.088.484v2.167h3.135V88.922a.91811.91811,0,0,0-.099-.484.403.403,0,0,0-.242-.198,1.04367,1.04367,0,0,0-.352-.055h-.341v-.539h3.564v.539h-.341a1.06759,1.06759,0,0,0-.341.055.39961.39961,0,0,0-.253.198,1.0101,1.0101,0,0,0-.088.484v5.357a.92149.92149,0,0,0,.088.451.45313.45313,0,0,0,.253.187,1.31586,1.31586,0,0,0,.341.044h.341V95.5h-3.564v-.539h.341a1.28659,1.28659,0,0,0,.352-.044.45066.45066,0,0,0,.242-.209.95372.95372,0,0,0,.099-.484V91.716h-3.135v2.508a1.0515,1.0515,0,0,0,.088.484.496.496,0,0,0,.253.209,1.36193,1.36193,0,0,0,.352.044h.341V95.5Zm12.777.11a3.7343,3.7343,0,0,1-2.024-.506,3.15182,3.15182,0,0,1-1.21-1.419,5.32806,5.32806,0,0,1-.396-2.134,5.24787,5.24787,0,0,1,.396-2.123,3.09521,3.09521,0,0,1,1.21-1.397,3.79089,3.79089,0,0,1,2.035-.506,3.62044,3.62044,0,0,1,1.969.506,3.13742,3.13742,0,0,1,1.221,1.408,5.00259,5.00259,0,0,1,.418,2.123,5.07737,5.07737,0,0,1-.418,2.134,3.19553,3.19553,0,0,1-1.23206,1.408,3.62007,3.62007,0,0,1-1.969.506Zm0-.671a1.81782,1.81782,0,0,0,.935-.22,1.67291,1.67291,0,0,0,.616-.66,3.41539,3.41539,0,0,0,.352-1.067,9.27843,9.27843,0,0,0,0-2.849,3.49462,3.49462,0,0,0-.341-1.056,1.58123,1.58123,0,0,0-.616-.66,1.78348,1.78348,0,0,0-.935-.231,1.84753,1.84753,0,0,0-.946.231,1.66324,1.66324,0,0,0-.627.66,3.52078,3.52078,0,0,0-.341,1.056,9.27468,9.27468,0,0,0,0,2.849,3.668,3.668,0,0,0,.341,1.067,1.76567,1.76567,0,0,0,.627.66A1.89614,1.89614,0,0,0,708.053,94.939Z" style="fill: #5c5c5c"/>
  </g>
  <g id="points-logo">
    <rect id="l-0a07" x="498.46201" y="134.56383" width="30.50607" height="13.88298" style="fill: none"/>
    <rect id="l-0a06" x="543.2339" y="134.56383" width="30.50607" height="13.88298" style="fill: none"/>
    <rect id="l-0b02" x="388.5" y="314.5" width="210.13831" height="22.34357" style="fill: none"/>
    <rect id="l-0a01" x="904.95746" y="163.50999" width="51.98938" height="7.24532" style="fill: none"/>
  </g>
  <g id="interactive">
    <rect id="s-0a07" x="493.5" y="117" width="40" height="53" style="fill: none;stroke: #d9d9d9"/>
    <rect id="s-0a05-a" x="702.5" y="117" width="34" height="50" style="fill: none;stroke: #d9d9d9"/>
    <rect id="s-0a06" x="537.5" y="117" width="41" height="53" style="fill: none;stroke: #d9d9d9"/>
    <rect id="s-0a05" x="740.5" y="117" width="38" height="50" style="fill: none;stroke: #d9d9d9"/>
    <rect id="s-0a04" x="782.5" y="117" width="28" height="50" style="fill: none;stroke: #d9d9d9"/>
    <rect id="s-0a03" x="813.5" y="117" width="28" height="50" style="fill: none;stroke: #d9d9d9"/>
    <rect id="s-0a02" x="845.5" y="117" width="21" height="50" style="fill: none;stroke: #d9d9d9"/>
    <path id="s-0a01" d="M884.5,167v-.5H870V117H972v99.5H884.5Z" style="fill: none;stroke: #d9d9d9"/>
    <path id="s-0b02" d="M834.5,405.5v.5h75v49H339V196H627V309.5h63V271H834.5Z" style="fill: none;stroke: #d9d9d9"/>
    <g id="stair-1">
      <circle cx="902.5" cy="256" r="11.5" style="fill: #6391cc"/>
      <path d="M903.385,251.786h4.479v1.92h-2.559v2.56h-2.56v2.559h-2.559v2.56h-4.48v-1.92h2.56v-2.56h2.56v-2.559h2.559Zm-3.091.423-3.525,3.525-1.171-1.171,3.525-3.525-1.177-1.171h3.519v3.519Z" style="fill: #fff"/>
      <path d="M904.562,259.791l3.525-3.526,1.171,1.171-3.525,3.526,1.177,1.171h-3.519v-3.519Z" style="fill: #fff"/>
    </g>
    <g id="elevator-1">
      <circle cx="951.5" cy="315" r="11.5" style="fill: #6391cc"/>
      <path d="M946.988,308.601a1.71053,1.71053,0,1,1-.501,1.209A1.7105,1.7105,0,0,1,946.988,308.601Zm9.23,1.819,2.949,3.931h-5.898Zm-6.802,4.484.955,6.111a.76672.76672,0,1,1-1.515.237l-.658-4.211-.658,4.211a.76672.76672,0,1,1-1.515-.237l.955-6.111-.927,1.854a.76675.76675,0,0,1-1.372-.685l1.468-2.937a2.42472,2.42472,0,0,1,2.049-1.262,2.32748,2.32748,0,0,1,1.191.359,2.29331,2.29331,0,0,1,.857.904l1.468,2.936a.76628.76628,0,1,1-1.36914.68863l-.00183-.00363Zm3.853,1.688h5.898l-2.949,3.932Z" style="fill: #fff;fill-rule: evenodd"/>
    </g>
    <g id="escalator-1">
      <circle cx="648.5" cy="266" r="11.5" style="fill: #6391cc"/>
      <path d="M654.138,262.806h-.731l-8.359,8.359h-2.055a1.393,1.393,0,0,1,0-2.786h.899l1.191-1.191v-2.989a.6978.6978,0,0,1,.696-.696h.697a.69864.69864,0,0,1,.697.696v.899l5.078-5.078h1.887a1.393,1.393,0,1,1,0,2.786Zm-8.01-2.089a1.0445,1.0445,0,1,1-1.045,1.044h0a1.043,1.043,0,0,1,1.042-1.044Z" style="fill: #fff"/>
    </g>
    <g id="stair-2">
      <circle cx="612.5" cy="470" r="11.5" style="fill: #6391cc"/>
      <path d="M613.385,465.786h4.479v1.92h-2.559v2.56h-2.56v2.559h-2.559v2.56h-4.48v-1.92h2.56v-2.56h2.56v-2.559h2.559Zm-3.091.423-3.525,3.525-1.171-1.171,3.525-3.525-1.177-1.171h3.519v3.519Z" style="fill: #fff"/>
      <path d="M614.562,473.791l3.525-3.526,1.171,1.171-3.525,3.526,1.177,1.171h-3.519v-3.519Z" style="fill: #fff"/>
    </g>
  </g>
</svg>
