<?xml version="1.0" encoding="UTF-8"?>
<svg xmlns="http://www.w3.org/2000/svg" viewBox="0 0 1200 600">
  <g id="background">
    <rect x=".5" y=".5" width="1199" height="599" style="fill: #fff; stroke: #d9d9d9;"/>
    <path d="m981,109H241v69.5c-4,1-14.60001,5.3-25,14.5s-15,22.5-16,28v240h70.5v16h50v13.5h17v-29.5h243v26.5h59.5v-26.5h341V109Z" style="fill: #f8f8f8; stroke: #5c5c5c; stroke-width: 2px;"/>
    <path d="m239.49899,461.664v-212c-.166-7.83301.50101-22.5,15.50201-31,12.61499-7.14799,24.00299-5.5,28.50101-5.5" style="fill: none; stroke: #5c5c5c; stroke-width: 2px;"/>
    <path d="m288,385v-213.5h-40.5v-54.5h242v54.5h-154.5v213.5h-47Z" style="fill: #efeded; stroke-width: 0px;"/>
    <rect x="288.5" y="388" width="47" height="26" style="fill: #efeded; stroke-width: 0px;"/>
    <rect x="288.5" y="417" width="47" height="39" style="fill: #efeded; stroke-width: 0px;"/>
    <rect x="630.5" y="218" width="37" height="89" style="fill: #efeded; stroke-width: 0px;"/>
    <path d="m283.49799,456.68701v-238.50002c-6,0-16.49799-1.5-26.5,4-10.82098,5.95-13.33398,17.83301-12.99998,23.5v211.00002h39.49998Z" style="fill: #efeded; stroke-width: 0px;"/>
    <rect x="882.5" y="226" width="92" height="63" style="fill: #efeded; stroke-width: 0px;"/>
    <rect x="882.5" y="344" width="92" height="48" style="fill: #efeded; stroke-width: 0px;"/>
    <rect x="914.5" y="407" width="60" height="49" style="fill: #efeded; stroke-width: 0px;"/>
    <rect x="929.5" y="292" width="45" height="48" style="fill: #efeded; stroke-width: 0px;"/>
    <rect x="494" y="117.5" width="40" height="53" style="fill: #fff; stroke: #d9d9d9;"/>
    <rect x="703" y="117.5" width="34" height="50" style="fill: #fff; stroke: #d9d9d9;"/>
    <rect x="538" y="117.5" width="41" height="53" style="fill: #fff; stroke: #d9d9d9;"/>
    <rect x="741" y="117.5" width="38" height="50" style="fill: #fff; stroke: #d9d9d9;"/>
    <rect x="783" y="117.5" width="28" height="50" style="fill: #fff; stroke: #d9d9d9;"/>
    <rect x="814" y="117.5" width="28" height="50" style="fill: #fff; stroke: #d9d9d9;"/>
    <rect x="846" y="117.5" width="21" height="50" style="fill: #fff; stroke: #d9d9d9;"/>
    <path d="m885,167.5v-.5h-14.5v-49.5h102v99.5h-87.5v-49.5Z" style="fill: #fff; stroke: #d9d9d9;"/>
    <path d="m835,406v.5h75v49H339.5V196.5h288v113.5h63v-38.5h144.5v134.5Z" style="fill: #fff; stroke: #d9d9d9;"/>
    <path d="m590.5,195h-58v3h58v-3Z" style="fill: #d9d9d9; stroke-width: 0px;"/>
    <path d="m788.5,270h-58v3h58v-3Z" style="fill: #d9d9d9; stroke-width: 0px;"/>
    <circle cx="649" cy="266.5" r="11.5" style="fill: #6391cc; stroke-width: 0px;"/>
    <path d="m654.638,263.306h-.73102l-8.35901,8.35901h-2.05499c-.36896,0-.724-.147-.98499-.40802-.26099-.26099-.40802-.616-.40802-.98499,0-.37.14703-.724.40802-.98502.26099-.26099.61603-.40799.98499-.40799h.89905l1.19098-1.19101v-2.98898c0-.383.31299-.69601.69598-.69601h.69702c.383,0,.69696.31302.69696.69601v.89899l5.078-5.078h1.88702c.77301,0,1.39301.62003,1.39301,1.39301s-.62,1.39301-1.39301,1.39301Zm-8.01001-2.08899c.578,0,1.04498.466,1.04498,1.04398,0,.57901-.46698,1.04501-1.04498,1.04501s-1.04498-.466-1.04498-1.04501c0-.57797.46698-1.04398,1.04498-1.04398Z" style="fill: #fff; stroke-width: 0px;"/>
    <circle cx="613" cy="470.5" r="11.5" style="fill: #6391cc; stroke-width: 0px;"/>
    <path d="m613.88501,466.28601h4.479v1.91998h-2.55902v2.56h-2.56v2.55902h-2.55902v2.56h-4.47998v-1.92001h2.56v-2.56h2.56v-2.55899h2.55902v-2.56Zm-3.091.423l-3.52502,3.52499-1.17096-1.17102,3.52496-3.52499-1.177-1.17099h3.51904v3.51898l-1.17102-1.17697Z" style="fill: #fff; stroke-width: 0px;"/>
    <path d="m615.06201,474.29099l3.52496-3.52597,1.17102,1.17099-3.52502,3.526,1.177,1.17099h-3.51898v-3.51898l1.17102,1.17697Z" style="fill: #fff; stroke-width: 0px;"/>
    <circle cx="952" cy="315.5" r="11.5" style="fill: #6391cc; stroke-width: 0px;"/>
    <path d="m947.48798,309.10101c.32104-.32101.75604-.50101,1.21002-.50101.453,0,.888.17999,1.20898.50101.32104.32098.50104.75598.50104,1.20898,0,.45401-.17999.88901-.50104,1.20999-.32098.32001-.75598.50101-1.20898.50101-.45398,0-.88898-.181-1.21002-.50101-.31995-.32098-.50098-.75598-.50098-1.20999,0-.453.18103-.888.50098-1.20898Zm9.23004,1.819l2.94897,3.931h-5.89801l2.94904-3.931Zm-6.802,4.48398l.95496,6.11102c.065.418-.22095.81-.63995.87598-.41803.065-.81-.22098-.875-.63898l-.65802-4.21103-.65802,4.21103c-.06598.418-.45801.70398-.87598.63898-.41803-.06598-.70502-.45798-.63898-.87598l.95496-6.11102-.927,1.854c-.19.379-.64996.53201-1.02899.34302-.37897-.18903-.53198-.65002-.34296-1.02802l1.46796-2.93701c.19403-.38699.51703-.694.85504-.90198.33899-.20901.75897-.36002,1.19397-.36002.43298,0,.85303.15201,1.19098.35901.33801.20801.664.51498.85699.90399l1.46802,2.936c.19.37799.03601.83899-.34302,1.02802-.37799.189-.83899.03598-1.02795-.34302l-.927-1.854Zm3.85297,1.68802h5.89801l-2.94897,3.93198-2.94904-3.93198Z" style="fill: #fff; fill-rule: evenodd; stroke-width: 0px;"/>
    <circle cx="903" cy="256.5" r="11.5" style="fill: #6391cc; stroke-width: 0px;"/>
    <path d="m903.88501,252.286h4.479v1.92h-2.55902v2.56h-2.56v2.55902h-2.55902v2.56h-4.47998v-1.92001h2.56v-2.56h2.56v-2.55901h2.55902v-2.56Zm-3.091.423l-3.52502,3.52501-1.17096-1.17101,3.52496-3.52501-1.177-1.17099h3.51904v3.519l-1.17102-1.177Z" style="fill: #fff; stroke-width: 0px;"/>
    <path d="m905.06201,260.29099l3.52496-3.52597,1.17102,1.17099-3.52502,3.526,1.177,1.17099h-3.51898v-3.51898l1.17102,1.17697Z" style="fill: #fff; stroke-width: 0px;"/>
    <line x1="603" y1="116" x2="603" y2="151" style="fill: none; stroke: #5c5c5c;"/>
    <line x1="674" y1="116" x2="674" y2="151" style="fill: none; stroke: #5c5c5c;"/>
    <line x1="673.5" y1="121.5" x2="602.5" y2="121.5" style="fill: none; stroke: #5c5c5c;"/>
    <line x1="673.5" y1="118.5" x2="602.5" y2="118.5" style="fill: none; stroke: #5c5c5c;"/>
    <line x1="673.5" y1="124.5" x2="602.5" y2="124.5" style="fill: none; stroke: #5c5c5c;"/>
    <line x1="673.5" y1="127.5" x2="602.5" y2="127.5" style="fill: none; stroke: #5c5c5c;"/>
    <line x1="673.5" y1="130.5" x2="602.5" y2="130.5" style="fill: none; stroke: #5c5c5c;"/>
    <line x1="673.5" y1="133.5" x2="602.5" y2="133.5" style="fill: none; stroke: #5c5c5c;"/>
    <line x1="673.5" y1="136.5" x2="602.5" y2="136.5" style="fill: none; stroke: #5c5c5c;"/>
    <line x1="673.5" y1="139.5" x2="602.5" y2="139.5" style="fill: none; stroke: #5c5c5c;"/>
    <line x1="673.5" y1="142.5" x2="602.5" y2="142.5" style="fill: none; stroke: #5c5c5c;"/>
    <line x1="673.5" y1="145.5" x2="602.5" y2="145.5" style="fill: none; stroke: #5c5c5c;"/>
    <line x1="673.5" y1="148.5" x2="602.5" y2="148.5" style="fill: none; stroke: #5c5c5c;"/>
    <path d="m475.64499,448.85199c0,.34802-.02798.65802-.08398.93002-.052.27197-.13602.504-.25201.69598-.112.18799-.26199.332-.44998.43201-.18402.10001-.40601.14999-.66602.14999-.328,0-.59799-.08801-.81-.26401s-.37-.42798-.474-.75598c-.104-.332-.15601-.728-.15601-1.18802,0-.46399.04602-.85999.138-1.18799.09601-.328.25-.578.46201-.75.21201-.17599.492-.26401.84-.26401.328,0,.59799.08801.81.26401.216.172.37601.422.48001.75.108.328.16199.724.16199,1.18799Zm-2.25598,0c0,.37201.026.68201.078.93002.052.24799.13599.43399.25198.55798.12.12399.27802.186.474.186.19601,0,.35202-.06.46802-.17999.12-.12402.20599-.31.258-.55801.056-.25198.08398-.564.08398-.936,0-.37198-.02798-.67999-.08398-.92398-.052-.24802-.138-.43402-.258-.55801-.116-.12399-.272-.186-.46802-.186-.19598,0-.354.06201-.474.186-.116.12399-.19998.31-.25198.55801-.052.24399-.078.552-.078.92398Zm3.09799,2.14801v-4.284h2.59201v.55798h-1.944v1.20602h.552c.42398,0,.75598.05399.996.16199.24399.108.41599.25601.51599.444.104.18399.15601.396.15601.63599,0,.26401-.056.492-.168.68402-.108.19199-.28.34-.51602.444-.23599.10001-.54599.14999-.92999.14999h-1.254Zm1.20599-.54599c.35202,0,.60602-.05801.76199-.17401.15601-.12.23401-.306.23401-.55801,0-.17599-.03799-.314-.11398-.41397-.07602-.10001-.194-.17203-.354-.216-.15601-.04401-.362-.06601-.61801-.06601h-.46799v1.42801h.55798Zm5.11801-1.60202c0,.34802-.02802.65802-.08401.93002-.052.27197-.13599.504-.25198.69598-.112.18799-.26199.332-.45001.43201-.18399.10001-.40601.14999-.66599.14999-.328,0-.59802-.08801-.81-.26401-.21201-.17599-.37003-.42798-.474-.75598-.104-.332-.15601-.728-.15601-1.18802,0-.46399.04599-.85999.138-1.18799.09601-.328.25-.578.46201-.75.21198-.17599.49197-.26401.84-.26401.328,0,.59799.08801.81.26401.216.172.37601.422.47998.75.108.328.16202.724.16202,1.18799Zm-2.25601,0c0,.37201.026.68201.078.93002.052.24799.13602.43399.25201.55798.12.12399.27798.186.474.186.19598,0,.35199-.06.46799-.17999.12-.12402.20599-.31.258-.55801.056-.25198.08401-.564.08401-.936,0-.37198-.02802-.67999-.08401-.92398-.052-.24802-.138-.43402-.258-.55801-.116-.12399-.272-.186-.46799-.186-.19601,0-.354.06201-.474.186-.116.12399-.20001.31-.25201.55801-.052.24399-.078.552-.078.92398Zm5.68402,2.14801h-2.88v-.492l1.104-1.12201c.21597-.22.396-.40997.53998-.56998.14401-.164.25201-.32001.32401-.46802.07199-.15198.108-.31598.108-.492,0-.22-.064-.384-.19199-.49197-.12802-.112-.29401-.168-.49802-.168-.19598,0-.37201.03799-.52798.11398-.15601.07199-.31802.17401-.48602.306l-.34198-.42599c.116-.10001.23999-.19.37198-.26999.13602-.08002.28601-.14401.45001-.19202.168-.048.35199-.07199.552-.07199.272,0,.50601.048.702.14398.19601.09201.34601.224.45001.39603.108.172.16199.37399.16199.60599,0,.172-.026.33398-.078.48599-.052.14801-.12799.29401-.228.43802-.09601.14398-.21399.28998-.354.43799-.13998.14801-.29401.30399-.46201.46799l-.79797.77402v.03h2.082v.564Z" style="fill: #5c5c5c; stroke-width: 0px;"/>
    <path d="m555.54901,162.85201c0,.34799-.02802.65799-.08398.92999-.052.272-.13605.504-.25201.696-.112.188-.26202.332-.45001.43201-.18402.09999-.40601.14999-.66602.14999-.328,0-.59796-.088-.81-.26399-.21198-.17601-.37-.42801-.474-.75601-.104-.332-.15601-.728-.15601-1.18799,0-.464.04602-.86.138-1.188.09601-.328.25-.578.46204-.75.21198-.17599.492-.26401.83997-.26401.328,0,.59802.08801.81.26401.216.172.37604.422.48004.75.10797.328.16199.724.16199,1.188Zm-2.25598,0c0,.37199.02594.68199.07794.92999s.13605.43401.25201.558c.12.12401.27802.186.474.186.19604,0,.35199-.06.46802-.18001.12-.12399.20599-.31.258-.558.05603-.252.08398-.564.08398-.93599s-.02795-.68001-.08398-.92401c-.052-.248-.138-.43399-.258-.558-.11603-.12399-.27197-.18599-.46802-.18599-.19598,0-.354.062-.474.18599-.11597.12401-.20001.31-.25201.558-.052.244-.07794.552-.07794.92401Zm5.76697,2.14799l-.45599-1.23599h-1.65601l-.45599,1.23599h-.672l1.62598-4.302h.672l1.62,4.302h-.67798Zm-1.06799-3.006c-.01202-.04401-.034-.11-.06598-.198-.02802-.09201-.05603-.18401-.08405-.276-.02795-.09601-.04999-.17401-.06598-.23401-.02002.08-.04401.168-.07202.26401-.02399.092-.04797.17799-.07196.258-.02405.076-.04401.138-.06.186l-.43201,1.20599h1.284l-.43201-1.20599Zm4.91602.858c0,.34799-.02802.65799-.08405.92999-.052.272-.13599.504-.25195.696-.112.188-.26202.332-.45001.43201-.18402.09999-.40601.14999-.66602.14999-.328,0-.59802-.088-.81-.26399-.21198-.17601-.37-.42801-.474-.75601-.104-.332-.15601-.728-.15601-1.18799,0-.464.04602-.86.138-1.188.09601-.328.25-.578.46204-.75.21198-.17599.49194-.26401.83997-.26401.328,0,.59802.08801.81.26401.216.172.37604.422.47998.75.10803.328.16205.724.16205,1.188Zm-2.25604,0c0,.37199.026.68199.078.92999s.13605.43401.25201.558c.12.12401.27802.186.474.186s.35199-.06.46802-.18001c.12-.12399.20599-.31.258-.558.05597-.252.08398-.564.08398-.93599s-.02802-.68001-.08398-.92401c-.052-.248-.138-.43399-.258-.558-.11603-.12399-.27203-.18599-.46802-.18599s-.354.062-.474.18599c-.11597.12401-.20001.31-.25201.558-.052.244-.078.552-.078.92401Zm2.82202.32399c0-.248.01599-.49199.04797-.73199.03601-.24001.09601-.466.18005-.67799.08795-.216.20795-.40601.35999-.57001.15198-.168.34399-.298.57599-.39.23602-.09599.52002-.144.85199-.144.08398,0,.17804.004.28198.01199.10803.004.19604.01601.26404.03601v.534c-.07599-.024-.16003-.04201-.25201-.054-.08801-.01201-.17603-.01801-.26398-.01801-.276,0-.50403.04201-.68402.12601s-.32202.2-.42603.34799c-.10394.14801-.17999.32001-.22797.51601-.04803.192-.078.40199-.09003.63h.03601c.06-.09601.13403-.18201.22198-.25801.08801-.076.19604-.136.32404-.17999.12799-.04401.276-.06601.44397-.06601.24805,0,.46399.052.64801.15601.18799.104.33203.254.43201.45.104.196.15601.43401.15601.714,0,.3-.05798.56-.17401.78-.112.216-.27197.382-.47998.498-.20404.116-.45001.174-.73804.174-.20795,0-.40198-.03799-.58197-.114s-.33801-.192-.474-.34799c-.13599-.15601-.242-.35201-.31799-.58801-.07599-.23999-.11401-.51799-.11401-.834Zm1.48199,1.356c.22803,0,.414-.07401.55798-.222.14404-.15199.216-.386.216-.702,0-.252-.06396-.452-.19196-.60001-.12402-.14799-.31201-.222-.56403-.222-.172,0-.32202.03601-.45001.108-.12799.07201-.22797.164-.29999.276s-.10797.226-.10797.342c0,.12401.01794.246.05396.36601.03601.12.08801.23.15601.32999.07202.10001.16003.18001.26404.24001.10394.056.22595.084.36597.084Z" style="fill: #5c5c5c; stroke-width: 0px;"/>
    <path d="m510.54901,162.85201c0,.34799-.02802.65799-.08401.92999-.052.272-.13599.504-.25198.696-.112.188-.26202.332-.45001.43201-.18399.09999-.40601.14999-.66602.14999-.32797,0-.59799-.088-.81-.26399-.21198-.17601-.37-.42801-.474-.75601-.10397-.332-.15598-.728-.15598-1.18799,0-.464.04599-.86.138-1.188.09598-.328.25-.578.46198-.75.21201-.17599.492-.26401.84-.26401.328,0,.59802.08801.81003.26401.21597.172.37598.422.47998.75.108.328.16202.724.16202,1.188Zm-2.25601,0c0,.37199.026.68199.078.92999s.13599.43401.25198.558c.12003.12401.27802.186.474.186.19601,0,.35202-.06.46802-.18001.12-.12399.20599-.31.258-.558.056-.252.08401-.564.08401-.93599s-.02802-.68001-.08401-.92401c-.052-.248-.138-.43399-.258-.558-.116-.12399-.272-.18599-.46802-.18599-.19598,0-.35397.062-.474.18599-.116.12401-.19998.31-.25198.558-.052.244-.078.552-.078.92401Zm5.767,2.14799l-.45599-1.23599h-1.65601l-.45599,1.23599h-.672l1.62598-4.302h.672l1.62,4.302h-.67798Zm-1.06799-3.006c-.01202-.04401-.034-.11-.06598-.198-.02802-.09201-.05603-.18401-.08405-.276-.02795-.09601-.04999-.17401-.06598-.23401-.02002.08-.04401.168-.07202.26401-.02399.092-.04797.17799-.07196.258-.02405.076-.04401.138-.06.186l-.43201,1.20599h1.284l-.43201-1.20599Zm4.91602.858c0,.34799-.02802.65799-.08405.92999-.052.272-.13599.504-.25195.696-.112.188-.26202.332-.45001.43201-.18402.09999-.40601.14999-.66602.14999-.328,0-.59802-.088-.81-.26399-.21198-.17601-.37-.42801-.474-.75601-.104-.332-.15601-.728-.15601-1.18799,0-.464.04602-.86.138-1.188.09601-.328.25-.578.46204-.75.21198-.17599.49194-.26401.83997-.26401.328,0,.59802.08801.81.26401.216.172.37604.422.47998.75.10803.328.16205.724.16205,1.188Zm-2.25604,0c0,.37199.026.68199.078.92999s.13605.43401.25201.558c.12.12401.27802.186.474.186s.35199-.06.46802-.18001c.12-.12399.20599-.31.258-.558.05597-.252.08398-.564.08398-.93599s-.02802-.68001-.08398-.92401c-.052-.248-.138-.43399-.258-.558-.11603-.12399-.27203-.18599-.46802-.18599s-.354.062-.474.18599c-.11597.12401-.20001.31-.25201.558-.052.244-.078.552-.078.92401Zm3.302,2.14799l1.71002-3.72h-2.25v-.564h2.93402v.45599l-1.70404,3.828h-.69Z" style="fill: #5c5c5c; stroke-width: 0px;"/>
    <path d="m713.43402,159.85201c0,.34799-.02802.65799-.08405.92999-.052.272-.13599.504-.25195.696-.112.188-.26202.332-.45001.43201-.18402.09999-.40601.14999-.66602.14999-.328,0-.59802-.088-.81-.26399-.21198-.17601-.37-.42801-.474-.75601-.104-.332-.15601-.728-.15601-1.18799,0-.464.04602-.86.138-1.188.09601-.328.25-.578.46204-.75.21198-.17599.49194-.26401.83997-.26401.328,0,.59802.08801.81.26401.216.172.37604.422.47998.75.10803.328.16205.724.16205,1.188Zm-2.25604,0c0,.37199.026.68199.078.92999s.13605.43401.25201.558c.12.12401.27802.186.474.186s.35199-.06.46802-.18001c.12-.12399.20599-.31.258-.558.05597-.252.08398-.564.08398-.93599s-.02802-.68001-.08398-.92401c-.052-.248-.138-.43399-.258-.558-.11603-.12399-.27203-.18599-.46802-.18599s-.354.062-.474.18599c-.11597.12401-.20001.31-.25201.558-.052.244-.078.552-.078.92401Zm5.76801,2.14799l-.45599-1.23599h-1.65601l-.45599,1.23599h-.672l1.62598-4.302h.67206l1.62,4.302h-.67804Zm-1.06799-3.006c-.01196-.04401-.034-.11-.06598-.198-.02802-.09201-.05603-.18401-.08398-.276-.02802-.09601-.05005-.17401-.06604-.23401-.01996.08-.04401.168-.07196.26401-.02405.092-.04803.17799-.07202.258-.02399.076-.04401.138-.06.186l-.43201,1.20599h1.284l-.43201-1.20599Zm4.91602.858c0,.34799-.02802.65799-.08398.92999-.052.272-.13605.504-.25201.696-.112.188-.26202.332-.45001.43201-.18402.09999-.40601.14999-.66602.14999-.328,0-.59796-.088-.81-.26399-.21198-.17601-.37-.42801-.474-.75601-.104-.332-.15601-.728-.15601-1.18799,0-.464.04602-.86.138-1.188.09601-.328.25-.578.46204-.75.21198-.17599.492-.26401.83997-.26401.328,0,.59802.08801.81.26401.216.172.37604.422.48004.75.10797.328.16199.724.16199,1.188Zm-2.25598,0c0,.37199.026.68199.078.92999s.13599.43401.25195.558c.12.12401.27802.186.474.186.19604,0,.35199-.06.46802-.18001.12-.12399.20599-.31.258-.558.05603-.252.08398-.564.08398-.93599s-.02795-.68001-.08398-.92401c-.052-.248-.138-.43399-.258-.558-.11603-.12399-.27197-.18599-.46802-.18599-.19598,0-.354.062-.474.18599-.11597.12401-.19995.31-.25195.558-.052.244-.078.552-.078.92401Zm4.21899-.51001c.284,0,.53198.05.74396.15001.21204.09999.37604.24399.492.43199.12.188.17999.418.17999.69,0,.3-.06396.558-.19196.774s-.31403.382-.55804.498c-.23999.116-.534.174-.88196.174-.22003,0-.42804-.02-.62402-.06s-.362-.09801-.49799-.174v-.582c.14398.084.31799.15199.52197.20399.20801.052.40601.078.59399.078.20404,0,.37805-.03.52203-.09.14801-.06401.26196-.158.34198-.282.08398-.12801.12604-.28801.12604-.48001,0-.25999-.08203-.45799-.24603-.59399-.15997-.14-.414-.21001-.76196-.21001-.112,0-.23804.01001-.37805.03-.13599.02-.24597.04001-.32996.06001l-.29401-.17401.16199-2.06999h2.20203v.564h-1.65002l-.09601,1.12199c.06799-.01199.15399-.02399.258-.036.104-.01599.22601-.024.36603-.024Zm3.99799-1.62599l-1.59601,4.284h-.60602l1.59601-4.284h.60602Zm3.28699,4.284l-.45599-1.23599h-1.65601l-.45599,1.23599h-.672l1.62598-4.302h.672l1.62,4.302h-.67798Zm-1.06799-3.006c-.01202-.04401-.034-.11-.06598-.198-.02802-.09201-.05603-.18401-.08405-.276-.02795-.09601-.04999-.17401-.06598-.23401-.02002.08-.04401.168-.07202.26401-.02399.092-.04797.17799-.07196.258-.02399.076-.04401.138-.06.186l-.43201,1.20599h1.284l-.43201-1.20599Z" style="fill: #5c5c5c; stroke-width: 0px;"/>
    <path d="m756.54901,159.85201c0,.34799-.02802.65799-.08398.92999-.052.272-.13605.504-.25201.696-.112.188-.26202.332-.45001.43201-.18402.09999-.40601.14999-.66602.14999-.328,0-.59796-.088-.81-.26399-.21198-.17601-.37-.42801-.474-.75601-.104-.332-.15601-.728-.15601-1.18799,0-.464.04602-.86.138-1.188.09601-.328.25-.578.46204-.75.21198-.17599.492-.26401.83997-.26401.328,0,.59802.08801.81.26401.216.172.37604.422.48004.75.10797.328.16199.724.16199,1.188Zm-2.25598,0c0,.37199.02594.68199.07794.92999s.13605.43401.25201.558c.12.12401.27802.186.474.186.19604,0,.35199-.06.46802-.18001.12-.12399.20599-.31.258-.558.05603-.252.08398-.564.08398-.93599s-.02795-.68001-.08398-.92401c-.052-.248-.138-.43399-.258-.558-.11603-.12399-.27197-.18599-.46802-.18599-.19598,0-.354.062-.474.18599-.11597.12401-.20001.31-.25201.558-.052.244-.07794.552-.07794.92401Zm5.76697,2.14799l-.45599-1.23599h-1.65601l-.45599,1.23599h-.672l1.62598-4.302h.672l1.62,4.302h-.67798Zm-1.06799-3.006c-.01202-.04401-.034-.11-.06598-.198-.02802-.09201-.05603-.18401-.08405-.276-.02795-.09601-.04999-.17401-.06598-.23401-.02002.08-.04401.168-.07202.26401-.02399.092-.04797.17799-.07196.258-.02405.076-.04401.138-.06.186l-.43201,1.20599h1.284l-.43201-1.20599Zm4.91602.858c0,.34799-.02802.65799-.08405.92999-.052.272-.13599.504-.25195.696-.112.188-.26202.332-.45001.43201-.18402.09999-.40601.14999-.66602.14999-.328,0-.59802-.088-.81-.26399-.21198-.17601-.37-.42801-.474-.75601-.104-.332-.15601-.728-.15601-1.18799,0-.464.04602-.86.138-1.188.09601-.328.25-.578.46204-.75.21198-.17599.49194-.26401.83997-.26401.328,0,.59802.08801.81.26401.216.172.37604.422.47998.75.10803.328.16205.724.16205,1.188Zm-2.25604,0c0,.37199.026.68199.078.92999s.13605.43401.25201.558c.12.12401.27802.186.474.186s.35199-.06.46802-.18001c.12-.12399.20599-.31.258-.558.05597-.252.08398-.564.08398-.93599s-.02802-.68001-.08398-.92401c-.052-.248-.138-.43399-.258-.558-.11603-.12399-.27203-.18599-.46802-.18599s-.354.062-.474.18599c-.11597.12401-.20001.31-.25201.558-.052.244-.078.552-.078.92401Zm4.22003-.51001c.284,0,.53198.05.74402.15001.21198.09999.37598.24399.49194.43199.12006.188.18005.418.18005.69,0,.3-.06403.558-.19202.774s-.31403.382-.55798.498c-.24005.116-.534.174-.88202.174-.22003,0-.42798-.02-.62402-.06-.19598-.03999-.362-.09801-.49799-.174v-.582c.14398.084.31799.15199.52203.20399.20795.052.40594.078.59399.078.20398,0,.37799-.03.52197-.09.14801-.06401.26202-.158.34198-.282.08405-.12801.12604-.28801.12604-.48001,0-.25999-.08203-.45799-.24603-.59399-.15997-.14-.414-.21001-.76196-.21001-.112,0-.23804.01001-.37799.03-.13605.02-.24603.04001-.33002.06001l-.29401-.17401.16199-2.06999h2.20203v.564h-1.65002l-.09601,1.12199c.06799-.01199.15399-.02399.258-.036.104-.01599.22601-.024.36603-.024Z" style="fill: #5c5c5c; stroke-width: 0px;"/>
    <path d="m793.54901,159.85201c0,.34799-.02802.65799-.08398.92999-.052.272-.13605.504-.25201.696-.112.188-.26202.332-.45001.43201-.18402.09999-.40601.14999-.66602.14999-.328,0-.59796-.088-.81-.26399-.21198-.17601-.37-.42801-.474-.75601-.104-.332-.15601-.728-.15601-1.18799,0-.464.04602-.86.138-1.188.09601-.328.25-.578.46204-.75.21198-.17599.492-.26401.83997-.26401.328,0,.59802.08801.81.26401.216.172.37604.422.48004.75.10797.328.16199.724.16199,1.188Zm-2.25598,0c0,.37199.02594.68199.07794.92999s.13605.43401.25201.558c.12.12401.27802.186.474.186.19604,0,.35199-.06.46802-.18001.12-.12399.20599-.31.258-.558.05603-.252.08398-.564.08398-.93599s-.02795-.68001-.08398-.92401c-.052-.248-.138-.43399-.258-.558-.11603-.12399-.27197-.18599-.46802-.18599-.19598,0-.354.062-.474.18599-.11597.12401-.20001.31-.25201.558-.052.244-.07794.552-.07794.92401Zm5.76697,2.14799l-.45599-1.23599h-1.65601l-.45599,1.23599h-.672l1.62598-4.302h.672l1.62,4.302h-.67798Zm-1.06799-3.006c-.01202-.04401-.034-.11-.06598-.198-.02802-.09201-.05603-.18401-.08405-.276-.02795-.09601-.04999-.17401-.06598-.23401-.02002.08-.04401.168-.07202.26401-.02399.092-.04797.17799-.07196.258-.02405.076-.04401.138-.06.186l-.43201,1.20599h1.284l-.43201-1.20599Zm4.91602.858c0,.34799-.02802.65799-.08405.92999-.052.272-.13599.504-.25195.696-.112.188-.26202.332-.45001.43201-.18402.09999-.40601.14999-.66602.14999-.328,0-.59802-.088-.81-.26399-.21198-.17601-.37-.42801-.474-.75601-.104-.332-.15601-.728-.15601-1.18799,0-.464.04602-.86.138-1.188.09601-.328.25-.578.46204-.75.21198-.17599.49194-.26401.83997-.26401.328,0,.59802.08801.81.26401.216.172.37604.422.47998.75.10803.328.16205.724.16205,1.188Zm-2.25604,0c0,.37199.026.68199.078.92999s.13605.43401.25201.558c.12.12401.27802.186.474.186s.35199-.06.46802-.18001c.12-.12399.20599-.31.258-.558.05597-.252.08398-.564.08398-.93599s-.02802-.68001-.08398-.92401c-.052-.248-.138-.43399-.258-.558-.11603-.12399-.27203-.18599-.46802-.18599s-.354.062-.474.18599c-.11597.12401-.20001.31-.25201.558-.052.244-.078.552-.078.92401Zm5.84601,1.2h-.59399v.948h-.61798v-.948h-1.98602v-.504l1.974-2.85001h.63v2.814h.59399v.54001Zm-1.21198-1.70399v-.276c.00397-.08801.008-.17201.01196-.252.00403-.08401.00604-.16.00604-.22801.00397-.07199.008-.136.01196-.192h-.02399c-.03198.08-.07202.162-.12.246-.04401.084-.09003.158-.138.222l-1.13397,1.644h1.38599v-1.16399Z" style="fill: #5c5c5c; stroke-width: 0px;"/>
    <path d="m824.54901,159.85201c0,.34799-.02802.65799-.08398.92999-.052.272-.13605.504-.25201.696-.112.188-.26202.332-.45001.43201-.18402.09999-.40601.14999-.66602.14999-.328,0-.59796-.088-.81-.26399-.21198-.17601-.37-.42801-.474-.75601-.104-.332-.15601-.728-.15601-1.18799,0-.464.04602-.86.138-1.188.09601-.328.25-.578.46204-.75.21198-.17599.492-.26401.83997-.26401.328,0,.59802.08801.81.26401.216.172.37604.422.48004.75.10797.328.16199.724.16199,1.188Zm-2.25598,0c0,.37199.02594.68199.07794.92999s.13605.43401.25201.558c.12.12401.27802.186.474.186.19604,0,.35199-.06.46802-.18001.12-.12399.20599-.31.258-.558.05603-.252.08398-.564.08398-.93599s-.02795-.68001-.08398-.92401c-.052-.248-.138-.43399-.258-.558-.11603-.12399-.27197-.18599-.46802-.18599-.19598,0-.354.062-.474.18599-.11597.12401-.20001.31-.25201.558-.052.244-.07794.552-.07794.92401Zm5.76697,2.14799l-.45599-1.23599h-1.65601l-.45599,1.23599h-.672l1.62598-4.302h.672l1.62,4.302h-.67798Zm-1.06799-3.006c-.01202-.04401-.034-.11-.06598-.198-.02802-.09201-.05603-.18401-.08405-.276-.02795-.09601-.04999-.17401-.06598-.23401-.02002.08-.04401.168-.07202.26401-.02399.092-.04797.17799-.07196.258-.02405.076-.04401.138-.06.186l-.43201,1.20599h1.284l-.43201-1.20599Zm4.91602.858c0,.34799-.02802.65799-.08405.92999-.052.272-.13599.504-.25195.696-.112.188-.26202.332-.45001.43201-.18402.09999-.40601.14999-.66602.14999-.328,0-.59802-.088-.81-.26399-.21198-.17601-.37-.42801-.474-.75601-.104-.332-.15601-.728-.15601-1.18799,0-.464.04602-.86.138-1.188.09601-.328.25-.578.46204-.75.21198-.17599.49194-.26401.83997-.26401.328,0,.59802.08801.81.26401.216.172.37604.422.47998.75.10803.328.16205.724.16205,1.188Zm-2.25604,0c0,.37199.026.68199.078.92999s.13605.43401.25201.558c.12.12401.27802.186.474.186s.35199-.06.46802-.18001c.12-.12399.20599-.31.258-.558.05597-.252.08398-.564.08398-.93599s-.02802-.68001-.08398-.92401c-.052-.248-.138-.43399-.258-.558-.11603-.12399-.27203-.18599-.46802-.18599s-.354.062-.474.18599c-.11597.12401-.20001.31-.25201.558-.052.244-.078.552-.078.92401Zm5.51605-1.14601c0,.192-.03802.36-.11401.50401-.07202.14-.17603.254-.31201.342s-.29199.15199-.46802.192v.024c.34399.03999.60004.14799.76801.32399.172.17201.258.40001.258.68401,0,.248-.06.47-.17999.666-.11597.192-.29797.34399-.54602.45599-.24396.108-.55798.162-.94196.162-.22803,0-.44-.01799-.63605-.054-.19598-.036-.38196-.09599-.55798-.17999v-.576c.17999.092.37201.162.57599.21001.20801.04799.40601.07199.59399.07199.36401,0,.62604-.06799.78601-.20399.16003-.14.23999-.334.23999-.582,0-.16-.04199-.29001-.12598-.39-.08398-.104-.21198-.18001-.38397-.228-.172-.052-.38605-.078-.64203-.078h-.39001v-.522h.396c.24402,0,.44202-.03.59399-.09.15204-.06401.26404-.15201.33606-.26401.07196-.112.10797-.23999.10797-.384,0-.19199-.06403-.34-.19202-.444-.12396-.10799-.30396-.16199-.53998-.16199-.14398,0-.27802.01599-.40198.04799-.12006.03201-.23004.07401-.33002.12601-.10004.052-.198.11-.29401.174l-.31201-.438c.10803-.07999.22803-.15399.35999-.222.13605-.06799.28601-.12.45001-.15599.16803-.04001.35004-.06.54602-.06.44397,0,.77997.09799,1.008.29399.23199.192.34802.444.34802.756Z" style="fill: #5c5c5c; stroke-width: 0px;"/>
    <path d="m852.54901,159.85201c0,.34799-.02802.65799-.08398.92999-.052.272-.13605.504-.25201.696-.112.188-.26202.332-.45001.43201-.18402.09999-.40601.14999-.66602.14999-.328,0-.59796-.088-.81-.26399-.21198-.17601-.37-.42801-.474-.75601-.104-.332-.15601-.728-.15601-1.18799,0-.464.04602-.86.138-1.188.09601-.328.25-.578.46204-.75.21198-.17599.492-.26401.83997-.26401.328,0,.59802.08801.81.26401.216.172.37604.422.48004.75.10797.328.16199.724.16199,1.188Zm-2.25598,0c0,.37199.02594.68199.07794.92999s.13605.43401.25201.558c.12.12401.27802.186.474.186.19604,0,.35199-.06.46802-.18001.12-.12399.20599-.31.258-.558.05603-.252.08398-.564.08398-.93599s-.02795-.68001-.08398-.92401c-.052-.248-.138-.43399-.258-.558-.11603-.12399-.27197-.18599-.46802-.18599-.19598,0-.354.062-.474.18599-.11597.12401-.20001.31-.25201.558-.052.244-.07794.552-.07794.92401Zm5.76697,2.14799l-.45599-1.23599h-1.65601l-.45599,1.23599h-.672l1.62598-4.302h.672l1.62,4.302h-.67798Zm-1.06799-3.006c-.01202-.04401-.034-.11-.06598-.198-.02802-.09201-.05603-.18401-.08405-.276-.02795-.09601-.04999-.17401-.06598-.23401-.02002.08-.04401.168-.07202.26401-.02399.092-.04797.17799-.07196.258-.02405.076-.04401.138-.06.186l-.43201,1.20599h1.284l-.43201-1.20599Zm4.91602.858c0,.34799-.02802.65799-.08405.92999-.052.272-.13599.504-.25195.696-.112.188-.26202.332-.45001.43201-.18402.09999-.40601.14999-.66602.14999-.328,0-.59802-.088-.81-.26399-.21198-.17601-.37-.42801-.474-.75601-.104-.332-.15601-.728-.15601-1.18799,0-.464.04602-.86.138-1.188.09601-.328.25-.578.46204-.75.21198-.17599.49194-.26401.83997-.26401.328,0,.59802.08801.81.26401.216.172.37604.422.47998.75.10803.328.16205.724.16205,1.188Zm-2.25604,0c0,.37199.026.68199.078.92999s.13605.43401.25201.558c.12.12401.27802.186.474.186s.35199-.06.46802-.18001c.12-.12399.20599-.31.258-.558.05597-.252.08398-.564.08398-.93599s-.02802-.68001-.08398-.92401c-.052-.248-.138-.43399-.258-.558-.11603-.12399-.27203-.18599-.46802-.18599s-.354.062-.474.18599c-.11597.12401-.20001.31-.25201.558-.052.244-.078.552-.078.92401Zm5.68402,2.14799h-2.88v-.492l1.104-1.12199c.216-.22.396-.41.53998-.57001.14404-.164.25201-.31999.32404-.46799.07196-.15201.10797-.31601.10797-.492,0-.22-.06396-.384-.19196-.492-.12805-.112-.29401-.168-.49805-.168-.19598,0-.37201.03799-.52795.114-.15601.07201-.31805.174-.48602.306l-.34198-.42599c.11597-.10001.23999-.19.37195-.27.13605-.08.28601-.144.45001-.192.16803-.048.35199-.07199.552-.07199.27203,0,.50604.04799.70203.144.19598.092.34601.224.45001.396.10797.172.16199.37401.16199.606,0,.172-.026.334-.078.48599-.052.14801-.12799.29401-.22803.438-.09601.144-.21399.29001-.354.438-.13995.14799-.29401.304-.46198.468l-.79797.774v.03h2.08197v.564Z" style="fill: #5c5c5c; stroke-width: 0px;"/>
    <path d="m927.54901,209.85201c0,.34799-.02802.65799-.08398.92999-.052.272-.13605.504-.25201.696-.112.188-.26202.332-.45001.43201-.18402.09999-.40601.14999-.66602.14999-.328,0-.59796-.088-.81-.26399-.21198-.17601-.37-.42801-.474-.75601-.104-.332-.15601-.728-.15601-1.18799,0-.464.04602-.86.138-1.188.09601-.328.25-.578.46204-.75.21198-.17599.492-.26401.83997-.26401.328,0,.59802.08801.81.26401.216.172.37604.422.48004.75.10797.328.16199.724.16199,1.188Zm-2.25598,0c0,.37199.02594.68199.07794.92999s.13605.43401.25201.558c.12.12401.27802.186.474.186.19604,0,.35199-.06.46802-.18001.12-.12399.20599-.31.258-.558.05603-.252.08398-.564.08398-.93599s-.02795-.68001-.08398-.92401c-.052-.248-.138-.43399-.258-.558-.11603-.12399-.27197-.18599-.46802-.18599-.19598,0-.354.062-.474.18599-.11597.12401-.20001.31-.25201.558-.052.244-.07794.552-.07794.92401Zm5.76697,2.14799l-.45599-1.23599h-1.65601l-.45599,1.23599h-.672l1.62598-4.302h.672l1.62,4.302h-.67798Zm-1.06799-3.006c-.01202-.04401-.034-.11-.06598-.198-.02802-.09201-.05603-.18401-.08405-.276-.02795-.09601-.04999-.17401-.06598-.23401-.02002.08-.04401.168-.07202.26401-.02399.092-.04797.17799-.07196.258-.02405.076-.04401.138-.06.186l-.43201,1.20599h1.284l-.43201-1.20599Zm4.91602.858c0,.34799-.02802.65799-.08405.92999-.052.272-.13599.504-.25195.696-.112.188-.26202.332-.45001.43201-.18402.09999-.40601.14999-.66602.14999-.328,0-.59802-.088-.81-.26399-.21198-.17601-.37-.42801-.474-.75601-.104-.332-.15601-.728-.15601-1.18799,0-.464.04602-.86.138-1.188.09601-.328.25-.578.46204-.75.21198-.17599.49194-.26401.83997-.26401.328,0,.59802.08801.81.26401.216.172.37604.422.47998.75.10803.328.16205.724.16205,1.188Zm-2.25604,0c0,.37199.026.68199.078.92999s.13605.43401.25201.558c.12.12401.27802.186.474.186s.35199-.06.46802-.18001c.12-.12399.20599-.31.258-.558.05597-.252.08398-.564.08398-.93599s-.02802-.68001-.08398-.92401c-.052-.248-.138-.43399-.258-.558-.11603-.12399-.27203-.18599-.46802-.18599s-.354.062-.474.18599c-.11597.12401-.20001.31-.25201.558-.052.244-.078.552-.078.92401Zm4.76001,2.14799h-.63v-3.12c.00403-.088.008-.17201.01202-.252.00397-.084.008-.164.01202-.24001-.052.052-.10602.10201-.16205.14999-.05597.048-.12.104-.19196.168l-.46802.37801-.32404-.408,1.224-.95999h.52802v4.284Z" style="fill: #5c5c5c; stroke-width: 0px;"/>
    <path d="m459.992,206v-4.284h3.26401v4.284h-.642v-3.726h-1.974v3.726h-.64801Zm6.82401,0h-2.41202v-4.284h2.41202v.552h-1.76401v1.224h1.65601v.54599h-1.65601v1.40401h1.76401v.558Zm2.12799-4.284c.56,0,.96799.114,1.224.342.25601.224.384.53799.384.942,0,.17999-.03.35201-.09.51601-.056.16399-.14999.312-.28201.444-.13199.12799-.30798.23-.52798.306-.216.07199-.48199.10799-.798.10799h-.46201v1.62601h-.64801v-4.284h1.20001Zm-.048.54599h-.504v1.56601h.39001c.24399,0,.448-.026.612-.078.164-.056.28598-.142.366-.258.08398-.12001.12598-.276.12598-.468,0-.256-.07999-.446-.23999-.57001-.15601-.12799-.40601-.192-.75-.192Zm4.93399,3.73801h-2.41199v-4.284h2.41199v.552h-1.76398v1.224h1.65598v.54599h-1.65598v1.40401h1.76398v.558Zm4.16202,0h-.76199l-1.82401-2.172v2.172h-.64801v-4.284h.64801v2.076l1.78799-2.076h.71399l-1.76999,2.076,1.854,2.20799Zm1.76801-4.284c.56,0,.96799.114,1.224.342.25598.224.384.53799.384.942,0,.17999-.03.35201-.09.51601-.05603.16399-.15002.312-.28201.444-.13199.12799-.30801.23-.52802.306-.21597.07199-.48199.10799-.79797.10799h-.46201v1.62601h-.64801v-4.284h1.20001Zm-.048.54599h-.504v1.56601h.38998c.24402,0,.448-.026.612-.078.164-.056.28601-.142.366-.258.08401-.12001.12601-.276.12601-.468,0-.256-.07999-.446-.23999-.57001-.15601-.12799-.40601-.192-.75-.192Zm4.93399,3.73801h-2.41199v-4.284h2.41199v.552h-1.76401v1.224h1.65601v.54599h-1.65601v1.40401h1.76401v.558Zm2.758-3.786c-.21201,0-.40198.03799-.56998.114-.16803.07199-.31201.17999-.43201.32399-.116.14401-.20599.31801-.27002.522-.06.20401-.09.43401-.09.69,0,.336.05002.62801.14999.87601.10001.24399.25.43199.45001.564s.452.198.75601.198c.18399,0,.35999-.01601.52798-.048.172-.036.34601-.082.522-.138v.558c-.168.06401-.34.11-.51599.138-.17599.03201-.38.048-.612.048-.436,0-.80002-.09-1.09201-.27-.28799-.17999-.504-.43599-.64801-.76799-.14398-.332-.21597-.72-.21597-1.164,0-.32401.04398-.62.13199-.888.09201-.272.224-.506.396-.702s.384-.34601.63602-.45001c.25598-.10799.54999-.16199.88199-.16199.216,0,.42801.02399.63599.07199.20801.04401.396.108.564.192l-.23999.54001c-.13998-.06401-.29199-.12001-.45599-.168-.16-.052-.32999-.078-.51001-.078Zm3.40701,3.786h-.64801v-3.726h-1.284v-.558h3.216v.558h-1.284v3.726Zm5.603-2.14799c0,.332-.04199.63399-.12601.90599-.07999.26801-.20398.5-.37201.696-.16397.196-.37198.34601-.62399.45001-.24799.10399-.53799.15599-.87.15599-.34,0-.63599-.052-.888-.15599-.24799-.108-.45599-.25801-.62399-.45001-.164-.196-.28601-.42999-.366-.702-.08002-.272-.12-.57401-.12-.90601,0-.43999.07199-.82399.216-1.15199.14398-.328.36398-.584.65997-.76801.30002-.18399.67603-.276,1.12802-.276.44,0,.806.09201,1.09799.276.29599.18001.51801.436.66599.76801.14801.328.22202.714.22202,1.158Zm-3.306,0c0,.34399.04599.64.138.888.09201.24399.23599.43399.43201.56999.19598.132.444.198.74399.198.30402,0,.552-.06599.74399-.198.19202-.136.33401-.326.42603-.56999.09198-.248.138-.54401.138-.888,0-.51601-.104-.918-.31201-1.20601-.20401-.29199-.534-.438-.98999-.438-.30402,0-.55402.06601-.75.19801-.19601.13199-.34.31999-.43201.564s-.138.53799-.138.882Zm7.47101,2.14799h-.76202l-1.82397-2.172v2.172h-.64801v-4.284h.64801v2.076l1.78799-2.076h.71399l-1.76999,2.076,1.854,2.20799Z" style="fill: #5c5c5c; stroke-width: 0px;"/>
    <path d="m503.18399,121.716c.36401,0,.668.034.91202.102.24799.068.43399.182.55798.342.12802.156.19202.364.19202.62399,0,.16801-.03.318-.09.45-.06.128-.14801.236-.26401.324-.112.084-.25201.14-.42001.168v.03c.172.028.32602.08.46201.15601.13602.072.24402.17799.32401.318.07999.14.12.322.12.546,0,.26-.06201.482-.186.666-.12.18-.29401.318-.522.414-.224.096-.49197.144-.80399.144h-1.53601v-4.284h1.254Zm.108,1.78799c.336,0,.56601-.054.69-.16199.12799-.108.19202-.26801.19202-.48,0-.216-.07602-.37-.228-.462-.15201-.092-.39401-.138-.72601-.138h-.642v1.242h.71399Zm-.71399.528v1.428h.78601c.34799,0,.59-.068.72598-.204.13602-.13599.20401-.31599.20401-.53999,0-.136-.03-.256-.09-.36-.06-.104-.16202-.18401-.306-.24001-.14001-.056-.332-.084-.57602-.084h-.74399Zm5.95999,1.968l-.45599-1.236h-1.65601l-.45599,1.236h-.672l1.62601-4.302h.672l1.62,4.302h-.67801Zm-1.06799-3.006c-.01199-.04401-.034-.11-.06601-.19801-.02798-.092-.056-.184-.08398-.276-.02802-.09599-.05002-.174-.06601-.23399-.01999.07999-.04401.168-.07199.264-.02402.092-.048.17799-.07202.258-.02399.076-.04398.138-.06.186l-.43198,1.20599h1.284l-.43201-1.20599Zm3.52399-1.278c.56,0,.96802.114,1.22403.342.25598.224.38397.538.38397.942,0,.18-.02997.352-.08997.516-.05603.164-.15002.312-.28204.444-.13196.128-.30798.23-.52798.306-.216.072-.48199.108-.798.108h-.46201v1.626h-.64798v-4.284h1.19998Zm-.04797.546h-.50403v1.566h.39001c.24399,0,.448-.026.612-.078.164-.056.28601-.142.366-.258.08401-.12.12601-.27599.12601-.46799,0-.256-.08002-.446-.23999-.57-.15601-.12801-.40601-.192-.75-.192Zm5.18796-.546v3.71999h.552v1.728h-.62396v-1.164h-2.86804v1.164h-.61798v-1.728h.33002c.13202-.24.26001-.504.38397-.792.12402-.292.23401-.598.33002-.918.09601-.324.17603-.654.23999-.99.06799-.34.11603-.68.14404-1.02h2.12994Zm-1.58398.564c-.01996.228-.06.48-.12.756-.06.272-.13397.55199-.22198.84-.08398.288-.17999.568-.28802.84-.104.268-.21399.508-.32996.71999h1.90198v-3.156h-.94202Zm5.24902,3.72h-2.41199v-4.284h2.41199v.55199h-1.76404v1.224h1.65601v.54601h-1.65601v1.404h1.76404v.558Zm4.16199,0h-.76202l-1.82397-2.172v2.172h-.64801v-4.284h.64801v2.076l1.78802-2.076h.71399l-1.77002,2.076,1.854,2.208Zm2.28198-3.786c-.21198,0-.40198.038-.57001.11401-.16797.072-.31195.18-.43195.324-.11603.144-.20605.318-.27002.522-.06.20399-.09003.434-.09003.68999,0,.336.05005.628.15002.876.09998.244.25.432.45001.564.20001.132.45197.198.75598.198.18402,0,.35999-.016.52802-.048.172-.036.34601-.082.52197-.138v.558c-.16797.064-.33997.11-.51599.138-.17603.032-.38.048-.612.048-.43597,0-.79999-.09-1.09198-.27-.28802-.18-.50403-.436-.64801-.768-.14398-.332-.216-.72-.216-1.164,0-.32401.04401-.62.13202-.888.09198-.272.224-.506.396-.702s.38397-.346.63599-.45c.25598-.108.54999-.162.88202-.162.216,0,.42798.024.63599.072.20801.04401.396.108.56396.192l-.23999.54c-.14001-.064-.29199-.12-.45599-.168-.15997-.052-.33002-.078-.51001-.078Z" style="fill: #5c5c5c; stroke-width: 0px;"/>
    <path d="m544.82202,121.656v.528c.46796.008.836.086,1.104.234.27197.144.466.336.58197.576.11603.236.17401.49799.17401.786,0,.188-.03003.378-.09003.57-.06.188-.16199.36-.30597.516-.14001.152-.33002.278-.57001.37801-.23602.09599-.534.14799-.89398.156v.66h-.61804v-.66c-.36395-.008-.66595-.06001-.90601-.156-.23999-.10001-.42999-.23-.56995-.39001-.13605-.16-.23401-.33199-.29401-.516-.05603-.188-.08405-.374-.08405-.558,0-.212.03204-.412.09601-.6.06403-.188.16803-.356.31201-.504.14398-.148.33398-.266.57001-.354.23999-.088.53198-.134.87598-.138v-.528h.61804Zm-.61804,1.056c-.29999.012-.53998.064-.71997.156-.17999.08801-.30798.21001-.38403.366-.07599.152-.11395.332-.11395.54,0,.22.04199.41199.12598.576.08801.16.22198.286.40198.378.17999.08801.41003.138.69.15v-2.166Zm.61804,2.166c.29199-.012.526-.064.70197-.156.17999-.092.31201-.22.396-.384.08405-.16399.12604-.352.12604-.564,0-.208-.03802-.39-.11401-.54601-.07599-.156-.20398-.278-.38403-.366-.17596-.088-.41797-.138-.72595-.15v2.166Zm6.51099-1.026c0,.332-.04199.634-.12604.90601-.07996.268-.20398.5-.37195.696-.164.196-.37201.346-.62402.45-.24799.104-.53802.156-.87.156-.34003,0-.63599-.05199-.888-.156-.24799-.108-.45599-.258-.62402-.45-.164-.196-.28595-.43-.36597-.702-.08002-.272-.12-.574-.12-.906,0-.44.07196-.824.216-1.152.14398-.328.36395-.584.65997-.768.29999-.18401.67603-.276,1.12799-.276.44,0,.80603.092,1.09802.276.29602.18.51801.436.66602.768.14795.328.22198.714.22198,1.158Zm-3.30603,0c0,.344.04602.64.138.888.09204.244.23602.43401.43201.57.19604.132.44403.19801.74402.19801.30402,0,.552-.066.74402-.19801.19196-.13599.33398-.326.42596-.57.09204-.248.138-.544.138-.888,0-.516-.104-.918-.31201-1.20599-.20398-.29201-.534-.438-.98999-.438-.30396,0-.55396.066-.75.198-.19598.132-.33997.32-.43201.564-.09198.244-.138.538-.138.882Zm5.43701-2.13599c.56,0,.96802.114,1.224.342.25598.224.38403.538.38403.942,0,.18-.03003.352-.09003.516-.05597.164-.15002.312-.28198.444-.13202.128-.30798.23-.52802.306-.216.072-.48199.108-.79797.108h-.46204v1.626h-.64801v-4.284h1.20001Zm-.04797.546h-.50403v1.566h.39001c.24402,0,.448-.026.612-.078.164-.056.28601-.142.36603-.258.08398-.12.12598-.27599.12598-.46799,0-.256-.08002-.446-.23999-.57-.15601-.12801-.40601-.192-.75-.192Zm4.89301,3.738l-.45599-1.236h-1.65601l-.45599,1.236h-.67206l1.62604-4.302h.672l1.62,4.302h-.67798Zm-1.06799-3.006c-.01202-.04401-.03406-.11-.06604-.19801-.02802-.092-.05597-.184-.08398-.276-.02802-.09599-.04999-.174-.06598-.23399-.02002.07999-.04401.168-.07202.264-.02399.092-.04797.17799-.07202.258-.02399.076-.04401.138-.06.186l-.43201,1.20599h1.284l-.43195-1.20599Zm2.32397,3.006v-4.284h2.59198v.558h-1.94397v1.206h.552c.42401,0,.75598.05399.99597.16199.24402.108.41602.256.51599.444.104.184.15601.396.15601.636,0,.264-.05597.492-.16797.684-.10803.192-.28003.34-.51599.444-.23602.1-.54602.15-.93005.15h-1.25397Zm1.20599-.546c.35199,0,.60602-.058.76202-.174.15601-.12.23401-.306.23401-.558,0-.176-.03802-.314-.11401-.414s-.19403-.172-.354-.216c-.15601-.04401-.362-.066-.61798-.066h-.46802v1.428h.55798Zm5.19702.546l-.45599-1.236h-1.65601l-.45599,1.236h-.672l1.62598-4.302h.672l1.62,4.302h-.67798Zm-1.06799-3.006c-.01202-.04401-.034-.11-.06604-.19801-.02795-.092-.05597-.184-.08398-.276-.02802-.09599-.04999-.174-.06598-.23399-.02002.07999-.04401.168-.07202.264-.02399.092-.04797.17799-.07202.258-.02399.076-.04401.138-.06.186l-.43201,1.20599h1.284l-.43195-1.20599Zm5.66498,3.006h-.64801v-1.956h-2.04602v1.956h-.64795v-4.284h.64795v1.77599h2.04602v-1.77599h.64801v4.284Zm4.38098,0h-.76196l-1.82404-2.172v2.172h-.64801v-4.284h.64801v2.076l1.78802-2.076h.71399l-1.77002,2.076,1.854,2.208Z" style="fill: #5c5c5c; stroke-width: 0px;"/>
    <path d="m917.04401,121.716c.36401,0,.66797.034.91199.102.24799.068.43402.182.55798.342.12805.156.19202.364.19202.62399,0,.16801-.02997.318-.08997.45-.06.128-.14801.236-.26404.324-.112.084-.25201.14-.41998.168v.03c.172.028.32599.08.46198.15601.13605.072.24402.17799.32404.318.07996.14.12.322.12.546,0,.26-.06201.482-.18604.666-.12.18-.29401.318-.52197.414-.224.096-.492.144-.80402.144h-1.53601v-4.284h1.25403Zm.10797,1.78799c.336,0,.56604-.054.69-.16199.12799-.108.19202-.26801.19202-.48,0-.216-.07599-.37-.22797-.462-.15204-.092-.39404-.138-.72601-.138h-.64203v1.242h.71399Zm-.71399.528v1.428h.78601c.34802,0,.59003-.068.72601-.204.13599-.13599.20398-.31599.20398-.53999,0-.136-.02997-.256-.08997-.36-.06-.104-.16205-.18401-.30603-.24001-.14001-.056-.33197-.084-.57599-.084h-.74402Zm6.52301,1.968h-.76202l-1.82397-2.172v2.172h-.64801v-4.284h.64801v2.076l1.78802-2.076h.71399l-1.77002,2.076,1.854,2.208Zm2.45898-1.23c-.12799.28001-.258.51801-.38995.714-.12805.192-.28601.336-.474.432-.18402.096-.42206.144-.71405.144-.10797,0-.216-.008-.32397-.02399-.104-.01601-.20001-.038-.28802-.066v-.606c.08405.036.17603.064.276.084.10004.02.20001.03.30005.03.14398,0,.26398-.02.35999-.06.09998-.044.18597-.11.258-.198.07196-.092.138-.208.198-.348l-1.59601-3.156h.70203l1.07397,2.208c.02002.032.03802.072.05402.12.01996.044.03998.09.06.138.02399.048.04199.092.05396.132h.02405c.01599-.03201.03198-.07201.04797-.12s.034-.096.05402-.144c.02002-.048.03796-.09.05402-.126l.948-2.208h.67798l-1.35602,3.05399Zm3.69604-2.556c-.21204,0-.40204.038-.57001.11401-.16803.072-.31201.18-.43201.324-.11603.144-.20599.318-.27002.522-.06.20399-.08997.434-.08997.68999,0,.336.04999.628.14996.876.10004.244.25.432.45001.564.20001.132.45203.198.75598.198.18402,0,.35999-.016.52802-.048.172-.036.34601-.082.52197-.138v.558c-.16797.064-.33997.11-.51599.138-.17596.032-.38.048-.612.048-.43597,0-.79999-.09-1.09198-.27-.28802-.18-.50403-.436-.64801-.768-.14398-.332-.216-.72-.216-1.164,0-.32401.04401-.62.13202-.888.09198-.272.224-.506.396-.702s.38397-.346.63599-.45c.25598-.108.54999-.162.88202-.162.216,0,.42798.024.63599.072.20801.04401.396.108.56403.192l-.24005.54c-.13995-.064-.29199-.12-.45599-.168-.15997-.052-.32996-.078-.50995-.078Zm3.22095-.49799c.36401,0,.66803.034.91205.102.24799.068.43396.182.55798.342.12799.156.19202.364.19202.62399,0,.16801-.03003.318-.09003.45-.06.128-.14801.236-.26398.324-.112.084-.25201.14-.42004.168v.03c.172.028.32605.08.46204.15601.13599.072.24402.17799.32397.318.08002.14.12.322.12.546,0,.26-.06201.482-.18597.666-.12.18-.29401.318-.52203.414-.224.096-.49194.144-.80396.144h-1.53601v-4.284h1.25397Zm.10803,1.78799c.336,0,.56598-.054.69-.16199.12799-.108.19202-.26801.19202-.48,0-.216-.07605-.37-.22803-.462-.15198-.092-.39398-.138-.72601-.138h-.64197v1.242h.71399Zm-.71399.528v1.428h.78601c.34796,0,.58997-.068.72595-.204.13605-.13599.20404-.31599.20404-.53999,0-.136-.03003-.256-.09003-.36-.06-.104-.16199-.18401-.30597-.24001-.14001-.056-.33203-.084-.57605-.084h-.74396Zm3.29498-2.31599h.59399v2.268c0,.1-.00201.21-.00598.33,0,.12-.00201.238-.00604.354-.00397.116-.00995.22-.01794.312-.00403.088-.00806.154-.01202.198h.02399l2.24402-3.462h.74402v4.284h-.59406v-2.25c0-.108.00201-.224.00604-.348.00397-.128.008-.252.01196-.372.008-.12.01404-.224.01801-.312.00403-.092.008-.158.01202-.19801h-.02399l-2.25,3.48h-.74402v-4.284Zm7.87299,4.284h-.64801v-3.726h-1.26599c-.02802.208-.05798.43-.08997.666-.02802.23199-.05804.464-.09003.696-.03198.23199-.06396.452-.09601.66-.03198.204-.06396.384-.09601.54-.052.26-.11798.482-.198.666-.07996.184-.18597.324-.31799.42-.13196.096-.30597.144-.52197.144-.07202,0-.14398-.008-.216-.024-.06799-.012-.13-.028-.18604-.048v-.534c.04803.016.09802.032.15002.048.05603.01199.11401.018.17401.018.112,0,.20001-.042.26398-.126.06403-.084.11603-.196.15601-.336s.07599-.29401.10803-.46201c.01996-.112.04596-.262.078-.45.03198-.188.06598-.41.10199-.666.03998-.256.07996-.534.12-.834.04401-.3.08398-.612.12-.936h2.45398v4.284Zm4.31299,0h-.64795v-3.726h-1.26605c-.02795.208-.05798.43-.08997.666-.02802.23199-.05798.464-.09003.696-.03198.23199-.06396.452-.09601.66-.03198.204-.06396.384-.09595.54-.052.26-.11804.482-.198.666-.08002.184-.18604.324-.31805.42-.13196.096-.30597.144-.52197.144-.07202,0-.14398-.008-.216-.024-.06799-.012-.13-.028-.18597-.048v-.534c.04797.016.09796.032.14996.048.05603.01199.11401.018.17401.018.112,0,.20001-.042.26398-.126.06403-.084.11603-.196.15601-.336.04004-.14.07605-.29401.10803-.46201.01996-.112.04596-.262.078-.45.03198-.188.06598-.41.10199-.666.03998-.256.08002-.534.12-.834.04401-.3.08398-.612.12-.936h2.45398v4.284Z" style="fill: #5c5c5c; stroke-width: 0px;"/>
    <path d="m646.09497,96.9948h-1.13696l-4.724-12.06689h-.00403l-3.18097,6.82439-3.17401-6.82439h-.00403l-4.73199,12.06689h-1.13696v1.0052h6.51501v-1.0052h-1.29303l1.50702-3.8287,2.31799,4.8339,2.32501-4.8339,1.49896,3.8287h-1.29297v1.0052h6.51495v-1.0052Z" style="fill: #e52d2c; stroke-width: 0px;"/>
    <path d="m654.56897,96v-.539h.341c.12402,0,.23804-.0147.341-.044.10205-.0293.18701-.0917.25305-.187.06598-.10271.099-.25301.099-.451v-5.401c0-.2053-.03302-.3557-.099-.451-.06604-.1027-.151-.1687-.25305-.19801-.10297-.0293-.21698-.044-.341-.044h-.341v-.53899h2.91504l2.00201,5.687,1.93597-5.687h2.85999v.53899h-.341c-.125,0-.242.0183-.35199.055-.10297.0293-.18701.0953-.25299.19801-.05902.1027-.08801.264-.08801.48399v5.302c0,.2127.02899.374.08801.484.06598.1027.15002.1723.25299.209.10999.0293.22699.044.35199.044h.341v.539h-3.29999v-.539h.08801c.15399,0,.28198-.0147.38501-.044.10999-.0293.19397-.088.25299-.176.05798-.0953.08801-.2347.08801-.418v-5.687l-2.33203,6.864h-.69299l-2.409-6.853v5.577c0,.2127.03302.374.099.484.06598.1027.15698.1723.27502.209.12396.0293.26697.044.42896.044h.05499v.539h-2.651Zm10.09003,0v-.539h.16498c.13904,0,.25604-.022.35205-.066.09497-.044.18298-.12469.26398-.242.08002-.1173.16498-.2897.25299-.517l2.409-6.49h1.25403l2.37598,6.6c.06598.1907.13501.3373.20898.43999.08002.1027.16803.176.26404.22.10199.03671.216.055.341.055h.17596v.539h-3.39899v-.539h.36298c.146,0,.271-.0367.37402-.11.10999-.0733.16498-.1907.16498-.352,0-.0513-.008-.1027-.02197-.154-.008-.0587-.01898-.11-.03302-.154-.008-.0513-.02197-.099-.04401-.14301l-.396-1.155h-2.76099l-.35199,1.034c-.02203.0587-.04401.12099-.06598.187-.01501.066-.03003.132-.04401.198-.008.066-.01105.1247-.01105.176,0,.1613.05505.2823.16504.363.10999.0733.24896.11.41797.11h.37402v.539h-2.79401Zm2.53003-3.223h2.32098l-.61603-1.859c-.05896-.1833-.12097-.374-.18701-.572-.05896-.198-.11798-.3923-.17596-.583-.052-.1907-.099-.3703-.14301-.539-.03003.1173-.06598.242-.10999.374-.03699.132-.07703.2677-.12103.407-.03699.13931-.08099.2823-.13196.429-.04401.13931-.09204.2787-.14301.418l-.69299,1.925Zm5.88898,3.223v-.539h.341c.13202,0,.24902-.0147.35199-.044.10199-.0367.18298-.1063.242-.209.06598-.11.099-.2713.099-.484v-5.346c0-.2053-.03302-.3557-.099-.451-.06598-.1027-.151-.1687-.25299-.19801-.10303-.0293-.21698-.044-.341-.044h-.341v-.53899h3.26697c.98206,0,1.70801.209,2.17804.627.47601.4107.71497.9753.71497,1.694,0,.32999-.05896.64529-.17596.946-.10999.2933-.29004.561-.539.803-.242.2347-.565.4217-.96802.561-.396.132-.88.198-1.45197.198h-.49506v1.804c0,.198.03302.3483.099.451.06604.0953.15002.1577.25305.187.10999.0293.22699.044.35199.044h.54999v.539h-3.784Zm2.91498-3.619c.29303,0,.54199-.033.74805-.099.21198-.0733.38495-.1833.51697-.32999.13202-.14671.22699-.3373.28601-.57201.05798-.242.08801-.5317.08801-.869,0-.40331-.04803-.7333-.14301-.99-.09601-.25671-.25299-.4473-.47302-.57201-.21301-.132-.49896-.198-.85797-.198h-.55005v3.63h.38501Zm3.96002,3.619v-.539h.341c.15399,0,.27802-.0183.37402-.055.10199-.044.17896-.12099.23096-.231.05798-.11.08801-.2603.08801-.451v-5.302c0-.2127-.03302-.3703-.099-.473-.05902-.1027-.14001-.17229-.242-.209-.10297-.0367-.21997-.055-.35199-.055h-.341v-.53899h3.784v.53899h-.54999c-.14703,0-.27203.022-.37402.066-.10297.0367-.18396.1027-.242.198-.05896.0953-.08801.2347-.08801.418v2.244h.69305c.70398,0,1.26794.0917,1.69397.275.43201.1833.74799.43999.94598.77s.297.7113.297,1.144-.10699.8177-.31897,1.155c-.20599.33-.521.5867-.94598.77-.41803.1833-.95703.275-1.617.275h-3.27802Zm3.146-.605c.34399,0,.61902-.055.82501-.16499.20502-.1173.35199-.2897.44-.51701.09497-.22729.14301-.517.14301-.869,0-.396-.05499-.715-.16504-.957-.10297-.242-.26801-.418-.495-.528-.21997-.11-.51398-.165-.88-.165h-.48401v3.201h.61603Zm3.729.605v-.539h.341c.12402,0,.23798-.0147.341-.044.10999-.0367.19397-.1063.25299-.209.06598-.11.099-.2713.099-.484v-5.346c0-.2053-.03302-.3557-.099-.451-.06598-.1027-.151-.1687-.25299-.19801-.10303-.0293-.21698-.044-.341-.044h-.341v-.53899h3.56403v.53899h-.341c-.125,0-.242.0183-.35205.055-.10297.0293-.18695.0953-.25299.19801-.05896.1027-.08801.264-.08801.48399v4.05901l3.17902-3.85001v-.209c0-.21999-.03296-.38129-.099-.48399-.05896-.10271-.14001-.1687-.242-.19801-.10297-.0367-.21997-.055-.35199-.055h-.341v-.53899h3.56403v.53899h-.341c-.125,0-.242.0183-.35199.055-.10303.0293-.18701.0953-.25305.19801-.05896.1027-.08795.264-.08795.48399v5.357c0,.198.03296.3483.099.451.06598.0953.14996.1577.25299.187.10999.0293.22296.044.341.044h.341v.539h-3.56403v-.539h.341c.13202,0,.24902-.0147.35199-.044.10199-.0367.18304-.1063.242-.209.06604-.11.099-.2713.099-.484v-4.213l-3.17902,3.85v.363c0,.2127.02905.374.08801.484.06604.1027.15002.1723.25299.209.11005.0293.22705.044.35205.044h.341v.539h-3.56403Zm8.948,0v-.539h.341c.12402,0,.23798-.0147.341-.044.10999-.0367.19397-.1063.25299-.209.06598-.11.099-.2713.099-.484v-5.346c0-.2053-.03302-.3557-.099-.451-.06598-.1027-.151-.1687-.25299-.19801-.10303-.0293-.21698-.044-.341-.044h-.341v-.53899h3.56403v.53899h-.341c-.125,0-.242.0183-.35205.055-.10297.0293-.18695.0953-.25299.19801-.05896.1027-.08795.264-.08795.48399v2.167h3.13495v-2.167c0-.21999-.03296-.38129-.099-.48399-.05896-.10271-.13995-.1687-.242-.19801-.10297-.0367-.21997-.055-.35199-.055h-.341v-.53899h3.56403v.53899h-.341c-.11798,0-.23102.0183-.341.055-.10999.0293-.19501.0953-.25299.19801-.05902.1027-.08801.264-.08801.48399v5.357c0,.198.02899.3483.08801.451.06598.0953.14996.1577.25299.187.10999.0293.22302.044.341.044h.341v.539h-3.56403v-.539h.341c.13202,0,.24902-.0147.35199-.044.10205-.0367.18304-.1063.242-.209.06604-.11.099-.2713.099-.484v-2.508h-3.13495v2.508c0,.2127.02899.374.08795.484.06604.1027.15002.1723.25299.209.11005.0293.22705.044.35205.044h.341v.539h-3.56403Zm12.77698.11c-.81396,0-1.48798-.1687-2.02399-.506-.53497-.3373-.93799-.8103-1.21002-1.419-.26398-.6087-.396-1.32-.396-2.134s.13202-1.52171.396-2.123c.27203-.6013.67505-1.067,1.21002-1.397.54303-.3373,1.22101-.506,2.03503-.506.77795,0,1.43396.1687,1.96899.506.53595.33.94299.7993,1.22101,1.408.27899.6013.41797,1.309.41797,2.12299s-.13898,1.52531-.41797,2.134c-.27802.6013-.68903,1.0707-1.23206,1.408-.53497.3373-1.19098.506-1.96899.506Zm0-.671c.37402,0,.68604-.0733.935-.22.25702-.154.46204-.374.61603-.66.16199-.2933.27899-.64899.35199-1.067.07404-.418.10999-.8947.10999-1.43,0-.528-.03595-1.001-.10999-1.419-.073-.418-.18701-.77-.341-1.056-.15399-.2933-.35901-.5133-.61597-.66-.25604-.154-.56799-.231-.935-.231-.36603,0-.68201.077-.94604.231-.25598.1467-.46497.3667-.62695.66-.15405.286-.26703.638-.341,1.056-.073.418-.11005.891-.11005,1.419,0,.5353.03705,1.012.11005,1.43.07397.41801.18695.7737.341,1.067.16199.286.37097.506.62695.66.26404.1467.57599.22.935.22Z" style="fill: #5c5c5c; stroke-width: 0px;"/>
  </g>
  <g id="logotypes">
    <g id="logo-perekrestok">
      <path d="m416.38,325.39001c-2.14999,0-3.61002.87997-4.79001,2.03998l-4.25,4.38,4.25,4.38c1.17999,1.16,2.64001,2.04999,4.79001,2.04999,3.54999,0,6.25-2.88,6.25-6.42999s-2.70999-6.41998-6.25-6.41998Zm0,2.75c1.95999,0,3.51001,1.62,3.51001,3.67999s-1.54001,3.67999-3.51001,3.67999c-1.14001,0-1.94-.35001-2.85001-1.23999l-2.45001-2.43002,2.43002-2.41998c.92999-.91,1.72998-1.26001,2.87-1.26001" style="fill: #00521f; fill-rule: evenodd; stroke-width: 0px;"/>
      <path d="m395.26001,325.39001c-3.55002,0-6.26001,2.87997-6.26001,6.41998s2.70999,6.42999,6.26001,6.42999c2.14999,0,3.60999-.88998,4.78-2.04999l4.25-4.38-4.25-4.38c-1.18002-1.16-2.63-2.03998-4.78-2.03998Zm0,2.75c1.13998,0,1.94.35999,2.84998,1.25l2.45001,2.42999-2.42999,2.41998c-.92001.91-1.73001,1.26001-2.86002,1.26001-1.97,0-3.50998-1.60999-3.50998-3.67999s1.53998-3.67999,3.50998-3.67999" style="fill: #7ab71a; fill-rule: evenodd; stroke-width: 0px;"/>
      <path d="m405.82001,333.34c-.38,0-4.38,4.25-4.38,4.25-1.16,1.17999-2.04001,2.64001-2.04001,4.79001,0,3.54999,2.88,6.25,6.42999,6.25s6.43002-2.70001,6.43002-6.25c0-2.14999-.89001-3.61002-2.05002-4.79001l-4.38-4.25h-.00998Zm0,3.73999l2.41998,2.43002c.91.92999,1.26001,1.72998,1.26001,2.85999,0,2-1.57999,3.51001-3.67999,3.51001s-3.67999-1.51001-3.67999-3.51001c0-1.13998.34998-1.94,1.23999-2.85001l2.42999-2.44998.01001.00998Z" style="fill: #009035; fill-rule: evenodd; stroke-width: 0px;"/>
      <path d="m405.82001,315c-3.55002,0-6.42999,2.70999-6.42999,6.25,0,2.16.88998,3.60999,2.03998,4.79001l4.38,4.25,4.38-4.25c1.16-1.18002,2.04999-2.63,2.04999-4.79001,0-3.54999-2.88-6.25-6.42999-6.25m0,2.75c2.06,0,3.67999,1.54001,3.67999,3.5,0,1.14001-.34998,1.94-1.25,2.85001l-2.42999,2.44998-2.41998-2.42999c-.91-.92999-1.26001-1.72998-1.26001-2.87,0-2,1.57999-3.5,3.67999-3.5Z" style="fill: #bdcd00; fill-rule: evenodd; stroke-width: 0px;"/>
      <path d="m561.29999,347.57001h2.64001v-.85001h-2.64001v-1.89999h3.33002v-.88h-4.32001v6.73001h4.41998v-.89001h-3.41998v-2.20999h-.01001Zm-2.20996,2.31c-.21002,0-.26001-.12-.35004-.34-.31-.84-.27997-1.21002-.5-1.70001-.08997-.20999-.32001-.60001-.78998-.76001.33002-.14999.51001-.45999.60999-.73999.17999-.5.22003-1.23001.40997-1.47.07001-.09.21002-.17999.29004-.17999.02997,0,.07001,0,.20001.01999h.09998v-.81l-.06-.01999c-.07001-.02002-.20001-.04001-.33002-.04001-.31,0-.81.10001-1.07996.70001-.23004.5-.27002,1.31998-.53003,1.75-.22998.38-.59003.44-.95001.44h-.82001v-2.80002h-.98999v6.73001h.98999v-3.09h.81c.44,0,.90002.01999,1.15002.47.09998.17999.15997.44998.28003.91.10999.47.19995.88998.38995,1.22998.25.44.59003.57001.92999.57001h.02002c.17999,0,.32001-.04001.45001-.10999l.03998-.03003v-.81l-.12.04001s-.08997.01001-.14996.01001m-6.73004-3.05002c-.32001.30002-.78998.30002-1.07996.30002h-1.19v-2.31h1.26996c.29999,0,.73004.03998,1.01001.28.14001.10999.34998.35999.34998.82001,0,.40997-.15997.72998-.34998.90997m.67999-2.44998c-.51996-.39001-1.16998-.44-1.70001-.44h-2.25v6.73001h1v-2.66h1.34003c.45001,0,1.13,0,1.71002-.54001.19995-.17999.63995-.67999.63995-1.54001s-.38995-1.29999-.72998-1.56m-8.28998,3.55002l.85999-2.72.84998,2.72h-1.70996Zm1.47998-3.98001h-1.07001l-2.17999,6.73001h.92999l.59003-1.91h2.21997l.60999,1.91h1.09003l-.03998-.12003-2.15002-6.60999Zm-7.25,5.10999l-1.90997-5.10999h-1.36005v6.73001h.87v-5.35001l2.01001,5.35001h.67999l1.97003-5.37003v5.37003h1v-6.73001h-1.35004l-1.89996,5.10999h-.01001Zm-5.57001-2.22c-.33002.30002-.78998.30002-1.08997.30002h-1.19v-2.31h1.26996c.29999,0,.73004.03998,1.01001.28.14001.10999.35004.35999.35004.82001,0,.40997-.16003.72998-.35004.90997Zm.66998-2.44998c-.51996-.39001-1.15997-.44-1.69-.44h-2.25995v6.73001h1v-2.66h1.33997c.45001,0,1.13,0,1.71002-.54001.20001-.17999.64001-.67999.64001-1.54001s-.39001-1.29999-.74005-1.56m-8.35999,3.19h2.63v-.85001h-2.63v-1.89999h3.32001v-.88h-4.32001v6.73001h4.41998v-.89001h-3.41998v-2.20999Zm-7.27997,3.10001h1v-5.85001h2.77997v5.85001h1v-6.73001h-4.77997v6.73001Zm-3.04004-2.91l-1.79999-3.82001h-1.04999l2.34998,4.94c-.07001.22-.21997.57001-.40997.73999-.14001.12003-.37.24002-.67999.24002-.12,0-.21002-.01001-.33002-.06l-.12-.05002v.89001l.06.01999c.10999.04001.26001.08002.46002.08002.38,0,.79999-.14001,1.12-.42001.42999-.38.63-.92999.82001-1.42001l2-4.95999h-.92004l-1.48999,3.82001h-.01001Zm54.29004-2.94v-.88h-4.70001v.88h1.84998v5.85001h1v-5.85001h1.85004Zm-58.20001,3.54001c-.11002.57001-.41.92999-.52002,1.07001-.28998.31-.56998.44998-1.01999.44998-.76999,0-1.19-.48001-1.44-.98999-.22-.47-.29999-1.10001-.29999-1.64999,0-.46002.04999-1.17001.34998-1.68002.37003-.64999.86002-.81998,1.38-.81998.52002,0,.88.17999,1.19.63998.17999.28.29001.59.33002.82001l.01999.07999h.09l.85001-.17999v-.07999c-.09003-.65002-.39001-1.19-.79001-1.56-.54001-.5-1.13998-.60001-1.66998-.60001-.45001,0-1.34.07999-2.04001.89999-.20999.23999-.76999,1-.76999,2.45999,0,.86002.20999,1.75.63998,2.39999.67001,1.04001,1.57001,1.17001,2.17001,1.17001h.01999c.5,0,1.09-.09,1.66-.70999.38998-.41.66-.95001.76999-1.5v-.09l-.89999-.20001-.01999.09v-.01999Z" style="fill: #7ab71a; fill-rule: evenodd; stroke-width: 0px;"/>
      <path d="m459.73001,337.13c-1.37003,0-2.20001-1.09-2.20001-2.88v-2.79001c0-1.53998.86002-2.67999,2.20001-2.67999,1.44,0,2.34998,1.19,2.34998,4.12,0,2.17999-.47998,4.23001-2.34998,4.23001Zm1.84-10.86002c-.23001-.03-.45001-.04999-.64999-.03998-1.33002.07999-2.53.5-3.41,1.04999v-.41c0-.16.06998-.45999-.31-.45999h-2.17001c-.62.06-1.10001.5-1.10999,1.04001v13.56c0,1.95999,1.38998,3.17999,3.09998,3.17999h.14001c.16998,0,.35999-.07001.35999-.39999v-4.89001c.74002.45001,1.68002.81,2.92001.82001.45001,0,.87-.04001,1.26001-.11002,2.25-.34,4.31998-2.37,4.31998-6.78,0-3.64999-1.54999-6.32999-4.44998-6.56Z" style="fill: #00521f; fill-rule: evenodd; stroke-width: 0px;"/>
      <path d="m551.23999,336.03c-.47998.82999-1.17999,1.09-1.87,1.09s-1.39001-.25-1.88-1.09c-.29999-.53-.58002-1.37-.58002-3.10999,0-.96002.05005-2.20001.66003-3.14001.42999-.67999.98999-1.01001,1.79999-1.01001s1.35999.33002,1.78998,1.01001c.61005.92999.66003,2.17999.66003,3.14001,0,1.75-.28003,2.57999-.59003,3.10999m-1.87-9.79001c-1.26996,0-2.98999.30002-4.47998,1.77002-.60999.60999-1.91998,2.20999-1.91998,4.91,0,2.06998.81,3.91998,2.01996,5.09.89001.82999,2.33002,1.64999,4.38,1.64999s3.48999-.81,4.38-1.64999c1.22003-1.16,2.03003-3.01001,2.03003-5.09,0-2.70001-1.32001-4.30002-1.92999-4.91-1.49005-1.46002-3.21002-1.77002-4.48004-1.77002Z" style="fill: #00521f; fill-rule: evenodd; stroke-width: 0px;"/>
      <path d="m527.10999,328.76999c.71002,0,1.29004.38,1.62.84.14001.20001.25.48001.34003.78003.09998.31.28998.51999.60999.51999h2.64001c.14001,0,.25-.13.22998-.26001-.22998-1.16-.78998-2.31-1.62-3.07001-.96002-.87997-2.39996-1.34-3.87-1.34-1.64001,0-3.10999.63-4.09003,1.52002-.98999.88-2.04999,2.56-2.04999,5.20999,0,2.20001.76001,4.01999,1.90002,5.10999.65997.63,2,1.57001,4.16998,1.57001,1.95001,0,3.19-.73999,3.90002-1.34.76996-.67999,1.38-1.70001,1.64996-2.88.02002-.07999,0-.23999-.21997-.23999h-2.72998c-.31.01001-.46002.19-.57001.48001,0,0-.01001.03998-.04004.07999v.03c0,.01999-.01001.04001-.01996.06-.07001.16-.14001.31-.23004.44-.44995.67999-.90997.84-1.56.84-.60999,0-1.21997-.14999-1.71997-1.01001-.35999-.60999-.54999-1.48999-.54999-3.15997,0-2,.29999-2.78.51996-3.16.38-.60001,1.01001-1.01001,1.72003-1.01001" style="fill: #00521f; fill-rule: evenodd; stroke-width: 0px;"/>
      <path d="m443.82999,331.54999c0-.78998.28-1.51999.70001-1.97.47-.47998,1.14001-.81,1.92999-.81.98001,0,1.57001.48001,1.92001.96002.35999.50998.54001,1.20999.51001,1.81998h-5.06003Zm2.58002-5.31c-1.14001,0-2.76001.18002-4.25,1.44-1.01999.86002-2.28,2.45001-2.28,5.29001,0,2.42999.95999,4,1.85001,4.88.95999.95999,2.53,1.79999,4.64999,1.79999,1.72,0,3.10999-.45999,4.12-1.16998.70999-.49002,1.57001-1.33002,2.03-2.71002.04001-.10999.09-.34-.20001-.34h-3.03998c-.18002,0-.37.21002-.41.30002-.11002.25-.26001.47-.42999.63998-.35001.35001-.96002.73001-1.89001.73001-1.20999,0-1.92999-.63-2.29999-1.36002-.30002-.56-.45001-1.34-.43002-2.04999h8.45001c.34-.04999.45001-.25.47-.70999v-.10001c-.04001-2.10001-.72-3.59-1.48999-4.51001-.86002-1.04001-2.40002-2.14999-4.85001-2.14999" style="fill: #00521f; fill-rule: evenodd; stroke-width: 0px;"/>
      <path d="m491.32999,335.17999c-.81-1.67999-1.53998-2.67999-2.22-2.78,0,0,.92001-.04999,1.54001-1.73999.20999-.59.81-1.98001,1.20999-2.82001.15002-.31.39001-.66.65002-.98001.03998-.03998.04999-.09998.04999-.15997,0-.15002-.10999-.27002-.26001-.28h-2.63998c-.73001.01999-1.07001.59-1.31,1.14999-.39001.91-.55002,1.45999-1.11002,2.72-.26999.59-.75,1.23999-1.84,1.23999h-.76999v-4.63c0-.16.07001-.47-.31-.47h-2.35001c-.62.06-1.11002.51001-1.12,1.06v9.91c0,.29001.01999.66.14999,1.04001.26001.57001.76999,1.04999,1.44,1.04999h1.64999c.42999,0,.54001-.22.54001-.54999v-5.20999h.66c1.44998,0,2.09,1.64999,2.69998,2.81998.57001,1.07001,1.55002,2.99002,3.30002,2.90002h2.07999c.14001-.01001.25-.13.25-.27002,0-.04999-.01001-.09-.03-.13-.48999-.79999-1.59-2.59-2.26999-3.84998" style="fill: #00521f; fill-rule: evenodd; stroke-width: 0px;"/>
      <path d="m437.57999,322.79001h-10.37c-.63998,0-1.25998.53998-1.25998,1.28998v11.98001c0,.45999.04999,1,.28,1.57001.47,1.03,1.45999,1.76999,2.63998,1.89999h.48001c.32999,0,.38-.16.38-.53v-12.20001c.04999-.22998.25998-.40997.50998-.41998h4.26001c.25,0,.45999.19.51999.42999v9.26001c0,.45999.04001,1,.27002,1.57001.47,1.03,1.45999,1.76999,2.64999,1.89999h.47c.32999,0,.38-.16.38-.53v-14.93002c0-.59-.52002-1.26999-1.22-1.26999" style="fill: #00521f; fill-rule: evenodd; stroke-width: 0px;"/>
      <path d="m544.26001,326.69c.03998-.12.01001-.29001-.23999-.29001h-12.14001c-.25,0-.28003.16-.23999.29001.38,1.23999,1.28998,2.41,2.59998,2.45999h1.32001c.28003.04001.5.27002.51001.56v6.68002c0,.47998.08002.78998.26001,1.23999.46997,1.01999,1.45996,1.76001,2.63,1.88998h.46997c.33002,0,.39001-.16.39001-.53v-9.28c0-.28998.22998-.51999.51001-.56h1.32996c1.31-.06,2.22003-1.22998,2.60004-2.45999Z" style="fill: #00521f; fill-rule: evenodd; stroke-width: 0px;"/>
      <path d="m569.52002,339.03c-.48999-.79999-1.59003-2.59-2.27002-3.85001-.81-1.67999-1.53998-2.67999-2.21997-2.78,0,0,.91998-.04999,1.53998-1.73999.21002-.59.79999-1.98001,1.21002-2.82001.14996-.31.37994-.66.63995-.98001.03003-.03998.04999-.09998.04999-.15997,0-.15002-.10999-.27002-.25995-.28h-2.64001c-.72998.01999-1.07001.59-1.31,1.14999-.39001.91-.54999,1.45999-1.10999,2.72-.26001.59-.75,1.23999-1.84003,1.23999h-.77002v-4.63c0-.16.07001-.47-.32001-.47h-2.34998c-.62.06-1.10999.51001-1.12,1.06v9.91c0,.29001.02002.66.15002,1.04001.25995.57001.76996,1.04999,1.44,1.04999h1.64996c.42999,0,.54004-.22.54004-.54999v-5.20999h.65997c1.45001,0,2.09003,1.64999,2.70001,2.81998.56,1.07001,1.54999,2.99002,3.29999,2.90002h2.08002c.13995-.01001.26001-.13.26001-.27002,0-.04999-.02002-.09-.03003-.13" style="fill: #00521f; fill-rule: evenodd; stroke-width: 0px;"/>
      <path d="m499.91,337.13c-1.37,0-2.20001-1.09-2.20001-2.88v-2.79001c0-1.53998.86002-2.67999,2.20001-2.67999,1.44,0,2.35999,1.19,2.35999,4.12,0,2.17999-.47998,4.23001-2.35999,4.23001Zm1.85001-10.86002c-.23001-.03-.45001-.04999-.65002-.03998-1.32999.07999-2.53.5-3.40997,1.04999v-.41c0-.16.06998-.45999-.31-.45999h-2.17001c-.62.06-1.10001.5-1.11002,1.04001v13.56c0,1.95999,1.39001,3.17999,3.10001,3.17999h.14001c.16998,0,.35999-.07001.35999-.39999v-4.89001c.74002.45001,1.68002.81,2.93002.82001.43997,0,.87-.04001,1.25-.11002,2.25998-.34,4.31998-2.37,4.31998-6.78,0-3.64999-1.54999-6.32999-4.44998-6.56Z" style="fill: #00521f; fill-rule: evenodd; stroke-width: 0px;"/>
      <path d="m511.10001,331.54999c0-.78998.28-1.51999.70999-1.97.45001-.47998,1.13-.81,1.91998-.81.98999,0,1.57001.48001,1.92004.96002.34998.50998.52997,1.20999.5,1.81998h-5.06003.01001Zm2.57999-5.31c-1.14001,0-2.75998.18002-4.25,1.44-1.00998.86002-2.28,2.45001-2.28,5.29001,0,2.42999.95999,4,1.84,4.88.96002.95999,2.53,1.79999,4.66003,1.79999,1.70996,0,3.10999-.45999,4.12-1.16998.70996-.49002,1.57001-1.33002,2.02997-2.71002.04004-.10999.09003-.34-.20001-.34h-3.02997c-.17999,0-.37.21002-.41003.30002-.10999.25-.25995.47-.42999.63998-.35999.35001-.95996.73001-1.89996.73001-1.21002,0-1.92001-.63-2.30002-1.36002-.29999-.56-.45999-1.34-.42999-2.04999h8.45999c.34003-.04999.45001-.25.47003-.70999v-.10001c-.03003-2.10001-.72003-3.59-1.49005-4.51001-.85999-1.04001-2.39996-2.14999-4.84998-2.14999" style="fill: #00521f; fill-rule: evenodd; stroke-width: 0px;"/>
      <path d="m475.42999,326.45001h-6.06l-1.95999-.01001c0,2.34,2.29001,3.13998,3.98999,3.14999h5.45001l2.57001.01001c0-2.34-2.29001-3.14001-3.99002-3.14999Z" style="fill: #00521f; fill-rule: evenodd; stroke-width: 0px;"/>
      <path d="m475.42999,331.42001h-8.01999c0,2.34,2.29001,3.14999,3.98999,3.14999h5.45001l2.57001.00998c0-2.34-2.29001-3.13998-3.99002-3.13998v-.01999Z" style="fill: #00521f; fill-rule: evenodd; stroke-width: 0px;"/>
      <path d="m475.42999,336.39999h-8.01999c0,2.34,2.29001,3.14001,3.98999,3.14001h5.45001l2.57001.00998c0-2.34-2.29001-3.13998-3.99002-3.14999Z" style="fill: #00521f; fill-rule: evenodd; stroke-width: 0px;"/>
    </g>
    <g id="logo-vardex">
      <path d="m504.07999,146.2c.43002-.92999.86002-1.84,1.29001-2.77-.13-.00999-.25-.01999-.37-.03-.06,0-.12,0-.17001-.01999-.04999,0-.07999.00999-.09998.06-.21002.45999-.43002.92-.64001,1.39-.01001.02-.01999.03999-.04001.06999-.00998-.01999-.01999-.03-.03-.04999-.17999-.32001-.37-.64-.54999-.96001-.01999-.03-.01999-.06999,0-.10001.07001-.15999.14999-.32999.23001-.5-.12003-.00999-.22-.01999-.33002-.03-.04999,0-.10001-.01999-.14999-.00999-.11002.00999-.16-.05-.20999-.13-.16-.28999-.33002-.58-.5-.87-.01001-.02-.02002-.03999-.04001-.07001,1.47.13,2.92999.26001,4.41.39001-.89999,1.93999-1.81,3.87-2.70999,5.81999-1.22-2.14-2.44-4.25999-3.67001-6.39h.06c.36002.03.73001.07001,1.10001.10001.04999,0,.07001.03.10001.06999.66,1.15001,1.31998,2.3,1.98999,3.45.10999.19.22.38.34.58" style="fill: #991b26; stroke-width: 0px;"/>
      <path d="m513.62,144.25999h.71002c.37,0,.75,0,1.12.01001.07001,0,.14996.01999.21997.03.33002.09.48999.3.5.67,0,.08,0,.17-.01996.25-.04004.2-.15002.34-.34003.42-.12.05-.25.08-.38.13.25.36.48999.70999.75,1.08h-.58997c-.02002,0-.04004-.03-.05005-.05-.21997-.32001-.44-.63-.65997-.95-.03003-.04001-.06-.06001-.10999-.06001h-.61005v1.05h-.53998v-2.58Zm.53998.48001v.56999h1.04004c.08997,0,.17999-.03.26001-.05.09998-.03.13995-.11.14996-.22.01001-.17999-.07996-.28999-.29999-.29999-.39001-.01001-.77002,0-1.15997,0" style="fill: #991b26; stroke-width: 0px;"/>
      <path d="m516.85999,146.84v-2.58h1.40002c.14001,0,.28998.02.42999.05.40997.09.67999.35001.79999.75.09003.32001.09003.64,0,.97-.13.45-.45996.73-.91998.79001-.15002.01999-.28998.03-.44.03h-1.28003l.01001-.01001Zm.54004-.47c.33997-.01999.67999.03,1.01996-.03999.29004-.06.48999-.23.54999-.53.02002-.09.03003-.18001.03003-.27,0-.47-.25-.78-.73999-.8-.28003-.00999-.56,0-.84003,0,0,0-.01001,0-.01996.01001v1.64-.01001Z" style="fill: #991b26; stroke-width: 0px;"/>
      <path d="m520.71997,146.37h1.86005v.46001h-2.40002v-2.58h2.33002v.46001h-1.79004v.56999h1.20001v.44h-1.20001v.64" style="fill: #991b26; stroke-width: 0px;"/>
      <path d="m524.58002,145.5c.32001.45.63995.89.96997,1.34h-.60999c-.02002,0-.03998-.03-.06-.05-.20001-.25-.40002-.5-.59998-.75-.02002-.01999-.04004-.04999-.06006-.07999-.01996.01999-.03998.03999-.06.06999-.19995.25999-.39996.50999-.59998.77-.02997.03-.04999.05-.09998.05h-.51001c.01996-.03.03998-.05.04999-.07001.28998-.39.59003-.78999.88-1.17999.02997-.04001.02997-.07001,0-.11-.28003-.38-.54999-.76001-.82001-1.13-.02002-.02-.02997-.05-.06-.08h.32001c.10999,0,.22998-.03.32001.00999.08997.04001.14001.16.20001.24001.12994.17.25995.34.38995.5.01001.02.03003.03.05005.06.01996-.01999.02997-.03999.04999-.06.17999-.24001.35999-.47.52997-.70999.03003-.04001.06-.06001.10999-.05h.53003c-.32001.42-.64001.83-.95001,1.25" style="fill: #991b26; stroke-width: 0px;"/>
      <path d="m513.03003,146.84h-.5c-.02002,0-.05005-.03-.07001-.05-.10004-.17999-.21002-.36-.31-.53999-.02002-.03999-.05005-.05-.09003-.05h-1.12c-.04999,0-.07001.02-.08002.06-.07999.18001-.15997.35001-.23999.53-.01999.04001-.04999.06001-.09.06001h-.44c.01001-.03.01999-.05.03-.07001.39001-.81999.78-1.63,1.17001-2.45.01999-.05.03998-.07001.10001-.06h.29999c.01999,0,.06.01999.07001.03999.41998.83.83002,1.66,1.25,2.49001,0,.00999,0,.02.02002.05m-1.05002-1.01001c-.16-.28-.32001-.55-.48001-.83-.16.28-.29999.55-.45999.83h.94Z" style="fill: #991b26; stroke-width: 0px;"/>
      <path d="m507,144.25999h.54999c.02002,0,.05002.03.07001.06001.25.53.5,1.06999.73999,1.59999.01001.03.03003.06.05002.11.01999-.03.03-.05.04001-.08.25-.53999.50998-1.08.75998-1.62.02002-.06.05002-.08.12-.07001h.46002c-.01001.03-.02002.06001-.03.08-.37.81-.74002,1.63-1.11002,2.44-.01999.05-.04999.07001-.10001.07001h-.28998c-.04001,0-.06-.01001-.08002-.05-.38-.83-.76999-1.66-1.14999-2.49001,0-.00999,0-.02-.01999-.05" style="fill: #991b26; stroke-width: 0px;"/>
    </g>
    <g id="logo-vkusvill">
      <path d="m934.21997,170.11h-3.12v-5.96001h2.74005c1.23999,0,1.90997.77,1.90997,1.69,0,.41-.21002.83-.52002,1.15001.47003.25.87.79999.87,1.37999,0,1.02-.79999,1.74001-1.88,1.74001Zm-1.63995-1.2h1.44c.35999,0,.58997-.26001.58997-.59s-.22998-.60001-.58997-.60001h-1.44v1.19Zm0-2.38h1.07996c.39001,0,.61005-.25999.61005-.59s-.21002-.59-.61005-.59h-1.07996v1.17999Z" style="fill: #47b872; stroke-width: 0px;"/>
      <path d="m917.65002,170.11l-2.15002-3.05,2.08002-2.91h-1.73004l-1.64996,2.39v-2.39h-1.51001v5.96001h1.51001v-2.45l1.65997,2.45h1.79004Z" style="fill: #47b872; stroke-width: 0px;"/>
      <path d="m944.71997,164.14999v4.41c0,.2-.08997.35001-.26996.35001-.26001,0-.27002-.3-.27002-.5h-1.40997c0,.95999.54999,1.84999,1.72998,1.84999,1.03003,0,1.73999-.84,1.73999-1.86v-2.90999h2.04004v4.62h1.50995v-5.96001h-5.07001Z" style="fill: #47b872; stroke-width: 0px;"/>
      <path d="m924.41998,164.14999l-2.08997,4.40001c-.39001.84-1.17999,1.70999-2.54004,1.70999-1.14996,0-2.23999-.7-2.42999-2.23999h1.46002c.10999.62.54999.89,1.03998.89.42004,0,.70001-.25.78003-.39l-2.48004-4.37001h1.73004l1.57996,2.88,1.30005-2.88h1.64996Z" style="fill: #47b872; stroke-width: 0px;"/>
      <path d="m910.01001,170.11h-4.01001v-5.96001h3.64001c1.23999,0,1.90997.77,1.90997,1.69,0,.41-.20996.83-.51996,1.15001.46997.25.87.79999.87,1.37999,0,1.02-.80005,1.74001-1.88,1.74001m-2.54004-1.2h2.34003c.35999,0,.58997-.26001.58997-.59s-.22998-.60001-.58997-.60001h-2.35004v1.19h.01001Zm0-2.38h1.97003c.39001,0,.60999-.25999.60999-.59s-.21997-.59-.60999-.59h-1.97003v1.17999Z" style="fill: #47b872; stroke-width: 0px;"/>
      <path d="m928.73999,167.87c-.22998.55-.72998.93001-1.42999.93001-.97998,0-1.57001-.77-1.57001-1.67,0-.91.59003-1.67,1.57001-1.67.70001,0,1.20001.39,1.42999.93999h1.62c-.29999-1.36-1.45001-2.39-3.04999-2.39-1.88,0-3.13,1.42-3.13,3.13s1.25,3.13,3.13,3.13c1.59998,0,2.73999-1.03,3.04999-2.39h-1.62v-.01001Z" style="fill: #47b872; stroke-width: 0px;"/>
      <path d="m940.98999,164.14999l-2.51001,3.44v-3.44h-1.51001v5.96001h1.37006l2.51996-3.44v3.44h1.51001v-5.96001h-1.38Z" style="fill: #47b872; stroke-width: 0px;"/>
      <path d="m951.47998,164.14999v4.03c0,.37001-.20996.59001-.58997.59001h-.44v1.33h.79999c1.04999,0,1.75-.66,1.75-1.87001v-2.73999h1.53003v4.62h1.50995v-5.96001h-4.56Z" style="fill: #47b872; stroke-width: 0px;"/>
    </g>
  </g>
  <g id="interactive">
    <rect id="s-0a07" x="494" y="117.5" width="40" height="53" />
    <rect id="s-0a05-a" x="703" y="117.5" width="34" height="50" />
    <rect id="s-0a06" x="538" y="117.5" width="41" height="53" />
    <rect id="s-0a05" x="741" y="117.5" width="38" height="50" />
    <rect id="s-0a04" x="783" y="117.5" width="28" height="50" />
    <rect id="s-0a03" x="814" y="117.5" width="28" height="50" />
    <rect id="s-0a02" x="846" y="117.5" width="21" height="50" />
    <path id="s-0a01" d="m885,167.5v-.5h-14.5v-49.5h102v99.5h-87.5v-49.5Z"/>
    <path id="s-0b02" d="m835,406v.5h75v49H339.5V196.5h288v113.5h63v-38.5h144.5v134.5Z" />
  </g>
</svg>