<?xml version="1.0" encoding="utf-8"?>
<!-- Generator: Adobe Illustrator 26.1.0, SVG Export Plug-In . SVG Version: 6.00 Build 0)  -->
<svg version="1.1" id="Layer_1" xmlns="http://www.w3.org/2000/svg" xmlns:xlink="http://www.w3.org/1999/xlink" x="0px" y="0px"
	 viewBox="0 0 1200 600" style="enable-background:new 0 0 1200 600;" xml:space="preserve">
<g id="Layer_1_00000110439290625491020820000012909221423199909010_">
	<rect x="0.5" y="0.5" style="fill:#FFFFFF;stroke:#D9D9D9;" width="1199" height="599"/>
	<path style="fill:#F8F8F8;stroke:#5C5C5C;stroke-width:2;" d="M341.5,107L278,171v227.5l59,59h522l62.5-66V171L859,107H341.5z"/>
	<path style="fill:#FFFFFF;stroke:#D9D9D9;" d="M627.5,391.5H627V447H391.5V227.5H627V353h60V227.5h179v123h48v37.2999878
		L857.7849731,447H689.5v-55.5H627.5z"/>
	<path style="fill:#FFFFFF;stroke:#D9D9D9;" d="M914,220H340.5v5.5h-56v-48.7929993L344.7070007,116.5h512.0860596
		l57.2069702,57.2070007V220H914z"/>
	<path style="fill:#5C5C5C;" d="M597.460022,122.8519974c0,0.3320007-0.0419922,0.6340027-0.1260376,0.9060059
		c-0.0799561,0.2679977-0.2039795,0.5-0.3720093,0.6959991c-0.1640015,0.1959991-0.3719482,0.3460007-0.6239624,0.4499969
		c-0.2479858,0.1040039-0.5380249,0.1559982-0.8699951,0.1559982c-0.3400269,0-0.6360474-0.0519943-0.8880005-0.1559982
		c-0.2480469-0.1080017-0.4559937-0.2579956-0.6240234-0.4499969c-0.1640015-0.1959991-0.2860107-0.4300003-0.3659668-0.7020035
		c-0.0800171-0.2719955-0.1200562-0.5739975-0.1200562-0.9059982c0-0.4400024,0.0720215-0.8239975,0.2160034-1.1520004
		c0.144043-0.3280029,0.3640137-0.5839996,0.6600342-0.7679977c0.2999878-0.1840057,0.6759644-0.276001,1.1279907-0.276001
		c0.4400024,0,0.8060303,0.0919952,1.0980225,0.276001c0.2959595,0.1800003,0.5180054,0.435997,0.6659546,0.7679977
		C597.3859863,122.0220032,597.460022,122.4079971,597.460022,122.8519974z M594.1539917,122.8519974
		c0,0.3440018,0.0460205,0.6399994,0.1380005,0.8880005c0.09198,0.2440033,0.2360229,0.4340057,0.4320068,0.5699997
		c0.1959839,0.1320038,0.4440308,0.1980057,0.7440186,0.1980057c0.3039551,0,0.552002-0.0660019,0.7439575-0.1980057
		c0.1920166-0.135994,0.3340454-0.3259964,0.4260254-0.5699997c0.09198-0.2480011,0.1380005-0.5439987,0.1380005-0.8880005
		c0-0.5159988-0.1040039-0.9179993-0.3120117-1.2059937c-0.2039795-0.2920074-0.5339966-0.4380035-0.9899902-0.4380035
		c-0.3040161,0-0.5540161,0.0660019-0.75,0.197998c-0.1959839,0.1320038-0.3400269,0.3199997-0.4320068,0.564003
		C594.2000122,122.2139969,594.1539917,122.5080032,594.1539917,122.8519974z M599.03302,125h-0.6420288v-4.2839966h2.4119873
		v0.5519943H599.03302v1.3980026h1.6560059v0.552002H599.03302V125z M602.2030029,125h-0.6420288v-4.2839966h2.4120483v0.5519943
		h-1.7700195v1.3980026h1.6560059v0.552002h-1.6560059V125z M605.9310303,120.7160034
		c0.5599976,0,0.9679565,0.1139984,1.223999,0.3419952c0.2559814,0.223999,0.3839722,0.538002,0.3839722,0.9420013
		c0,0.1800003-0.0300293,0.3519974-0.0900269,0.5159988c-0.0559692,0.1640015-0.1499634,0.3120041-0.2819824,0.4440002
		c-0.132019,0.1279984-0.3079834,0.2300034-0.5280151,0.3059998c-0.2160034,0.0719986-0.4819946,0.1080017-0.7979736,0.1080017
		h-0.4619751V125h-0.6480103v-4.2839966H605.9310303z M605.8829956,121.262001h-0.5039673v1.5660019h0.3899536
		c0.2440186,0,0.447998-0.026001,0.6119995-0.0780029c0.1640015-0.0559998,0.2860107-0.1419983,0.3660278-0.2580032
		c0.0839844-0.1199951,0.1259766-0.2759933,0.1259766-0.4679947c0-0.2560043-0.0799561-0.4459991-0.2399902-0.5699997
		C606.4769897,121.3259964,606.2269897,121.262001,605.8829956,121.262001z M609.6049805,120.7160034
		c0.368042,0,0.6700439,0.0459976,0.9060059,0.1379929c0.2360229,0.0920029,0.4119873,0.2300034,0.5280151,0.4140015
		c0.1160278,0.1800003,0.1740112,0.4080048,0.1740112,0.6840057c0,0.2199936-0.0419922,0.4059982-0.1260376,0.5579987
		c-0.0799561,0.147995-0.18396,0.2699966-0.3119507,0.3659973c-0.1280518,0.0920029-0.2620239,0.1660004-0.4020386,0.2220001
		L611.572998,125h-0.7440186l-1.0319824-1.7340012h-0.7440186V125h-0.6479492v-4.2839966H609.6049805z M609.5629883,121.2679977
		h-0.5100098v1.4580002h0.5400391c0.2199707,0,0.3999634-0.0279999,0.539978-0.0839996
		c0.1439819-0.0559998,0.2479858-0.1399994,0.3120117-0.2519989c0.0679932-0.1119995,0.1019897-0.25,0.1019897-0.4140015
		c0-0.1719971-0.0360107-0.3079987-0.1079712-0.4079971c-0.0680542-0.1040039-0.1760254-0.1800003-0.3240356-0.2280045
		C609.9710083,121.2919998,609.7869873,121.2679977,609.5629883,121.2679977z M613.5219727,125h-1.6619873v-0.3720016
		l0.5100098-0.1500015v-3.2339935l-0.5100098-0.1560059v-0.371994h1.6619873v0.371994l-0.5039673,0.1560059v3.2339935
		l0.5039673,0.1500015V125z M616.1530151,121.2139969c-0.2120361,0-0.4020386,0.038002-0.5700073,0.114006
		c-0.1680298,0.0719986-0.3120117,0.1800003-0.4320068,0.3239975c-0.1160278,0.1439972-0.2059937,0.3180008-0.2700195,0.5220032
		c-0.0599976,0.2039948-0.0899658,0.4339981-0.0899658,0.6899948c0,0.3359985,0.0499878,0.6279984,0.1499634,0.8759995
		c0.1000366,0.2440033,0.25,0.4319992,0.4500122,0.564003c0.2000122,0.1319962,0.4520264,0.197998,0.7559814,0.197998
		c0.184021,0,0.3600464-0.0159988,0.5280151-0.0479965c0.1719971-0.0360031,0.3460083-0.0820007,0.5220337-0.1380005v0.5579987
		c-0.1680298,0.064003-0.3400269,0.1100006-0.5159912,0.1380005c-0.1760254,0.0319977-0.3800049,0.0479965-0.6120605,0.0479965
		c-0.4359741,0-0.7999878-0.0899963-1.09198-0.2699966c-0.2879639-0.1800003-0.5039673-0.4360046-0.6480103-0.7679977
		c-0.1439819-0.3320007-0.2160034-0.7200012-0.2160034-1.1640015c0-0.3240051,0.0440063-0.6200027,0.132019-0.8880005
		c0.09198-0.2720032,0.223999-0.5060043,0.3959961-0.7020035s0.3840332-0.3460007,0.6359863-0.4499969
		c0.2560425-0.1080017,0.5500488-0.1620026,0.882019-0.1620026c0.2160034,0,0.4279785,0.0240021,0.6359863,0.0719986
		c0.2080078,0.0440063,0.3959961,0.1080017,0.5640259,0.1920013l-0.2399902,0.5400009
		c-0.1400146-0.0639954-0.2919922-0.1200027-0.4559937-0.1679993
		C616.5029907,121.2399979,616.3330078,121.2139969,616.1530151,121.2139969z M620.5319824,125h-2.4119873v-4.2839966h2.4119873
		v0.5519943h-1.7639771v1.223999h1.6560059v0.5460052h-1.6560059v1.4039993h1.7639771V125z"/>
	<path style="fill:#5C5C5C;" d="M486.42099,234.8419952c0,0.256012-0.0619812,0.473999-0.1860046,0.654007
		c-0.1239929,0.1799927-0.3019714,0.3199921-0.5339966,0.4199982c-0.2319946,0.095993-0.5079956,0.1439972-0.8280029,0.1439972
		c-0.1559753,0-0.3059998-0.0099945-0.4499817-0.0299988c-0.1440125-0.0159912-0.2780151-0.0399933-0.4020081-0.0720062
		c-0.1239929-0.0319977-0.2340088-0.071991-0.3299866-0.1199951v-0.6119995
		c0.1600037,0.0720062,0.3479919,0.1380005,0.5639954,0.197998c0.2160034,0.0559998,0.4360046,0.0839996,0.6600037,0.0839996
		c0.1919861,0,0.3519897-0.026001,0.4799805-0.0780029c0.1280212-0.0519867,0.223999-0.1239929,0.2880249-0.2159882
		c0.0639954-0.0920105,0.0959778-0.1999969,0.0959778-0.3240051c0-0.1320038-0.0339966-0.2420044-0.1019897-0.3300018
		c-0.0639954-0.0919952-0.1660156-0.1759949-0.3059998-0.2519989c-0.1360168-0.0800018-0.3200073-0.1640015-0.552002-0.2519989
		c-0.1600037-0.0599976-0.3059998-0.1260071-0.4379883-0.197998c-0.1280212-0.076004-0.2420044-0.1640015-0.3420105-0.2640076
		c-0.0960083-0.0999908-0.1700134-0.2159882-0.2220154-0.3479919c-0.0519714-0.1320038-0.0779724-0.2859955-0.0779724-0.4620056
		c0-0.2359924,0.0579834-0.4380035,0.1739807-0.6060028c0.1199951-0.1679993,0.2839966-0.29599,0.4920044-0.3839874
		c0.2080078-0.0920105,0.4500122-0.1380005,0.7260132-0.1380005c0.2319946,0,0.4459839,0.0239868,0.6419983,0.071991
		c0.1999817,0.0440063,0.3899841,0.1060028,0.5699768,0.1860046l-0.2039795,0.5339966
		c-0.1640015-0.0679932-0.3300171-0.1239929-0.4980164-0.1679993s-0.3439941-0.0659943-0.5279846-0.0659943
		c-0.1600037,0-0.2940063,0.0240021-0.4020081,0.071991c-0.1080017,0.0480042-0.1900024,0.1139984-0.2460022,0.197998
		c-0.052002,0.0839996-0.0780029,0.1820068-0.0780029,0.2940063c0,0.1320038,0.0299988,0.2420044,0.0899963,0.3300018
		s0.1560059,0.1699982,0.2880249,0.2460022c0.1319885,0.071991,0.3059998,0.1519928,0.5219727,0.2399902
		c0.2400208,0.0920105,0.4440002,0.1920013,0.6119995,0.3000031c0.1720276,0.1080017,0.302002,0.2380066,0.3900146,0.3899994
		C486.3770142,234.4320068,486.42099,234.6179962,486.42099,234.8419952z M488.4590149,231.7160034
		c0.5599976,0,0.9679871,0.1139984,1.223999,0.3419952c0.2559814,0.223999,0.3839722,0.5379944,0.3839722,0.9420013
		c0,0.1799927-0.0299988,0.352005-0.0899963,0.5160065c-0.0559998,0.1639862-0.1499939,0.3119965-0.2819824,0.4440002
		c-0.132019,0.1279907-0.3080139,0.2299957-0.5280151,0.3059998c-0.2160034,0.071991-0.4819946,0.1079865-0.7980042,0.1079865
		h-0.4619751V236h-0.6480103v-4.2839966H488.4590149z M488.4110107,232.2619934h-0.5039978v1.5660095h0.3899841
		c0.243988,0,0.447998-0.026001,0.6119995-0.0780029c0.1640015-0.0559998,0.2860107-0.1419983,0.3659973-0.2579956
		c0.0840149-0.1200104,0.1260071-0.276001,0.1260071-0.4680023c0-0.2559967-0.0799866-0.4459991-0.2399902-0.5700073
		C489.0050049,232.326004,488.7550049,232.2619934,488.4110107,232.2619934z M492.2529907,236h-1.6619873v-0.371994
		l0.5100098-0.1500092v-3.2339935l-0.5100098-0.1560059v-0.371994h1.6619873v0.371994l-0.5039978,0.1560059v3.2339935
		l0.5039978,0.1500092V236z M494.2539978,231.7160034c0.3680115,0,0.6700134,0.04599,0.9060059,0.1380005
		c0.2359924,0.0919952,0.4119873,0.2299957,0.5279846,0.4140015c0.1159973,0.1799927,0.1740112,0.4079895,0.1740112,0.6839905
		c0,0.2200012-0.0419922,0.4060059-0.1260071,0.5579987c-0.0799866,0.1480103-0.1839905,0.2700043-0.3119812,0.3660126
		c-0.1280212,0.0919952-0.2620239,0.1660004-0.4020081,0.2220001L496.2219849,236h-0.743988l-1.0319824-1.7339935h-0.7440186V236
		h-0.6480103v-4.2839966H494.2539978z M494.2120056,232.2680054h-0.5100098v1.4579926h0.5400085
		c0.2200012,0,0.3999939-0.0279999,0.5400085-0.0839996c0.1439819-0.0559998,0.2479858-0.1399994,0.3119812-0.2519989
		c0.0679932-0.1119995,0.1020203-0.25,0.1020203-0.4140015c0-0.1719971-0.0360107-0.3079987-0.1080017-0.4080048
		c-0.0680237-0.1039886-0.1760254-0.1799927-0.3240051-0.2279968
		C494.6199951,232.2920074,494.4360046,232.2680054,494.2120056,232.2680054z M498.17099,236h-1.6619873v-0.371994
		l0.5100098-0.1500092v-3.2339935l-0.5100098-0.1560059v-0.371994h1.6619873v0.371994l-0.5039978,0.1560059v3.2339935
		l0.5039978,0.1500092V236z M500.4119873,236h-0.6479797v-3.7259979h-1.2839966v-0.5579987h3.2160034v0.5579987h-1.2840271V236z
		 M504.5539856,236h-0.6419983v-4.2839966h2.4120178v0.552002h-1.7700195v1.397995h1.6560059v0.552002h-1.6560059V236z
		 M508.4020081,236h-1.6620178v-0.371994L507.25,235.4779968v-3.2339935l-0.5100098-0.1560059v-0.371994h1.6620178v0.371994
		l-0.5039978,0.1560059v3.2339935l0.5039978,0.1500092V236z M510.6430054,236h-0.6480103v-3.7259979h-1.2839966v-0.5579987
		h3.2160034v0.5579987h-1.2839966V236z M516.0999756,236h-0.7859497l-2.1660156-3.4620056h-0.0239868
		c0.0039673,0.0800018,0.0079956,0.1660004,0.0119629,0.2580109c0.0079956,0.0919952,0.0140381,0.1899872,0.0180054,0.2939911
		c0.0040283,0.1000061,0.0079956,0.20401,0.0120239,0.3119965c0.0039673,0.1040039,0.0059814,0.2100067,0.0059814,0.3180084V236
		h-0.5880127v-4.2839966h0.7800293l2.1599731,3.4440002h0.0180054c-0.0039673-0.0599976-0.0079956-0.1340027-0.0119629-0.2220001
		c-0.0040283-0.0920105-0.0080566-0.1900024-0.0120239-0.2940063c0-0.1040039-0.0020142-0.2099915-0.0059814-0.3179932
		c-0.0040283-0.1080017-0.0079956-0.2100067-0.0120239-0.3059998v-2.3040009h0.5999756V236z M519.6539917,236h-2.4119873v-4.2839966
		h2.4119873v0.552002h-1.7639771v1.223999h1.6560059v0.54599h-1.6560059v1.404007h1.7639771V236z M523.0419922,234.8419952
		c0,0.256012-0.0620117,0.473999-0.1859741,0.654007c-0.1240234,0.1799927-0.302002,0.3199921-0.5339966,0.4199982
		c-0.2319946,0.095993-0.5079956,0.1439972-0.8280029,0.1439972c-0.1560059,0-0.3060303-0.0099945-0.4500122-0.0299988
		c-0.1439819-0.0159912-0.2780151-0.0399933-0.4019775-0.0720062c-0.1240234-0.0319977-0.2340088-0.071991-0.3300171-0.1199951
		v-0.6119995c0.1599731,0.0720062,0.3479614,0.1380005,0.5639648,0.197998
		c0.2160034,0.0559998,0.4360352,0.0839996,0.6600342,0.0839996c0.1920166,0,0.3519897-0.026001,0.4799805-0.0780029
		c0.1279907-0.0519867,0.223999-0.1239929,0.2880249-0.2159882c0.0639648-0.0920105,0.0960083-0.1999969,0.0960083-0.3240051
		c0-0.1320038-0.0339966-0.2420044-0.1020508-0.3300018c-0.0639648-0.0919952-0.1659546-0.1759949-0.3059692-0.2519989
		c-0.1359863-0.0800018-0.3200073-0.1640015-0.552002-0.2519989c-0.1599731-0.0599976-0.3060303-0.1260071-0.4379883-0.197998
		c-0.1279907-0.076004-0.2420044-0.1640015-0.342041-0.2640076c-0.0959473-0.0999908-0.1699829-0.2159882-0.2219849-0.3479919
		s-0.0780029-0.2859955-0.0780029-0.4620056c0-0.2359924,0.0580444-0.4380035,0.1740112-0.6060028
		c0.1199951-0.1679993,0.2839966-0.29599,0.4920044-0.3839874c0.2080078-0.0920105,0.4500122-0.1380005,0.7260132-0.1380005
		c0.2319946,0,0.4459839,0.0239868,0.6419678,0.071991c0.2000122,0.0440063,0.3900146,0.1060028,0.5700073,0.1860046
		l-0.2039795,0.5339966c-0.1640015-0.0679932-0.3300171-0.1239929-0.4979858-0.1679993
		c-0.1680298-0.0440063-0.3439941-0.0659943-0.5280151-0.0659943c-0.1600342,0-0.2940063,0.0240021-0.4020386,0.071991
		c-0.1079712,0.0480042-0.1899414,0.1139984-0.2459717,0.197998c-0.052002,0.0839996-0.0780029,0.1820068-0.0780029,0.2940063
		c0,0.1320038,0.0300293,0.2420044,0.0900269,0.3300018s0.1560059,0.1699982,0.2879639,0.2460022
		c0.132019,0.071991,0.3060303,0.1519928,0.5220337,0.2399902c0.2399902,0.0920105,0.4439697,0.1920013,0.6119995,0.3000031
		c0.1719971,0.1080017,0.302002,0.2380066,0.3899536,0.3899994
		C522.9979858,234.4320068,523.0419922,234.6179962,523.0419922,234.8419952z M526.3410034,234.8419952
		c0,0.256012-0.0620117,0.473999-0.1859741,0.654007c-0.1240234,0.1799927-0.302002,0.3199921-0.5340576,0.4199982
		c-0.2319946,0.095993-0.5079956,0.1439972-0.8279419,0.1439972c-0.1560059,0-0.3060303-0.0099945-0.4500122-0.0299988
		c-0.144043-0.0159912-0.2780151-0.0399933-0.4020386-0.0720062c-0.1239624-0.0319977-0.2340088-0.071991-0.3299561-0.1199951
		v-0.6119995c0.1599731,0.0720062,0.3479614,0.1380005,0.5639648,0.197998
		c0.2160034,0.0559998,0.4360352,0.0839996,0.6600342,0.0839996c0.1919556,0,0.3519897-0.026001,0.4799805-0.0780029
		c0.1279907-0.0519867,0.223999-0.1239929,0.2880249-0.2159882c0.0639648-0.0920105,0.0959473-0.1999969,0.0959473-0.3240051
		c0-0.1320038-0.0339966-0.2420044-0.1019897-0.3300018c-0.0639648-0.0919952-0.1659546-0.1759949-0.3059692-0.2519989
		c-0.1359863-0.0800018-0.3200073-0.1640015-0.552002-0.2519989c-0.1600342-0.0599976-0.3060303-0.1260071-0.4379883-0.197998
		c-0.1280518-0.076004-0.2420044-0.1640015-0.342041-0.2640076c-0.0960083-0.0999908-0.1699829-0.2159882-0.2219849-0.3479919
		s-0.0780029-0.2859955-0.0780029-0.4620056c0-0.2359924,0.0579834-0.4380035,0.1740112-0.6060028
		c0.1199951-0.1679993,0.2839966-0.29599,0.4920044-0.3839874c0.2080078-0.0920105,0.4500122-0.1380005,0.7260132-0.1380005
		c0.2319946,0,0.4459839,0.0239868,0.6419678,0.071991c0.2000122,0.0440063,0.3900146,0.1060028,0.5700073,0.1860046
		l-0.2039795,0.5339966c-0.1640015-0.0679932-0.3300171-0.1239929-0.4980469-0.1679993
		c-0.1679688-0.0440063-0.3439941-0.0659943-0.5279541-0.0659943c-0.1600342,0-0.2940063,0.0240021-0.4020386,0.071991
		c-0.1079712,0.0480042-0.1900024,0.1139984-0.2459717,0.197998c-0.052002,0.0839996-0.0780029,0.1820068-0.0780029,0.2940063
		c0,0.1320038,0.0299683,0.2420044,0.0899658,0.3300018s0.1560059,0.1699982,0.2880249,0.2460022
		c0.132019,0.071991,0.3060303,0.1519928,0.5219727,0.2399902c0.2400513,0.0920105,0.4440308,0.1920013,0.6119995,0.3000031
		c0.1720581,0.1080017,0.302002,0.2380066,0.3900146,0.3899994
		C526.2969971,234.4320068,526.3410034,234.6179962,526.3410034,234.8419952z"/>
	<rect x="627" y="267" style="fill:#EFEDED;" width="24" height="64"/>
	<rect x="871" y="227" style="fill:#EFEDED;" width="44" height="120"/>
	<rect x="632" y="398" style="fill:#EFEDED;" width="53" height="50"/>
	<path style="fill:#EFEDED;" d="M341,225.5h-57v168l54.5,54.5H384v-53.5h-43V225.5z"/>
	<circle style="fill:#6391CC;" cx="657.5" cy="422.5" r="11.5"/>
	<path style="fill:#FFFFFF;" d="M658.3850098,418.2860107h4.4790039v1.9199829h-2.559021v2.5599976h-2.5599976v2.559021h-2.559021
		v2.5599976h-4.4799805v-1.9200134h2.5599976v-2.5599976h2.5599976v-2.5589905h2.559021V418.2860107z M655.2940063,418.7090149
		l-3.5250244,3.5249939l-1.1709595-1.1710205l3.5249634-3.5249939l-1.177002-1.17099h3.519043v3.5189819L655.2940063,418.7090149z"
		/>
	<path style="fill:#FFFFFF;" d="M659.5620117,426.2909851l3.5249634-3.5259705l1.1710205,1.17099l-3.5250244,3.526001
		l1.177002,1.17099h-3.5189819v-3.5189819L659.5620117,426.2909851z"/>
	<circle style="fill:#6391CC;" cx="639.5" cy="301.5" r="11.5"/>
	<path style="fill:#FFFFFF;" d="M645.1380005,298.3059998h-0.7310181l-8.3590088,8.3590088h-2.0549927
		c-0.3689575,0-0.723999-0.1470032-0.9849854-0.40802c-0.2609863-0.2609863-0.40802-0.6159973-0.40802-0.9849854
		c0-0.3699951,0.1470337-0.723999,0.40802-0.9850159c0.2609863-0.2609863,0.6160278-0.4079895,0.9849854-0.4079895h0.8990479
		l1.190979-1.1910095v-2.9889832c0-0.3829956,0.3129883-0.6960144,0.6959839-0.6960144h0.6970215
		c0.3829956,0,0.6969604,0.3130188,0.6969604,0.6960144v0.8989868l5.0780029-5.0780029h1.8870239
		c0.7730103,0,1.3930054,0.6200256,1.3930054,1.3930054C646.5310059,297.6860046,645.9110107,298.3059998,645.1380005,298.3059998z
		 M637.1279907,296.2170105c0.5780029,0,1.0449829,0.4660034,1.0449829,1.0439758c0,0.57901-0.46698,1.0450134-1.0449829,1.0450134
		s-1.0449829-0.4660034-1.0449829-1.0450134C636.0830078,296.6830139,636.5499878,296.2170105,637.1279907,296.2170105z"/>
	<circle style="fill:#6391CC;" cx="887.5" cy="246.5" r="11.5"/>
	<path style="fill:#FFFFFF;" d="M888.3850098,242.2859955h4.4790039v1.9199982h-2.559021v2.5600128h-2.5599976v2.5589905h-2.559021
		v2.5599976h-4.4799805v-1.9199982h2.5599976v-2.5599976h2.5599976v-2.5590057h2.559021V242.2859955z M885.2940063,242.7089996
		l-3.5250244,3.5249939l-1.1709595-1.17099l3.5249634-3.5250092l-1.177002-1.17099h3.519043v3.5189972L885.2940063,242.7089996z"/>
	<path style="fill:#FFFFFF;" d="M889.5620117,250.2910004l3.5249634-3.526001l1.1710205,1.1710052l-3.5250244,3.526001
		l1.177002,1.17099h-3.5189819v-3.5189972L889.5620117,250.2910004z"/>
</g>
<g id="logotypes" style="display:none;">
	<g style="display:inline;">
		<path style="fill:#E3A183;" d="M676,154H536v20h140V154z"/>
		<path style="fill:#FFFFFF;" d="M589.0839844,169.1300049h1.9760132v-4.2910004h4.6469727v-1.881012h-4.6469727v-2.4149933
			h4.7360229v-1.8759918h-6.7120361V169.1300049z"/>
		<path style="fill:#FFFFFF;" d="M579.1420288,169.1300049h1.9759521v-4.2910004h4.6470337v-1.881012h-4.6470337v-2.4149933
			h4.7360229v-1.8759918h-6.7119751V169.1300049z"/>
		<path style="fill:#FFFFFF;" d="M570.5479736,158.5469971c-3.1759644,0-5.5459595,2.2420044-5.5459595,5.3860016
			c0,3.1430054,2.3699951,5.3849945,5.5459595,5.3849945c3.1760254,0,5.5469971-2.2419891,5.5469971-5.3849945
			C576.0949707,160.7890015,573.723999,158.5469971,570.5479736,158.5469971z M570.5479736,167.3220062
			c-1.9899902,0-3.4819946-1.427002-3.4819946-3.3890076c0-1.9629974,1.4920044-3.3899994,3.4819946-3.3899994
			c1.9910278,0,3.4820557,1.427002,3.4820557,3.3899994C574.0300293,165.8950043,572.5440063,167.3220062,570.5479736,167.3220062z"
			/>
		<path style="fill:#FFFFFF;" d="M647.0430298,160.5429993v-1.8759918h-6.7120361v10.4629974h6.7120361v-1.875h-4.7369995
			v-2.4160004h4.6429443v-1.881012h-4.6429443v-2.4149933H647.0430298z"/>
		<path style="fill:#FFFFFF;" d="M614.5839844,164.8390045c2.1190186,0,3.4970093-1.2150116,3.4970093-3.1439972
			c0-1.928009-1.3439941-2.9890137-3.4970093-2.9890137h-4.6129761v10.4290009h1.9760132v-4.3439941h0.0739746l3.7880249,4.3439941
			h2.5479736l-3.9309692-4.2910004h0.1629639L614.5839844,164.8390045z M611.9470215,160.5140076h4.0199585v2.5219879h-4.0199585
			V160.5140076z"/>
		<path style="fill:#FFFFFF;" d="M623.3709717,158.701004h-1.9909668v10.4290009h1.9909668V158.701004z"/>
		<path style="fill:#FFFFFF;" d="M631.9689941,160.5429993c1.526001,0,2.7460327,0.8339996,3.25,2.102005h2.1530151
			c-0.5579834-2.4490051-2.6710205-4.1029968-5.3980103-4.1029968c-3.1760254,0-5.5460205,2.2419891-5.5460205,5.3859863
			c0,3.1430054,2.3699951,5.3850098,5.5460205,5.3850098c2.7269897,0,4.8449707-1.6490021,5.3980103-4.1029968h-2.1530151
			c-0.5039673,1.2679901-1.723999,2.1019897-3.25,2.1019897c-1.9899902,0-3.4819946-1.427002-3.4819946-3.3889923
			c0-1.9620056,1.4869995-3.3899994,3.4819946-3.3899994"/>
		<path style="fill:#FFFFFF;" d="M603.6339722,158.701004h-4.6129761v10.4290009h1.9760132v-4.2910004h2.6369629
			c2.1190186,0,3.4970093-1.2150116,3.4970093-3.1439972c0-1.928009-1.3429565-2.9890137-3.4970093-2.9890137
			 M605.0170288,163.0310059h-4.0200195v-2.5220032h4.0200195V163.0310059z"/>
	</g>
</g>
<g id="interactive">
	<path id="s-4a01" style="fill:none;stroke:#D9D9D9;" d="M627.5,391.5H627V447H391.5V227.5H627V353h60V227.5h179v123h48v37.2999878
		L857.7849731,447H689.5v-55.5H627.5z"/>
	<path id="s-4a02" style="fill:none;stroke:#D9D9D9;" d="M914,220H340.5v5.5h-56v-48.7929993L344.7070007,116.5h512.0860596
		l57.2069702,57.2070007V220H914z"/>
	<g id="wc-1">
		<circle style="fill:#6391CC;" cx="323.5" cy="365.5" r="11.5"/>
		<path style="fill:#FFFFFF;" d="M318.9930115,372.0620117v-4.4680176h-0.3310242
			c-0.1879883,0-0.3450012-0.065979-0.4709778-0.197998C318.0639954,367.2640076,318,367.1010132,318,366.9060059v-3.0939941
			c0-0.3780212,0.1300049-0.7010193,0.3890076-0.9700012c0.2599792-0.2690125,0.5709839-0.4040222,0.9349976-0.4049988h1.9859924
			c0.3649902,0,0.6759949,0.1349792,0.9360046,0.4049988c0.2590027,0.2689819,0.3890076,0.5929871,0.3890076,0.9700012v3.0939941
			c0,0.1950073-0.0639954,0.3580017-0.1910095,0.4899902c-0.1270142,0.132019-0.2839966,0.197998-0.4720154,0.197998h-0.3309937
			v4.4680176c0,0.1949768-0.0629883,0.3589783-0.1900024,0.4909973c-0.1269836,0.1319885-0.2850037,0.196991-0.4719849,0.196991
			h-1.3240051c-0.1870117,0-0.3450012-0.0660095-0.4710083-0.197998
			C319.0570068,372.4200134,318.993988,372.2569885,318.9930115,372.0620117z M320.3169861,361.75
			c-0.3639832,0-0.6749878-0.1350098-0.9349976-0.4039917c-0.2590027-0.2690125-0.3880005-0.5920105-0.3889771-0.9710083
			c0-0.3779907,0.1299744-0.7019958,0.3889771-0.9710083C319.6419983,359.1350098,319.95401,359,320.3169861,359
			c0.3640137,0,0.6760254,0.1350098,0.9360046,0.4039917c0.2590027,0.2700195,0.3890076,0.5930176,0.3880005,0.9710083
			c0,0.3779907-0.1289978,0.7019958-0.3880005,0.9710083C320.993988,361.6159973,320.6820068,361.75,320.3169861,361.75z
			 M325.2829895,372.0620117V368.625h-1.0759888c-0.2210083,0-0.3970032-0.0950012-0.5299988-0.2839966
			c-0.1319885-0.1889954-0.1600037-0.3980103-0.0820007-0.6270142l1.3899841-4.3479919
			c0.0880127-0.2980042,0.2510071-0.5270081,0.4880066-0.6879883c0.2369995-0.1600037,0.5050049-0.2409973,0.803009-0.2409973
			s0.5660095,0.0809937,0.803009,0.2409973c0.2369995,0.1609802,0.3999939,0.3899841,0.4879761,0.6879883l1.3900146,4.3479919
			c0.0780029,0.2290039,0.0499878,0.4380188-0.0820007,0.6280212c-0.1329956,0.1889954-0.3089905,0.2829895-0.5299988,0.2829895
			h-1.0759888v3.4370117c0,0.1949768-0.0640259,0.3589783-0.1910095,0.4909973
			c-0.1270142,0.1319885-0.2839966,0.196991-0.4710083,0.196991h-0.6619873c-0.1880188,0-0.3450012-0.0660095-0.4720154-0.197998
			C325.3469849,372.4200134,325.2829895,372.2569885,325.2829895,372.0620117z M326.276001,361.75
			c-0.3640137,0-0.6759949-0.1350098-0.9349976-0.4039917c-0.2590027-0.2690125-0.3890076-0.5920105-0.3890076-0.9710083
			c0-0.3779907,0.1300049-0.7019958,0.3890076-0.9710083C325.6010132,359.1350098,325.9119873,359,326.276001,359
			s0.6759949,0.1350098,0.9349976,0.4039917c0.2600098,0.2700195,0.3900146,0.5930176,0.3890076,0.9710083
			c0,0.3779907-0.1289978,0.7019958-0.3890076,0.9710083C326.9519958,361.6159973,326.6400146,361.75,326.276001,361.75z"/>
	</g>
	<g id="lift-1">
		<circle style="fill:#6391CC;" cx="887.5" cy="284.5" r="11.5"/>
		<path style="fill-rule:evenodd;clip-rule:evenodd;fill:#FFFFFF;" d="M882.9879761,278.1010132
			c0.3210449-0.3210144,0.7560425-0.5010071,1.210022-0.5010071c0.4530029,0,0.8880005,0.1799927,1.2089844,0.5010071
			c0.3210449,0.3209839,0.5010376,0.7559814,0.5010376,1.2089844c0,0.45401-0.1799927,0.8890076-0.5010376,1.2099915
			c-0.3209839,0.3200073-0.7559814,0.5010071-1.2089844,0.5010071c-0.4539795,0-0.8889771-0.1809998-1.210022-0.5010071
			c-0.3199463-0.3209839-0.5009766-0.7559814-0.5009766-1.2099915
			C882.4869995,278.8569946,882.6680298,278.4219971,882.9879761,278.1010132z M892.2180176,279.9200134l2.9489746,3.9309998
			h-5.8980103L892.2180176,279.9200134z M885.4160156,284.4039917l0.9549561,6.1110229
			c0.0650024,0.4179993-0.2209473,0.8109741-0.6399536,0.8759766c-0.4180298,0.0650024-0.8099976-0.2209778-0.875-0.6389771
			l-0.65802-4.2110291l-0.65802,4.2110291c-0.065979,0.4179993-0.4580078,0.7039795-0.8759766,0.6389771
			c-0.4180298-0.0650024-0.7050171-0.4579773-0.6389771-0.8759766l0.9549561-6.1110229l-0.927002,1.8540039
			c-0.1900024,0.3789978-0.6499634,0.5329895-1.0289917,0.3430176c-0.3789673-0.1890259-0.5319824-0.6500244-0.3429565-1.0280151
			l1.4679565-2.9370117c0.1940308-0.3859863,0.5170288-0.6940002,0.8550415-0.9019775
			c0.3389893-0.2090149,0.7589722-0.3600159,1.1939697-0.3600159c0.4329834,0,0.8530273,0.1520081,1.190979,0.3600159
			c0.3380127,0.2070007,0.6640015,0.5139771,0.8569946,0.9029846l1.4680176,2.9360046
			c0.1900024,0.3779907,0.0360107,0.8389893-0.3430176,1.0280151c-0.3779907,0.1899719-0.8389893,0.0359802-1.0279541-0.3430176
			L885.4160156,284.4039917z M889.2689819,286.0920105h5.8980103l-2.9489746,3.9319763L889.2689819,286.0920105z"/>
	</g>
</g>
<g id="points-logo_00000125585991560537099600000010305551815273676183_">
	<rect id="l-4a02" x="556.2090454" y="152.0638275" style="fill:none;" width="101.327919" height="41.9732895"/>
	<rect id="l-4a01" x="454.4540405" y="323.5267029" style="fill:none;" width="101.327919" height="41.9732895"/>
</g>
</svg>
